<svg width="485" height="243" viewBox="0 0 485 243" fill="none" xmlns="http://www.w3.org/2000/svg">
<path d="M0.699219 243H51.2416V90.8351H53.1135L142.499 243H191.637V3.28187H141.094V155.447H139.223L50.7736 3.28187H0.699219V243ZM277.279 126.887C313.781 126.887 335.776 99.7314 335.776 66.9571V60.4023C335.776 27.6283 313.313 0.472656 277.279 0.472656C241.711 0.472656 218.78 27.6283 218.78 60.4023V66.9571C218.78 100.2 241.711 126.887 277.279 126.887ZM225.332 174.643H329.693V145.615H225.332V174.643ZM277.279 94.1129C264.643 94.1129 256.687 83.5785 256.687 66.9571V60.4023C256.687 43.7812 264.409 33.7149 277.279 33.7149C290.148 33.7149 298.338 43.7812 298.338 60.4023V66.9571C298.338 83.5785 289.914 94.1129 277.279 94.1129ZM484.449 3.28187H424.547L365.581 39.3333V94.5811L417.995 63.2116H419.399V243H484.449V3.28187Z" fill="#F7F7F7"/>
</svg>
