<svg width="32" height="32" viewBox="0 0 32 32" fill="none" xmlns="http://www.w3.org/2000/svg">
<path d="M16.4972 11.9985C14.5692 11.9985 12.9958 13.5719 12.9958 15.5C12.9958 17.4281 14.5692 19.0015 16.4972 19.0015C18.4252 19.0015 19.9986 17.4281 19.9986 15.5C19.9986 13.5719 18.4252 11.9985 16.4972 11.9985ZM26.9988 15.5C26.9988 14.05 27.012 12.6132 26.9305 11.1658C26.8491 9.48469 26.4656 7.99268 25.2363 6.76335C24.0044 5.53139 22.515 5.15051 20.8339 5.06908C19.3839 4.98765 17.9471 5.00078 16.4998 5.00078C15.0499 5.00078 13.613 4.98765 12.1657 5.06908C10.4846 5.15051 8.99262 5.53402 7.76331 6.76335C6.53138 7.9953 6.1505 9.48469 6.06908 11.1658C5.98765 12.6158 6.00078 14.0526 6.00078 15.5C6.00078 16.9474 5.98765 18.3868 6.06908 19.8342C6.1505 21.5153 6.53401 23.0073 7.76331 24.2367C8.99525 25.4686 10.4846 25.8495 12.1657 25.9309C13.6157 26.0124 15.0525 25.9992 16.4998 25.9992C17.9498 25.9992 19.3866 26.0124 20.8339 25.9309C22.515 25.8495 24.007 25.466 25.2363 24.2367C26.4682 23.0047 26.8491 21.5153 26.9305 19.8342C27.0146 18.3868 26.9988 16.95 26.9988 15.5ZM16.4972 20.8875C13.5158 20.8875 11.1098 18.4814 11.1098 15.5C11.1098 12.5186 13.5158 10.1125 16.4972 10.1125C19.4785 10.1125 21.8846 12.5186 21.8846 15.5C21.8846 18.4814 19.4785 20.8875 16.4972 20.8875ZM22.1052 11.1501C21.4092 11.1501 20.847 10.5879 20.847 9.89184C20.847 9.19574 21.4092 8.63361 22.1052 8.63361C22.8013 8.63361 23.3634 9.19574 23.3634 9.89184C23.3636 10.0571 23.3312 10.2208 23.2681 10.3736C23.2049 10.5263 23.1123 10.6651 22.9954 10.782C22.8785 10.8989 22.7397 10.9915 22.587 11.0547C22.4342 11.1179 22.2705 11.1503 22.1052 11.1501Z" fill="#EC6602"/>
</svg>
