<svg width="32" height="32" viewBox="0 0 32 32" fill="none" xmlns="http://www.w3.org/2000/svg">
<path fill-rule="evenodd" clip-rule="evenodd" d="M7.01118 7.66658C6 9.17992 6 11.2866 6 15.5C6 19.7134 6 21.8201 7.01118 23.3334C7.44893 23.9886 8.01144 24.5511 8.66658 24.9888C10.1799 26 12.2866 26 16.5 26C20.7134 26 22.8201 26 24.3334 24.9888C24.9886 24.5511 25.5511 23.9886 25.9888 23.3334C27 21.8201 27 19.7134 27 15.5C27 11.2866 27 9.17992 25.9888 7.66658C25.5511 7.01144 24.9886 6.44893 24.3334 6.01118C22.8201 5 20.7134 5 16.5 5C12.2866 5 10.1799 5 8.66658 6.01118C8.01144 6.44893 7.44893 7.01144 7.01118 7.66658ZM12.8826 12.0001H11C11.0893 16.3725 13.233 19.0001 16.9913 19.0001H17.2042V16.4986C18.5853 16.6388 19.6296 17.6688 20.0487 19.0001H22C21.4641 17.0101 20.0556 15.91 19.1761 15.4896C20.0556 14.9711 21.2923 13.7098 21.5878 12.0001H19.8151C19.4304 13.3875 18.2898 14.6488 17.2042 14.7679V12.0001H15.4316V16.849C14.3323 16.5687 12.9444 15.2093 12.8826 12.0001Z" fill="#EC6602"/>
</svg>
