<svg width="441" height="437" viewBox="0 0 441 437" fill="none" xmlns="http://www.w3.org/2000/svg">
<ellipse cx="45.0159" cy="316.632" rx="16.3372" ry="15.8102" fill="#EC6602"/>
<path d="M220.021 418.567C268.215 418.567 314.876 401.625 351.843 370.704C388.81 339.783 413.732 296.851 422.249 249.416C430.766 201.98 422.337 153.06 398.436 111.21C374.535 69.3595 336.683 37.2432 291.499 20.4768C246.316 3.71043 196.676 3.3611 151.26 19.4899C105.845 35.6187 67.5448 67.1991 43.0571 108.709C18.5694 150.218 9.45285 199.015 17.3017 246.566C25.1505 294.117 49.4651 337.395 85.9936 368.833" stroke="#EC6602" stroke-width="1.59334"/>
<circle cx="219.227" cy="418.914" r="5.17972" transform="rotate(60 219.227 418.914)" fill="#EC6602"/>
<circle cx="198.157" cy="8.25336" r="5.17972" transform="rotate(60 198.157 8.25336)" fill="#EC6602"/>
<circle cx="418.885" cy="262.15" r="5.17972" transform="rotate(60 418.885 262.15)" fill="#EC6602"/>
<circle cx="86.2183" cy="368.107" r="5.17972" transform="rotate(60 86.2183 368.107)" fill="#EC6602"/>
<path d="M149.799 334.417C178.421 350.942 211.941 356.88 244.497 351.191C277.054 345.503 306.575 328.552 327.898 303.301C349.221 278.05 360.989 246.107 361.144 213.057C361.299 180.008 349.831 147.956 328.746 122.506C307.661 97.0561 278.301 79.8281 245.799 73.8348C213.297 67.8415 179.723 73.4643 150.947 89.7199C122.172 105.975 100.026 131.829 88.3832 162.76C76.7403 193.691 76.341 227.731 87.2552 258.926" stroke="#006192" stroke-width="1.59334"/>
<circle cx="87.5055" cy="260.52" r="4.22973" transform="rotate(15 87.5055 260.52)" fill="#006192"/>
<circle cx="149.043" cy="333.204" r="4.22973" transform="rotate(15 149.043 333.204)" fill="#006192"/>
<circle cx="361.211" cy="217.917" r="4.22973" transform="rotate(15 361.211 217.917)" fill="#006192"/>
<circle cx="321.767" cy="336.581" r="83.7941" fill="#EC6602"/>
<path fill-rule="evenodd" clip-rule="evenodd" d="M324.954 297.008L362.837 318.879C363.42 319.216 363.936 319.636 364.375 320.121L340.636 326.843C340.035 326.108 339.299 325.475 338.451 324.985L325.685 317.615C324.753 317.076 323.738 316.742 322.704 316.611V296.223C323.485 296.339 324.249 296.6 324.954 297.008ZM321.111 296.188C320.233 296.279 319.37 296.552 318.581 297.008L280.698 318.879C280.093 319.229 279.56 319.668 279.111 320.176L302.746 326.869C303.351 326.123 304.094 325.481 304.953 324.985L317.718 317.615C318.774 317.005 319.935 316.657 321.111 316.569V296.188ZM278.175 321.567L301.838 328.267C301.276 329.37 300.969 330.605 300.969 331.885V346.625C300.969 349.472 302.488 352.102 304.953 353.525L317.718 360.895C320.183 362.318 323.22 362.318 325.685 360.895L338.451 353.525C340.916 352.102 342.434 349.472 342.434 346.625V331.885C342.434 330.594 342.122 329.349 341.552 328.24L365.33 321.506C365.779 322.388 366.024 323.376 366.024 324.399V369.916C366.024 373.436 363.17 376.29 359.65 376.29H283.885C280.365 376.29 277.511 373.436 277.511 369.916V324.399C277.511 323.399 277.745 322.433 278.175 321.567ZM363.634 317.5L325.751 295.628C323.286 294.205 320.249 294.205 317.784 295.628L279.901 317.5C277.436 318.923 275.918 321.553 275.918 324.399V369.916C275.918 374.316 279.485 377.883 283.885 377.883H359.65C364.05 377.883 367.617 374.316 367.617 369.916V324.399C367.617 321.553 366.099 318.923 363.634 317.5ZM324.889 318.995L337.654 326.365C339.626 327.504 340.841 329.608 340.841 331.885V346.625C340.841 348.902 339.626 351.006 337.654 352.145L324.889 359.515C322.917 360.654 320.487 360.654 318.515 359.515L305.749 352.145C303.777 351.006 302.563 348.902 302.563 346.625V331.885C302.563 329.608 303.777 327.504 305.749 326.365L318.515 318.995C320.487 317.856 322.917 317.856 324.889 318.995ZM321.698 348.872C327.009 348.872 331.315 344.566 331.315 339.255C331.315 333.943 327.009 329.638 321.698 329.638C316.386 329.638 312.08 333.943 312.08 339.255C312.08 344.566 316.386 348.872 321.698 348.872ZM321.698 350.465C327.889 350.465 332.908 345.446 332.908 339.255C332.908 333.063 327.889 328.044 321.698 328.044C315.506 328.044 310.487 333.063 310.487 339.255C310.487 345.446 315.506 350.465 321.698 350.465ZM290.602 334.122H285.25C283.453 334.122 281.997 335.578 281.997 337.374C281.997 339.171 283.453 340.627 285.25 340.627H290.602C292.398 340.627 293.854 339.171 293.854 337.374C293.854 335.578 292.398 334.122 290.602 334.122ZM285.25 332.529C282.573 332.529 280.404 334.698 280.404 337.374C280.404 340.051 282.573 342.22 285.25 342.22H290.602C293.278 342.22 295.448 340.051 295.448 337.374C295.448 334.698 293.278 332.529 290.602 332.529H285.25ZM352.945 334.122H358.297C360.093 334.122 361.549 335.578 361.549 337.374C361.549 339.171 360.093 340.627 358.297 340.627H352.945C351.148 340.627 349.692 339.171 349.692 337.374C349.692 335.578 351.148 334.122 352.945 334.122ZM348.099 337.374C348.099 334.698 350.268 332.529 352.945 332.529H358.297C360.973 332.529 363.143 334.698 363.143 337.374C363.143 340.051 360.973 342.22 358.297 342.22H352.945C350.268 342.22 348.099 340.051 348.099 337.374Z" fill="white"/>
<circle cx="220.818" cy="70.9417" r="20.5862" fill="#EC6602"/>
<circle cx="426.041" cy="192.676" r="14.2292" fill="#006192"/>
<circle cx="17.2415" cy="252.786" r="11.4368" fill="#C5C5C5"/>
<circle cx="282.576" cy="18.3333" r="11.4368" fill="#C5C5C5"/>
<circle cx="87.3146" cy="104.415" r="83.7941" fill="#006192"/>
<path d="M60.1017 85.1181C62.5584 81.5312 65.6739 78.4366 69.2877 76.0018C73.3603 73.2577 77.9719 71.4147 82.814 70.596C85.377 70.1627 87.9734 70.0217 90.5538 70.1706C90.9278 70.1327 91.3073 70.1133 91.6913 70.1133C97.8437 70.1133 102.831 75.1008 102.831 81.2532C102.831 81.7957 102.792 82.3292 102.717 82.851C102.717 82.984 102.704 83.119 102.679 83.2551L101.031 92.2353C100.833 93.3145 99.8919 94.0982 98.7947 94.0982H84.7573M60.1017 85.1181H46.9043C45.6487 85.1181 44.6309 86.1359 44.6309 87.3915V136.384C44.6309 137.64 45.6487 138.658 46.9043 138.658H82.4838C82.6006 138.658 82.7128 138.618 82.8248 138.601C84.015 138.802 85.2189 138.971 86.4265 139.046C87.6797 139.124 88.6946 138.094 88.6898 136.839L88.6325 122.012C88.6277 120.756 87.6003 119.76 86.3582 119.576C85.819 119.497 84.9436 119.295 84.4162 119.158C83.721 118.96 83.0392 118.712 82.3762 118.414C80.4116 117.533 78.6578 116.243 77.2319 114.63C75.8061 113.016 74.7411 111.117 74.1082 109.059C73.4752 107.002 73.2889 104.832 73.5617 102.697C73.8344 100.561 74.56 98.508 75.6899 96.6753C76.8198 94.8425 78.3279 93.2721 80.1135 92.0691C80.7239 91.6578 81.3618 91.2927 82.022 90.9759L82.2203 92.1909C82.3972 93.2748 83.3227 94.0755 84.4162 94.0982L85.2361 94.06M60.1017 85.1181C59.8712 85.4633 59.4162 86.1541 59.198 86.5081C56.6463 90.6471 55.298 95.462 54.682 100.285C54.0659 105.108 54.4867 110.007 55.9161 114.655C57.3455 119.302 59.7507 123.591 62.9707 127.234C66.1907 130.878 70.1515 133.791 74.5881 135.781C77.2253 136.964 79.9938 138.118 82.8275 138.601M81.1217 85.4591L81.9649 90.6255" stroke="white" stroke-width="1.59334"/>
<rect x="107.074" y="116.793" width="23.7276" height="22.6736" rx="3.98334" stroke="white" stroke-width="1.59334"/>
<rect x="95.4807" y="116.793" width="37.4298" height="4.75538" rx="2.37769" fill="#006192" stroke="white" stroke-width="1.59334"/>
<circle cx="377.5" cy="82.3788" r="54.8963" fill="#C5C5C5"/>
<path d="M370.758 103.235C371.193 101.935 372.41 101.058 373.78 101.058H380.266C381.636 101.058 382.853 101.935 383.288 103.235L383.965 105.258C384.617 107.208 386.442 108.522 388.498 108.522H389.833C391.593 108.522 393.02 109.949 393.02 111.709V112.434C393.02 114.194 391.593 115.621 389.833 115.621H364.213C362.453 115.621 361.026 114.194 361.026 112.434V111.709C361.026 109.949 362.453 108.522 364.213 108.522H365.548C367.604 108.522 369.43 107.208 370.081 105.258L370.758 103.235Z" stroke="white" stroke-width="1.59334"/>
<path d="M349.284 56.8807H404.76C406.52 56.8807 407.946 58.3074 407.946 60.0673V93.1515C407.946 94.9115 406.52 96.3382 404.76 96.3382H349.284C347.524 96.3382 346.097 94.9115 346.097 93.1515V60.0673C346.097 58.3074 347.524 56.8807 349.284 56.8807Z" stroke="white" stroke-width="1.59334"/>
<path d="M383.155 87.9662L382.811 87.7557L382.438 87.9078L381.179 88.4209L380.801 88.5749L380.705 88.9715L379.826 92.607H374.223L373.344 88.9715L373.248 88.5749L372.87 88.4209L371.61 87.9078L371.237 87.7557L370.894 87.9662L367.697 89.924L363.734 85.9605L365.692 82.7641L365.902 82.4205L365.75 82.0474L365.237 80.7879L365.083 80.41L364.686 80.3141L361.051 79.4352V73.8318L364.686 72.9529L365.083 72.857L365.237 72.4791L365.75 71.2196L365.902 70.8465L365.692 70.5029L363.734 67.3065L367.697 63.343L370.894 65.3008L371.237 65.5112L371.61 65.3592L372.87 64.8461L373.248 64.6921L373.344 64.2955L374.223 60.6599H379.826L380.705 64.2955L380.801 64.6921L381.179 64.8461L382.438 65.3592L382.811 65.5113L383.155 65.3008L386.351 63.343L390.315 67.3065L388.357 70.5029L388.147 70.8465L388.299 71.2196L388.812 72.4791L388.966 72.857L389.362 72.9529L392.998 73.8318V79.4352L389.362 80.3141L388.966 80.41L388.812 80.7879L388.299 82.0474L388.147 82.4205L388.357 82.7641L390.315 85.9605L386.351 89.924L383.155 87.9662Z" stroke="white" stroke-width="1.59334"/>
<path d="M394.821 66.3468C394.144 65.1572 393.328 64.061 392.442 63.0347M361.724 62.9414C356.732 68.5393 355.169 76.3996 357.665 83.4668M359.228 86.8722C359.928 88.0851 360.767 89.2513 361.7 90.3009M392.325 90.2776C397.317 84.6797 398.879 76.8194 396.384 69.7521" stroke="white" stroke-width="1.59334"/>
<path d="M378.093 76.6101C378.093 77.2006 377.615 77.6794 377.024 77.6794C376.434 77.6794 375.955 77.2006 375.955 76.6101C375.955 76.0195 376.434 75.5408 377.024 75.5408C377.615 75.5408 378.093 76.0195 378.093 76.6101Z" stroke="white" stroke-width="1.59334"/>
<path d="M377.023 81.4108C374.361 81.4108 372.221 79.2717 372.221 76.6096C372.221 73.9474 374.361 71.8084 377.023 71.8084C379.685 71.8084 381.824 73.9474 381.824 76.6096C381.824 79.2484 379.661 81.4108 377.023 81.4108Z" stroke="white" stroke-width="1.59334"/>
</svg>
