<svg width="100" height="100" viewBox="0 0 100 100" fill="none" xmlns="http://www.w3.org/2000/svg">
<path d="M50.7808 39.882H50.7803C50.666 39.882 50.5526 39.8628 50.4446 39.8253L11.2758 26.2012C10.8652 26.0583 10.5898 25.6711 10.5898 25.2361C10.5898 24.8012 10.8652 24.4139 11.276 24.271L50.4451 10.647C50.6623 10.5714 50.8992 10.5714 51.1163 10.647L90.2855 24.271C90.6962 24.4139 90.9716 24.8012 90.9716 25.2361C90.9716 25.6711 90.6962 26.0583 90.2855 26.2012L51.1163 39.8253C51.0085 39.8628 50.8951 39.882 50.7808 39.882ZM14.722 25.2361L50.7806 37.7784L86.8396 25.2361L50.7808 12.694L14.722 25.2361Z" fill="#EC6602"/>
<path d="M50.7821 39.8819C50.6687 39.8819 50.5551 39.863 50.4464 39.8252L30.0104 32.717C29.5996 32.5741 29.3242 32.1869 29.3242 31.7519C29.3242 31.317 29.5996 30.9297 30.0104 30.7868L50.4464 23.6785C50.6636 23.6029 50.9005 23.6029 51.1176 23.6785L71.5537 30.7868C71.9646 30.9297 72.2398 31.317 72.2398 31.7519C72.2398 32.1869 71.9646 32.5741 71.5537 32.717L51.1176 39.8252C51.0091 39.863 50.8955 39.8819 50.7821 39.8819ZM33.4562 31.7519L50.7819 37.7784L68.1078 31.7519L50.7821 25.7255L33.4562 31.7519Z" fill="#EC6602"/>
<path d="M50.7821 77.9404C50.6687 77.9404 50.5551 77.9215 50.4464 77.8837L30.0104 70.7755C29.5996 70.6326 29.3242 70.2454 29.3242 69.8104C29.3242 69.3755 29.5996 68.9882 30.0104 68.8453L50.4464 61.7371C50.6636 61.6617 50.9005 61.6617 51.1176 61.7371L71.5537 68.8453C71.9646 68.9882 72.2398 69.3755 72.2398 69.8104C72.2398 70.2454 71.9646 70.6326 71.5537 70.7755L51.1176 77.8837C51.0091 77.9213 50.8955 77.9404 50.7821 77.9404ZM33.4564 69.8102L50.7819 75.8367L68.1078 69.8102L50.7821 63.784L33.4564 69.8102Z" fill="#EC6602"/>
<path d="M50.7808 90.9721C50.6693 90.9721 50.5575 90.9539 50.4508 90.9173L50.4503 90.9171L11.276 77.2914C10.8652 77.1485 10.5898 76.7612 10.5898 76.3263C10.5898 75.8913 10.8652 75.5041 11.276 75.3612L50.4451 61.7371C50.6623 61.6617 50.8992 61.6617 51.1163 61.7371L90.2855 75.3612C90.6962 75.5041 90.9716 75.8913 90.9716 76.3263C90.9716 76.7612 90.6962 77.1485 90.2855 77.2914L51.1163 90.9154C51.0078 90.9532 50.8942 90.9721 50.7808 90.9721ZM14.722 76.3263L50.7808 88.8684L86.8396 76.3263L50.7808 63.7841L14.722 76.3263Z" fill="#EC6602"/>
<path d="M89.9515 77.3482C89.3873 77.3482 88.9297 76.8906 88.9297 76.3264V25.2362C88.9297 24.672 89.3873 24.2144 89.9515 24.2144C90.5157 24.2144 90.9733 24.672 90.9733 25.2362V76.3264C90.9733 76.8906 90.5157 77.3482 89.9515 77.3482Z" fill="#EC6602"/>
<path d="M11.6116 77.3482C11.0474 77.3482 10.5898 76.8906 10.5898 76.3264V25.2362C10.5898 24.672 11.0474 24.2144 11.6116 24.2144C12.1759 24.2144 12.6335 24.672 12.6335 25.2362V76.3264C12.6335 76.8906 12.1759 77.3482 11.6116 77.3482Z" fill="#EC6602"/>
<path d="M50.7801 77.3481C50.2159 77.3481 49.7583 76.8906 49.7583 76.3263L49.7578 38.8602C49.7578 38.296 50.2154 37.8384 50.7796 37.8384C51.3438 37.8384 51.8014 38.2958 51.8014 38.8602L51.802 76.3263C51.802 76.8906 51.3444 77.3481 50.7801 77.3481Z" fill="#EC6602"/>
<path d="M50.7796 24.5549C50.2154 24.5549 49.7578 24.0973 49.7578 23.5331L49.7583 11.6121C49.7583 11.0479 50.2159 10.5903 50.7801 10.5903C51.3444 10.5903 51.802 11.0479 51.802 11.6121L51.8014 23.5331C51.8014 24.0975 51.344 24.5549 50.7796 24.5549Z" fill="#EC6602"/>
<path d="M50.7796 90.9721C50.2154 90.9721 49.7578 90.5145 49.7578 89.9503L49.7583 78.0293C49.7583 77.465 50.2159 77.0074 50.7801 77.0074C51.3444 77.0074 51.802 77.465 51.802 78.0293L51.8014 89.9503C51.8014 90.5145 51.344 90.9721 50.7796 90.9721Z" fill="#EC6602"/>
<path d="M71.2171 70.8324C70.6529 70.8324 70.1953 70.3748 70.1953 69.8106V32.0482C70.1953 31.484 70.6529 31.0264 71.2171 31.0264C71.7813 31.0264 72.2389 31.484 72.2389 32.0482V69.8106C72.2389 70.3749 71.7813 70.8324 71.2171 70.8324Z" fill="#EC6602"/>
<path d="M30.3462 70.5362C30.3452 70.5362 30.3442 70.5362 30.3431 70.5362C29.7789 70.5345 29.3227 70.0759 29.3242 69.5115L29.4307 32.0453C29.4322 31.482 29.8894 31.0264 30.4525 31.0264C30.4535 31.0264 30.4545 31.0264 30.4555 31.0264C31.0197 31.028 31.476 31.4868 31.4744 32.0511L31.368 69.5173C31.3665 70.0806 30.9092 70.5362 30.3462 70.5362Z" fill="#EC6602"/>
</svg>
