<svg width="100" height="100" viewBox="0 0 100 100" fill="none" xmlns="http://www.w3.org/2000/svg">
<path d="M72.1876 63.0831C78.6043 56.9998 82.2918 48.5623 82.2918 39.6873C82.2918 21.8748 67.8126 7.39563 50.0001 7.39563C32.1876 7.39563 17.7084 21.8748 17.7084 39.6873C17.7084 48.5623 21.3959 56.9998 27.8126 63.0831L11.8751 79.0415C11.5834 79.3331 11.4793 79.7915 11.6459 80.1665C11.8126 80.5623 12.1876 80.8123 12.6043 80.8123H23.3543V91.5623C23.3543 91.979 23.6043 92.354 24.0001 92.5206C24.1251 92.5831 24.2709 92.604 24.3959 92.604C24.6668 92.604 24.9376 92.4998 25.1251 92.2915L45.7293 71.6873C47.2084 71.8748 48.6251 71.979 49.9793 71.979C51.3543 71.979 52.7501 71.8748 54.2293 71.6873L74.8334 92.2915C75.0418 92.4998 75.2918 92.604 75.5626 92.604C75.6876 92.604 75.8334 92.5831 75.9584 92.5206C76.3543 92.354 76.6043 91.979 76.6043 91.5623V80.8123H87.3543C87.771 80.8123 88.1459 80.5623 88.3126 80.1665C88.4793 79.7706 88.3751 79.3331 88.0834 79.0415L72.1876 63.0831ZM25.4376 89.0415V79.7706C25.4376 79.1873 24.9793 78.729 24.3959 78.729H15.1251L29.3543 64.4998C33.3751 67.854 38.1251 70.1665 43.2293 71.2706L25.4376 89.0415ZM45.5001 69.5831C39.7293 68.7081 34.3751 66.2081 29.9793 62.3123C23.5001 56.5831 19.7918 48.3331 19.7918 39.6873C19.7918 23.0206 33.3334 9.47896 50.0001 9.47896C66.6668 9.47896 80.2085 23.0206 80.2085 39.6873C80.2085 48.3331 76.5001 56.5831 70.0209 62.3123C65.6251 66.2081 60.2709 68.729 54.5001 69.5831C51.3334 69.9998 48.6668 69.9998 45.5001 69.5831ZM75.6043 78.729C75.0209 78.729 74.5626 79.1873 74.5626 79.7706V89.0415L56.7709 71.2498C61.8751 70.1665 66.6043 67.8331 70.6251 64.479L84.8751 78.729H75.6043Z" fill="#EC6602"/>
<path d="M71.0182 33.6039C71.3098 33.3331 71.414 32.9164 71.289 32.5414C71.164 32.1664 70.8307 31.8956 70.4557 31.8331L56.8932 29.8539L50.8307 17.5623C50.4765 16.8539 49.3098 16.8539 48.9557 17.5623L42.8932 29.8539L29.3307 31.8331C28.9348 31.8956 28.6223 32.1664 28.4973 32.5414C28.3723 32.9164 28.4765 33.3331 28.7682 33.6039L38.5807 43.1664L36.2682 56.6664C36.2057 57.0623 36.3515 57.4581 36.6848 57.6873C36.9973 57.9164 37.4348 57.9581 37.789 57.7706L49.914 51.3956L62.039 57.7706C62.1848 57.8539 62.3515 57.8956 62.5182 57.8956C62.7265 57.8956 62.9557 57.8331 63.1223 57.6873C63.4348 57.4581 63.6015 57.0623 63.539 56.6664L61.2265 43.1664L71.0182 33.6039ZM50.3723 49.2914C50.2265 49.2081 50.0598 49.1664 49.8932 49.1664C49.7265 49.1664 49.5598 49.2081 49.414 49.2914L38.6848 54.9373L40.7265 42.9789C40.789 42.6456 40.664 42.2914 40.4348 42.0623L31.7473 33.5831L43.7473 31.8331C44.0807 31.7914 44.3723 31.5623 44.539 31.2706L49.914 20.3956L55.289 31.2706C55.4348 31.5831 55.7265 31.7914 56.0807 31.8331L68.0807 33.5831L59.3932 42.0623C59.1432 42.3123 59.039 42.6456 59.1015 42.9789L61.1432 54.9373L50.3723 49.2914Z" fill="#EC6602"/>
</svg>
