<svg width="100" height="100" viewBox="0 0 100 100" fill="none" xmlns="http://www.w3.org/2000/svg">
<path d="M82.4769 5.58095L74.1292 7.11776C73.8375 7.16894 73.5781 7.33377 73.4078 7.57606C73.2376 7.81836 73.1704 8.11832 73.2211 8.41008L74.7579 16.7578C74.7778 16.9071 74.8276 17.0509 74.9044 17.1804C74.9811 17.31 75.0833 17.4228 75.2048 17.5119C75.3262 17.601 75.4644 17.6646 75.6111 17.6989C75.7578 17.7333 75.9099 17.7376 76.0583 17.7117C76.2066 17.6858 76.3483 17.6302 76.4746 17.5482C76.6009 17.4662 76.7094 17.3595 76.7935 17.2345C76.8775 17.1095 76.9355 16.9688 76.9638 16.8209C76.9922 16.6729 76.9903 16.5208 76.9584 16.3736L75.8756 10.5057C88.8309 18.659 96.0435 32.6812 95.9939 47.1098C95.9918 47.258 96.0192 47.405 96.0744 47.5424C96.1296 47.6799 96.2116 47.805 96.3156 47.9104C96.4196 48.0159 96.5435 48.0997 96.6802 48.1568C96.8168 48.214 96.9635 48.2435 97.1116 48.2435C97.2597 48.2435 97.4063 48.214 97.543 48.1568C97.6796 48.0997 97.8036 48.0159 97.9075 47.9104C98.0115 47.805 98.0935 47.6799 98.1488 47.5424C98.204 47.405 98.2314 47.258 98.2293 47.1098C98.281 32.0571 90.8197 17.3965 77.4124 8.79428L82.8611 7.78138C83.0104 7.76155 83.1542 7.71174 83.2838 7.63495C83.4134 7.55816 83.5261 7.45597 83.6152 7.33452C83.7043 7.21307 83.768 7.07486 83.8023 6.9282C83.8366 6.78154 83.841 6.62944 83.8151 6.48106C83.7892 6.33267 83.7336 6.19106 83.6515 6.06471C83.5695 5.93837 83.4628 5.8299 83.3378 5.74583C83.2128 5.66176 83.0722 5.60381 82.9242 5.57548C82.7763 5.54715 82.6241 5.54901 82.4769 5.58095ZM30.8539 7.39718C30.7184 7.41974 30.5881 7.4671 30.4697 7.53689C17.4246 15.0073 8.43343 28.8171 7.66202 44.6998L4.06448 40.5085C3.95968 40.3777 3.82679 40.272 3.67564 40.1995C3.52449 40.1269 3.35895 40.0893 3.19129 40.0894C2.97356 40.0911 2.76107 40.1563 2.57989 40.277C2.39871 40.3978 2.25675 40.5688 2.17143 40.7691C2.08611 40.9695 2.06115 41.1903 2.09961 41.4046C2.13808 41.6189 2.23829 41.8174 2.38795 41.9755L7.87159 48.4371C8.06669 48.6585 8.34142 48.7938 8.63586 48.8134C8.93031 48.833 9.22056 48.7354 9.44333 48.5419L15.9049 43.0582C16.0275 42.9676 16.1303 42.8529 16.2069 42.7211C16.2835 42.5893 16.3323 42.4432 16.3504 42.2918C16.3685 42.1404 16.3554 41.9869 16.3119 41.8408C16.2685 41.6947 16.1956 41.559 16.0978 41.4421C15.9999 41.3251 15.8792 41.2295 15.743 41.1609C15.6069 41.0924 15.4581 41.0524 15.3059 41.0435C15.1537 41.0346 15.0013 41.0569 14.8581 41.109C14.7148 41.1612 14.5837 41.2421 14.4729 41.3468L9.89739 45.2587C10.4784 29.9567 19.0601 16.6667 31.5874 9.49284C31.8336 9.37281 32.0271 9.16659 32.1313 8.91332C32.2355 8.66004 32.243 8.37734 32.1526 8.11885C32.0621 7.86036 31.8799 7.64408 31.6405 7.51105C31.4011 7.37802 31.1212 7.3375 30.8539 7.39718ZM46.1173 15.7449C45.8649 15.8014 45.64 15.9437 45.4807 16.1475C45.3215 16.3513 45.2379 16.604 45.2441 16.8626V24.7562L42.2054 25.7691L36.8266 20.3553C36.7223 20.2476 36.5975 20.1619 36.4595 20.1034C36.3215 20.0449 36.1731 20.0148 36.0232 20.0148C35.8733 20.0148 35.725 20.0449 35.587 20.1034C35.449 20.1619 35.3241 20.2476 35.2199 20.3553L26.3832 29.192C26.1763 29.4012 26.0603 29.6836 26.0603 29.9779C26.0603 30.2721 26.1763 30.5545 26.3832 30.7637L31.797 36.1775L30.7841 39.2162H22.8905C22.594 39.2162 22.3098 39.334 22.1002 39.5436C21.8906 39.7532 21.7728 40.0375 21.7728 40.3339V53.4667C21.7728 53.7631 21.8906 54.0474 22.1002 54.257C22.3098 54.4666 22.594 54.5843 22.8905 54.5844H30.7841L31.797 57.5881L26.3832 63.0019C26.1763 63.2111 26.0603 63.4935 26.0603 63.7878C26.0603 64.082 26.1763 64.3644 26.3832 64.5736L35.2199 73.4103C35.3241 73.5181 35.449 73.6037 35.587 73.6622C35.725 73.7207 35.8733 73.7509 36.0232 73.7509C36.1731 73.7509 36.3215 73.7207 36.4595 73.6622C36.5975 73.6037 36.7223 73.5181 36.8266 73.4103L42.2054 68.0315L45.2441 69.0444V76.938C45.2441 77.2344 45.3619 77.5187 45.5715 77.7283C45.7811 77.9379 46.0654 78.0557 46.3618 78.0557H59.4946C59.791 78.0557 60.0753 77.9379 60.2849 77.7283C60.4945 77.5187 60.6122 77.2344 60.6123 76.938V69.0444L63.616 67.9965L69.0298 73.4103C69.239 73.6172 69.5214 73.7332 69.8157 73.7332C70.1099 73.7332 70.3923 73.6172 70.6015 73.4103L79.4382 64.5736C79.6451 64.3644 79.7611 64.082 79.7611 63.7878C79.7611 63.4935 79.6451 63.2111 79.4382 63.0019L74.0594 57.5881L75.0723 54.5844H82.9659C83.2623 54.5843 83.5466 54.4666 83.7562 54.257C83.9658 54.0474 84.0836 53.7631 84.0836 53.4667V40.3339C84.0836 40.0375 83.9658 39.7532 83.7562 39.5436C83.5466 39.334 83.2623 39.2162 82.9659 39.2162H75.0723L74.0594 36.1775L79.4382 30.7637C79.6451 30.5545 79.7611 30.2721 79.7611 29.9779C79.7611 29.6836 79.6451 29.4012 79.4382 29.192L70.6015 20.3553C70.3923 20.1484 70.1099 20.0324 69.8157 20.0324C69.5214 20.0324 69.239 20.1484 69.0298 20.3553L63.651 25.7691L60.6123 24.7562V16.8626C60.6122 16.5661 60.4945 16.2819 60.2849 16.0723C60.0753 15.8627 59.791 15.7449 59.4946 15.7449H46.3618C46.2805 15.7359 46.1986 15.7359 46.1173 15.7449ZM47.4795 17.9802H58.3769V25.5595C58.3798 25.7925 58.4554 26.0187 58.5932 26.2066C58.731 26.3944 58.924 26.5346 59.1453 26.6074L63.5811 28.1092C63.7801 28.1755 63.9937 28.1844 64.1975 28.135C64.4013 28.0856 64.5871 27.9798 64.7337 27.8298L69.8331 22.7304L77.0981 29.9953L71.9986 35.0948C71.8486 35.2413 71.7429 35.4271 71.6935 35.631C71.6441 35.8348 71.653 36.0484 71.7192 36.2474L73.1862 40.6832C73.2608 40.9102 73.4063 41.1073 73.6011 41.2455C73.796 41.3838 74.03 41.456 74.2689 41.4516H81.8482V52.349H74.2689C74.03 52.3445 73.796 52.4167 73.6011 52.555C73.4063 52.6933 73.2608 52.8904 73.1862 53.1174L71.7192 57.5532C71.653 57.7522 71.6441 57.9658 71.6935 58.1696C71.7429 58.3734 71.8486 58.5592 71.9986 58.7058L77.0631 63.7703L69.8331 71.0352L64.7337 65.9358C64.5834 65.7918 64.3959 65.6926 64.1922 65.6494C63.9886 65.6062 63.7769 65.6207 63.5811 65.6913L59.1453 67.1583C58.924 67.2311 58.731 67.3712 58.5932 67.5591C58.4554 67.7469 58.3798 67.9732 58.3769 68.2061V75.8203H47.4795V68.2061C47.4766 67.9732 47.4009 67.7469 47.2632 67.5591C47.1254 67.3712 46.9324 67.2311 46.7111 67.1583L42.2753 65.6913C42.0794 65.6207 41.8678 65.6062 41.6641 65.6494C41.4605 65.6926 41.2729 65.7918 41.1227 65.9358L36.0232 71.0352L28.7932 63.7703L33.8577 58.7058C34.0077 58.5592 34.1135 58.3734 34.1629 58.1696C34.2123 57.9658 34.2034 57.7522 34.1371 57.5532L32.6352 53.1174C32.5624 52.8961 32.4223 52.7031 32.2345 52.5653C32.0466 52.4275 31.8204 52.3519 31.5874 52.349H24.0081V41.4516H31.5874C31.8204 41.4487 32.0466 41.373 32.2345 41.2353C32.4223 41.0975 32.5624 40.9045 32.6352 40.6832L34.1371 36.2474C34.2034 36.0484 34.2123 35.8348 34.1629 35.631C34.1135 35.4271 34.0077 35.2413 33.8577 35.0948L28.7583 29.9953L36.0232 22.7304L41.1227 27.8298C41.2692 27.9798 41.455 28.0856 41.6588 28.135C41.8627 28.1844 42.0763 28.1755 42.2753 28.1092L46.7111 26.6074C46.9324 26.5346 47.1254 26.3944 47.2632 26.2066C47.4009 26.0187 47.4766 25.7925 47.4795 25.5595V17.9802ZM52.9282 35.4091C46.6021 35.4091 41.437 40.5766 41.437 46.9003C41.437 53.2241 46.6021 58.3915 52.9282 58.3915C59.2543 58.3915 64.4194 53.2241 64.4194 46.9003C64.4194 40.5766 59.2543 35.4091 52.9282 35.4091ZM52.9282 37.6445C58.0419 37.6445 62.184 41.7894 62.184 46.9003C62.184 52.0113 58.0419 56.1561 52.9282 56.1561C47.8145 56.1561 43.6724 52.0113 43.6724 46.9003C43.6724 41.7894 47.8145 37.6445 52.9282 37.6445ZM67.5628 80.78C67.3134 80.8141 67.0828 80.9313 66.9083 81.1128C66.7338 81.2943 66.6257 81.5293 66.6014 81.7799C66.5772 82.0305 66.6382 82.2819 66.7747 82.4935C66.9111 82.705 67.115 82.8643 67.3533 82.9456L73.0465 84.9714C59.4985 92.1276 43.6855 91.3257 31.2032 84.0632C30.9722 83.9258 30.6994 83.8762 30.4348 83.9235C30.2123 83.9674 30.0084 84.078 29.8503 84.2405C29.6921 84.403 29.587 84.6098 29.5492 84.8334C29.5113 85.057 29.5423 85.2868 29.6381 85.4924C29.7339 85.6979 29.8899 85.8695 30.0855 85.9843C43.0885 93.5498 59.5269 94.4616 73.6752 87.1718L71.824 92.376C71.7548 92.5178 71.7165 92.6727 71.7115 92.8304C71.7065 92.9882 71.7349 93.1452 71.795 93.2911C71.855 93.437 71.9452 93.5686 72.0598 93.6772C72.1743 93.7857 72.3105 93.8688 72.4595 93.9209C72.6084 93.9731 72.7667 93.9931 72.9239 93.9796C73.0812 93.9662 73.2338 93.9196 73.3717 93.8429C73.5096 93.7663 73.6298 93.6613 73.7242 93.5349C73.8187 93.4085 73.8853 93.2635 73.9197 93.1095L76.7837 85.1111C76.8745 84.8375 76.8562 84.5395 76.7326 84.2792C76.6089 84.0189 76.3895 83.8164 76.1201 83.714L68.1217 80.8499C67.9444 80.7793 67.752 80.7552 67.5628 80.78Z" fill="#EC6602"/>
</svg>
