<svg width="150" height="43" viewBox="0 0 150 43" fill="none" xmlns="http://www.w3.org/2000/svg">
<g clip-path="url(#clip0_1132_54323)">
<path d="M-0.568359 15.5498V15.473C-0.568359 7.44891 5.34073 0.768555 13.5983 0.768555C18.6741 0.768555 21.7422 2.61142 24.5453 5.26052L22.3862 7.60248C20.0377 5.3373 17.3862 3.72481 13.5604 3.72481C7.34831 3.72481 2.72709 8.83106 2.72709 15.3578V15.4346C2.72709 21.9998 7.42407 27.1828 13.5604 27.1828C17.3862 27.1828 19.9241 25.6855 22.6135 23.0748L24.6968 25.148C21.7801 28.1427 18.5604 30.1391 13.4847 30.1391C5.37861 30.1775 -0.568359 23.7275 -0.568359 15.5498Z" fill="white"/>
<path d="M27.5752 0.0771484H30.6434V29.7164H27.5752V0.0771484Z" fill="white"/>
<path d="M35.5684 0.65332H39.0911V4.10868H35.5684V0.65332ZM35.7578 8.71583H38.8259V29.7167H35.7578V8.71583Z" fill="white"/>
<path d="M43.6357 8.7156H46.7039V12.3629C48.0676 10.0977 50.2266 8.25488 53.7873 8.25488C58.7873 8.25488 61.7039 11.6718 61.7039 16.6629V29.6781H58.6357V17.4308C58.6357 13.5531 56.5524 11.096 52.916 11.096C49.3554 11.096 46.7039 13.7451 46.7039 17.6611V29.6781H43.6357V8.7156Z" fill="white"/>
<path d="M64.3555 23.6121V23.5353C64.3555 19.0433 67.954 16.663 73.2191 16.663C75.8706 16.663 77.6888 17.0469 79.5449 17.546V16.8933C79.5449 13.1692 77.31 11.2112 73.4085 11.2112C70.9464 11.2112 69.0524 11.8255 67.1206 12.7085L66.2115 10.1362C68.4843 9.09958 70.6812 8.37012 73.7494 8.37012C76.6661 8.37012 78.9388 9.17637 80.4161 10.6737C81.8555 12.1326 82.5752 14.1674 82.5752 16.8549V29.6782H79.5449V26.5683C78.1055 28.4496 75.757 30.1389 72.0827 30.1389C68.2191 30.1389 64.3555 27.9121 64.3555 23.6121ZM79.5827 21.9612V20.0032C78.0676 19.5424 76.06 19.1201 73.5221 19.1201C69.6964 19.1201 67.4615 20.8094 67.4615 23.3433V23.4201C67.4615 26.0692 69.8479 27.6049 72.6509 27.6049C76.5146 27.6049 79.5827 25.3014 79.5827 21.9612Z" fill="white"/>
<path d="M85.416 19.3117V19.2349C85.416 13.3224 89.9615 8.29297 96.0221 8.29297C99.9615 8.29297 102.386 9.94385 104.318 12.0171L102.272 14.2055C100.643 12.4778 98.7872 11.0572 95.9842 11.0572C91.7796 11.0572 88.5599 14.6662 88.5599 19.1581V19.2349C88.5599 23.7653 91.8554 27.4126 96.1736 27.4126C98.8251 27.4126 100.871 26.0689 102.499 24.3028L104.469 26.184C102.386 28.526 99.8857 30.2537 96.0221 30.2537C89.9993 30.1769 85.416 25.1858 85.416 19.3117Z" fill="white"/>
<path d="M78.2197 42.0402L78.9015 41.1955C79.5455 41.733 80.1515 42.0786 80.9849 42.0786C81.7046 42.0786 82.1591 41.733 82.1591 41.2339C82.1591 40.7732 81.894 40.5045 80.6818 40.1973C79.2803 39.8518 78.4849 39.4295 78.4849 38.2009C78.4849 37.0491 79.4319 36.2812 80.7197 36.2812C81.6667 36.2812 82.4243 36.5884 83.1061 37.1259L82.5 38.0089C81.894 37.5482 81.3258 37.3179 80.7197 37.3179C80.0379 37.3179 79.6591 37.6634 79.6591 38.1241C79.6591 38.6232 79.9621 38.8536 81.2122 39.1607C82.6137 39.5062 83.3334 40.0054 83.3334 41.1188V41.1571C83.3334 42.3857 82.3485 43.1536 80.9849 43.1536C79.9621 43.1152 79.0152 42.7312 78.2197 42.0402Z" fill="white"/>
<path d="M92.3486 36.3584H97.235V37.395H93.5229V39.1227H96.8183V40.1593H93.5229V41.9637H97.2729V43.0004H92.3486V36.3584Z" fill="white"/>
<path d="M106.326 36.3584H109.243C110.076 36.3584 110.72 36.5887 111.137 37.0111C111.477 37.3566 111.667 37.8557 111.667 38.4316C111.667 39.545 111.023 40.1977 110.114 40.4664L111.894 43.0004H110.53L108.902 40.6968H107.462V43.0004H106.288V36.3584H106.326ZM109.167 39.6602C110 39.6602 110.53 39.2379 110.53 38.5468C110.53 37.8173 110.038 37.4334 109.167 37.4334H107.5V39.6602H109.167Z" fill="white"/>
<path d="M120.871 36.3584H122.007V43.0004H120.871V36.3584Z" fill="white"/>
<path d="M131.478 36.3584H136.364V37.395H132.652V39.1227H135.947V40.1593H132.652V41.9637H136.402V43.0004H131.478V36.3584Z" fill="white"/>
<path d="M145 42.0402L145.682 41.1955C146.326 41.733 146.932 42.0786 147.765 42.0786C148.485 42.0786 148.939 41.733 148.939 41.2339C148.939 40.7732 148.674 40.5045 147.462 40.1973C146.061 39.8518 145.265 39.4295 145.265 38.2009C145.265 37.0491 146.212 36.2812 147.5 36.2812C148.447 36.2812 149.205 36.5884 149.886 37.1259L149.28 38.0089C148.674 37.5482 148.106 37.3179 147.5 37.3179C146.818 37.3179 146.439 37.6634 146.439 38.1241C146.439 38.6232 146.742 38.8536 147.992 39.1607C149.394 39.5062 150.114 40.0054 150.114 41.1188V41.1571C150.114 42.3857 149.167 43.1536 147.765 43.1536C146.742 43.1152 145.795 42.7312 145 42.0402Z" fill="white"/>
<path d="M113.978 -0.15332H120.379V5.33685H113.978V-0.15332ZM114.129 7.71721H120.228V29.486H114.129V7.71721Z" fill="white"/>
<path d="M132.652 15.0121L123.296 1.03711H130.493L136.364 10.2514L142.273 1.03711H149.28L139.924 14.9353L149.697 29.4478H142.5L136.212 19.696L129.886 29.4478H122.879L132.652 15.0121Z" fill="white"/>
</g>
<defs>
<clipPath id="clip0_1132_54323">
<rect width="150" height="43" fill="white"/>
</clipPath>
</defs>
</svg>
