<svg width="165" height="34" viewBox="0 0 165 34" fill="none" xmlns="http://www.w3.org/2000/svg">
<g clip-path="url(#clip0_1132_54373)">
<path d="M9.54166 20.0679H31.7083L36.8333 13.5167H9.54166V7.83622H32.8333L38.8333 0.124023H0V33.9167H32.9583L38.9167 26.3289H9.54166V20.0679Z" fill="#006192"/>
<path d="M135.709 26.3289V20.0679H157.875L163 13.5167H135.709V7.83622H159.042L165 0.124023H126.167V33.9167H159.125L165.084 26.3289H135.709Z" fill="#006192"/>
<path d="M92.6247 1.36793C90.1247 2.19719 87.9163 3.31671 86.1247 4.8094C84.333 6.26062 82.9163 8.04355 81.9163 10.0338C81.833 10.1996 81.7497 10.3655 81.708 10.4899C81.6247 10.324 81.583 10.1582 81.4997 10.0338C80.4997 8.00208 79.083 6.26062 77.2913 4.8094C75.4997 3.35818 73.2913 2.19719 70.7913 1.36793C68.2497 0.538658 65.458 0.124023 62.458 0.124023H39.458V7.83622H62.458C63.9997 7.83622 65.4997 8.08501 66.833 8.5411C68.1663 8.9972 69.3747 9.66062 70.3747 10.4484C71.4163 11.2777 72.208 12.2728 72.7913 13.3923C73.3747 14.5533 73.6663 15.7972 73.6663 17.1655C73.6663 18.5338 73.3747 19.8192 72.7913 20.9387C72.208 22.0582 71.4163 23.0533 70.4163 23.8411C69.4163 24.6289 68.208 25.2509 66.8747 25.6655C65.5413 26.0801 64.0413 26.2874 62.458 26.2874H48.9997V13.5167L39.458 25.8313V33.8753H62.458C65.4163 33.8753 68.208 33.4192 70.7497 32.5484C73.2497 31.6777 75.458 30.4338 77.2497 28.8996C79.0413 27.3655 80.4997 25.5411 81.4997 23.4265C81.583 23.2606 81.6663 23.0533 81.7497 22.8874C81.833 23.0533 81.9163 23.2606 81.9997 23.4265C83.0413 25.5411 84.458 27.3655 86.2497 28.8996C88.0413 30.4338 90.2497 31.6362 92.7497 32.5484C95.2913 33.4192 98.083 33.8753 101.041 33.8753H124.041V25.8313L114.5 13.5167V26.2874H101.041C99.458 26.2874 97.958 26.0801 96.6247 25.6655C95.2497 25.2509 94.0413 24.6289 93.083 23.8411C92.083 23.0533 91.2913 22.0582 90.708 20.9387C90.1247 19.8192 89.833 18.5338 89.833 17.1655C89.833 15.8387 90.1247 14.5533 90.708 13.3923C91.2913 12.2313 92.083 11.2362 93.1247 10.4484C94.1247 9.66062 95.333 8.9972 96.6663 8.5411C97.9997 8.08501 99.4997 7.83622 101.041 7.83622H124.041V0.124023H101.041C97.9997 0.124023 95.1663 0.538658 92.6247 1.36793Z" fill="#006192"/>
</g>
<defs>
<clipPath id="clip0_1132_54373">
<rect width="165" height="34" fill="white"/>
</clipPath>
</defs>
</svg>
