<svg width="226" height="82" viewBox="0 0 226 82" fill="none" xmlns="http://www.w3.org/2000/svg">
<path d="M0 15.3676V15.2627C0 7.50051 5.76233 0.629883 14.3265 0.629883C19.1373 0.629883 22.0978 1.99351 24.9525 4.4061L22.8907 6.81868C20.6704 4.93057 18.2386 3.56695 14.2208 3.56695C7.92982 3.56695 3.38339 8.86413 3.38339 15.1578V15.2627C3.38339 22.0285 7.71835 27.011 14.6437 27.011C17.9214 27.011 20.9347 25.7522 22.8907 24.1788V17.1509H14.1679V14.2662H25.9569V25.5425C23.3137 27.9026 19.2959 29.8431 14.4851 29.8431C5.55087 29.948 0 23.497 0 15.3676Z" fill="white"/>
<path d="M29.8164 23.3917V23.2868C29.8164 18.7763 33.4641 16.4686 38.8035 16.4686C41.4997 16.4686 43.35 16.8358 45.2531 17.3602V16.7309C45.2531 13.0071 42.9799 11.0665 39.015 11.0665C36.5303 11.0665 34.5743 11.6959 32.6183 12.5875L31.6667 10.0176C33.9928 8.96864 36.2131 8.23438 39.3322 8.23438C42.2927 8.23438 44.6187 9.02108 46.1518 10.5421C47.6321 12.0106 48.3722 14.0036 48.3722 16.6784V29.4756H45.2531V26.3812C43.7729 28.2169 41.3939 29.9477 37.6934 29.9477C33.7285 29.8952 29.8164 27.6924 29.8164 23.3917ZM45.306 21.7658V19.8253C43.7729 19.4057 41.7111 18.9337 39.1736 18.9337C35.2616 18.9337 33.0412 20.612 33.0412 23.1295V23.2344C33.0412 25.8567 35.473 27.3777 38.3277 27.3777C42.1869 27.3777 45.306 25.07 45.306 21.7658Z" fill="white"/>
<path d="M53.3945 8.54919H56.5136V12.0632C57.8881 10.0177 59.7913 8.07715 63.3332 8.07715C66.7695 8.07715 68.937 9.91283 70.1 12.2205C71.6331 9.91283 73.8535 8.07715 77.5012 8.07715C82.3648 8.07715 85.3253 11.3289 85.3253 16.4688V29.4233H82.2062V17.203C82.2062 13.1646 80.1444 10.9093 76.7611 10.9093C73.5891 10.9093 70.9459 13.2695 70.9459 17.3604V29.4233H67.8268V17.1506C67.8268 13.217 65.765 10.9093 62.3817 10.9093C59.0511 10.9093 56.5136 13.6366 56.5136 17.5177V29.4233H53.3945V8.54919Z" fill="white"/>
<path d="M90.5586 8.54919H93.6777V12.0632C95.0522 10.0177 96.9553 8.07715 100.497 8.07715C103.934 8.07715 106.101 9.91283 107.264 12.2205C108.797 9.91283 111.018 8.07715 114.665 8.07715C119.529 8.07715 122.489 11.3289 122.489 16.4688V29.4233H119.37V17.203C119.37 13.1646 117.309 10.9093 113.925 10.9093C110.753 10.9093 108.11 13.2695 108.11 17.3604V29.4233H104.991V17.1506C104.991 13.217 102.929 10.9093 99.5457 10.9093C96.2152 10.9093 93.6777 13.6366 93.6777 17.5177V29.4233H90.5586V8.54919Z" fill="white"/>
<path d="M126.084 23.3917V23.2868C126.084 18.7763 129.732 16.4686 135.071 16.4686C137.767 16.4686 139.618 16.8358 141.521 17.3602V16.7309C141.521 13.0071 139.247 11.0665 135.283 11.0665C132.798 11.0665 130.842 11.6959 128.886 12.5875L127.934 10.0176C130.26 8.96864 132.481 8.23438 135.6 8.23438C138.56 8.23438 140.886 9.02108 142.419 10.5421C143.9 12.0106 144.64 14.0036 144.64 16.6784V29.4756H141.521V26.3812C140.04 28.2169 137.662 29.9477 133.961 29.9477C129.996 29.8952 126.084 27.6924 126.084 23.3917ZM141.574 21.7658V19.8253C140.04 19.4057 137.979 18.9337 135.441 18.9337C131.529 18.9337 129.309 20.612 129.309 23.1295V23.2344C129.309 25.8567 131.741 27.3777 134.595 27.3777C138.454 27.3777 141.574 25.07 141.574 21.7658Z" fill="white"/>
<path d="M150.19 1.1543H153.468L163.883 16.5739L174.297 1.1543H177.575V29.4235H174.35V6.50394L163.883 21.7137H163.724L153.309 6.60884V29.476H150.19V1.1543Z" fill="white"/>
<path d="M192.748 27.2198C195.655 27.2198 197.664 26.066 199.409 24.2828L201.365 26.0135C199.25 28.3737 196.66 29.9471 192.695 29.9471C186.933 29.9471 182.175 25.5415 182.175 19.038C182.175 12.9541 186.457 8.12891 192.272 8.12891C198.51 8.12891 202.105 13.059 202.105 19.1953C202.105 19.4576 202.105 19.8247 202.052 20.2967H185.347C185.77 24.7023 188.994 27.2198 192.748 27.2198ZM198.88 17.7793C198.51 14.003 196.29 10.7513 192.166 10.7513C188.519 10.7513 185.77 13.7408 185.294 17.7793H198.88Z" fill="white"/>
<path d="M204.748 19.0909V18.986C204.748 12.1678 209.77 8.12937 214.792 8.12937C218.704 8.12937 221.242 10.2273 222.881 12.5874V0H226V29.528H222.881V25.3322C221.189 27.8497 218.704 30 214.792 30C209.717 29.8951 204.748 25.9615 204.748 19.0909ZM222.987 19.0385V18.9336C222.987 14.1084 219.286 10.9091 215.374 10.9091C211.303 10.9091 207.973 13.8986 207.973 18.9336V19.0385C207.973 23.9685 211.409 27.1154 215.374 27.1154C219.286 27.1154 222.987 23.8636 222.987 19.0385Z" fill="white"/>
<path d="M0 54.6061H3.15099V58.8044C4.86002 56.2854 7.37017 54.1338 11.3223 54.1338C16.4494 54.1338 21.4696 58.1221 21.4696 64.9968V65.1017C21.4696 71.9239 16.4494 75.9647 11.3223 75.9647C7.37017 75.9647 4.80661 73.8656 3.15099 71.504V81.9997H0V54.6061ZM18.2652 65.1542V65.0492C18.2652 60.1163 14.7937 56.9676 10.7882 56.9676C6.8361 56.9676 3.0976 60.2213 3.0976 64.9968V65.1017C3.0976 69.9297 6.8361 73.1834 10.7882 73.1834C14.8472 73.1834 18.2652 70.1921 18.2652 65.1542Z" fill="white"/>
<path d="M26.0088 46H29.1598V75.5452H26.0088V46Z" fill="white"/>
<path d="M34.6074 67.621V54.6589H37.7585V66.8338C37.7585 70.7172 39.8947 73.1312 43.6332 73.1312C47.2649 73.1312 49.9886 70.5073 49.9886 66.5715V54.6064H53.1397V75.4927H49.9886V71.8717C48.5467 74.1283 46.357 75.965 42.7253 75.965C37.5982 75.965 34.6074 72.554 34.6074 67.621Z" fill="white"/>
<path d="M56.7715 72.869L58.3737 70.6649C60.6702 72.3442 63.2337 73.3413 65.7439 73.3413C68.3074 73.3413 70.1233 72.0293 70.1233 70.0352V69.9302C70.1233 67.8311 67.6131 67.0439 64.8359 66.2567C61.5247 65.3121 57.7862 64.2101 57.7862 60.3267V60.2218C57.7862 56.6008 60.8304 54.2393 65.0496 54.2393C67.6665 54.2393 70.5505 55.1314 72.6868 56.5483L71.2448 58.9098C69.2687 57.6503 67.0256 56.8632 64.9428 56.8632C62.4326 56.8632 60.8304 58.1751 60.8304 59.9069V60.0119C60.8304 62.006 63.4474 62.7407 66.3314 63.6328C69.6426 64.6299 73.1675 65.8369 73.1675 69.6153V69.7203C73.1675 73.7086 69.8562 75.9652 65.5837 75.9652C62.5394 75.9127 59.1748 74.7582 56.7715 72.869Z" fill="white"/>
<path d="M79.2559 46H85.8249V51.4577H79.2559V46ZM79.4161 53.8717H85.6647V75.5452H79.4161V53.8717Z" fill="white"/>
<path d="M98.4292 61.1137L88.8159 47.207H96.2395L102.275 56.3907L108.363 47.207H115.573L105.96 61.0612L116 75.5452H108.577L102.114 65.8368L95.5986 75.5452H88.3887L98.4292 61.1137Z" fill="white"/>
</svg>
