<svg width="271" height="33" viewBox="0 0 271 33" fill="none" xmlns="http://www.w3.org/2000/svg">
<g clip-path="url(#clip0_1132_54290)">
<path d="M0 32.688H5.69265V0.0976963H0V32.688ZM27.5269 32.688H33.2196V0.0976963H27.5269V13.5063H8.23936V19.1751H27.5269V32.688ZM73.7198 32.6433H81.0678L63.6678 3.18167C63.0806 2.18074 62.2678 1.32904 61.2933 0.693633C60.6401 0.226399 59.8506 -0.0143953 59.0462 0.00830575C58.2833 0.100846 57.5605 0.399723 56.9564 0.872414C56.0449 1.46739 55.2774 2.25609 54.7093 3.18167L36.9573 32.6433H44.2903L59.0762 8.48551L64.7763 17.879H56.1025L52.6345 23.5478H68.162L73.7198 32.6433ZM84.1313 32.688H112.355V27.0191H89.824V0.0976963H84.1313V32.688ZM132.436 32.688H150.893V27.0191H132.436C128.911 27.0191 126.145 25.872 124.137 23.5776C122.338 21.494 121.424 18.7956 121.59 16.0539C121.637 13.4262 122.659 10.9084 124.459 8.9846C125.484 7.9174 126.725 7.07871 128.101 6.52397C129.476 5.96923 130.954 5.71106 132.436 5.76654H150.893V0.0976963H132.436C127.148 0.0976963 122.986 1.76135 119.95 5.08867C117.245 8.09515 115.808 12.0216 115.935 16.0539C115.846 20.2485 117.343 24.3236 120.13 27.4735C123.231 30.9498 127.333 32.688 132.436 32.688ZM175.88 21.8941L191.685 0.0976963H184.816L173.236 16.1954L160.877 0.0976963H153.552L170.233 21.8121V32.688H175.933L175.88 21.8941ZM225.316 23.5776C223.319 25.872 220.555 27.0191 217.025 27.0191H207.931C204.411 27.0191 201.64 25.872 199.64 23.5776C197.835 21.4967 196.918 18.7971 197.085 16.0539C197.142 13.4212 198.178 10.9028 199.992 8.9846C201.012 7.92219 202.247 7.08629 203.616 6.53171C204.984 5.97713 206.455 5.71638 207.931 5.76654H217.092C218.485 5.71773 219.874 5.94708 221.177 6.44106C222.48 6.93504 223.669 7.68362 224.676 8.64259C225.683 9.60156 226.487 10.7515 227.039 12.0244C227.592 13.2973 227.882 14.6675 227.893 16.0539C228.085 18.7925 227.183 21.4959 225.384 23.5776H225.316ZM229.399 27.4735C232.183 24.3229 233.678 20.2476 233.586 16.0539C233.715 12.0147 232.262 8.08331 229.534 5.08867C226.537 1.75639 222.39 0.0927301 217.092 0.0976963H207.931C202.643 0.0976963 198.481 1.76135 195.445 5.08867C192.742 8.09589 191.307 12.0225 191.438 16.0539C191.346 20.2476 192.84 24.3229 195.625 27.4735C198.726 30.9498 202.828 32.688 207.931 32.688H217.092C222.191 32.688 226.293 30.9498 229.399 27.4735ZM271 29.8722V0.0976963H265.307V22.7135L244.297 1.77377C243.898 1.2929 243.406 0.896711 242.85 0.608773C242.294 0.320835 241.686 0.14703 241.061 0.0976963C240.728 0.0831845 240.396 0.142496 240.089 0.271334C239.782 0.400172 239.508 0.595311 239.286 0.842617C238.802 1.42784 238.556 2.17193 238.597 2.9284V32.688H244.297V10.0573L265.27 31.0566C266.583 32.3528 267.769 33.0009 268.828 33.0009C270.261 33.0009 270.975 31.958 270.97 29.8722" fill="white"/>
</g>
<defs>
<clipPath id="clip0_1132_54290">
<rect width="271" height="33" fill="white"/>
</clipPath>
</defs>
</svg>
