<svg width="225" height="47" viewBox="0 0 225 47" fill="none" xmlns="http://www.w3.org/2000/svg">
<g clip-path="url(#clip0_1132_54353)">
<path d="M-0.142578 46.928L8.99249 46.9639C12.6181 43.3402 16.4925 40.0395 20.5802 36.954V32.3975C6.43325 40.47 -0.142578 46.928 -0.142578 46.928Z" fill="white"/>
<path d="M54.2412 17.1493V18.5485C127.002 -9.86678 224.857 9.04086 224.857 9.04086L224.999 4.23323C146.125 -5.81257 90.4616 4.2691 54.2412 17.1493Z" fill="white"/>
<path d="M126.718 25.6889C126.718 24.5767 126.398 23.5362 125.723 22.5316C124.017 20.0919 121.031 18.8721 116.766 18.8721H98.8154V41.798H116.766C121.244 41.798 124.301 40.5064 125.901 37.9232C126.434 37.0622 126.718 36.1293 126.718 35.1247C126.718 33.2591 125.83 31.7163 124.088 30.4606C125.83 29.2049 126.718 27.5904 126.718 25.6889ZM117.405 32.5057C118.578 32.5057 119.645 32.685 120.605 33.0438C121.884 33.5461 122.524 34.2637 122.524 35.1965C122.524 36.1293 121.884 36.811 120.605 37.3133C119.68 37.6362 118.614 37.8156 117.405 37.8156H103.152V22.8904H117.405C118.614 22.8904 119.716 23.0698 120.676 23.4644C121.884 23.9667 122.524 24.7202 122.524 25.6889C122.524 26.6576 121.92 27.411 120.676 27.9492C119.716 28.3438 118.65 28.5591 117.405 28.5591H105.711V32.5415H117.405V32.5057Z" fill="white"/>
<path d="M148.934 28.2002H134.645V32.1826H148.934V28.2002Z" fill="white"/>
<path d="M208.685 20.774C208.507 20.164 208.187 19.6618 207.725 19.2312C207.192 18.7648 206.588 18.5137 205.984 18.5137C205.024 18.5137 204.135 19.2671 203.282 20.774L194.894 35.7709L186.541 20.774C185.687 19.2671 184.799 18.5137 183.839 18.5137C183.164 18.5137 182.595 18.7289 182.097 19.1953C181.6 19.6259 181.28 20.164 181.138 20.774L176.979 36.4526L167.062 21.1328C166.706 20.5587 166.209 20.0564 165.64 19.6259C164.965 19.1236 164.289 18.8725 163.65 18.8725C163.045 18.8725 162.405 19.1236 161.659 19.6618C161.055 20.1282 160.557 20.5946 160.237 21.1328L149.645 37.3137H132.832V22.9266H150.071V18.9442H128.46V41.8702H146.659H152.275L163.543 24.8999L167.915 31.5015H161.304L158.673 35.448H170.545L174.775 41.8702H180.462L184.088 25.7969L192.477 40.5786C193.045 41.619 193.898 42.1213 195.036 42.1213C196.031 42.1213 196.813 41.619 197.382 40.6144L205.77 25.7969L209.396 41.8702H214.301L208.685 20.774Z" fill="white"/>
<path d="M22.8909 29.3842C22.8554 35.6987 26.2321 41.9773 35.5094 42.3002V40.2552C27.5473 40.2552 24.9881 34.1201 24.917 29.9582V20.8811H34.834V18.8361H24.917V10.4766H22.8909V29.3842Z" fill="white"/>
<path d="M40.0593 27.9492C40.0948 25.9759 40.2015 20.953 46.4218 20.953V18.9797H46.1019C43.756 18.9797 41.6943 19.9484 39.9882 21.814V18.8721H38.0332V42.3003H40.0593V27.9492Z" fill="white"/>
<path d="M49.0873 30.2092C49.3717 37.5283 53.4593 42.3718 60.3906 42.3718C67.784 42.3718 70.4143 37.6359 70.4143 37.6359V42.3359H72.3693V18.8359H70.3788V28.7741C70.4499 34.0482 68.3527 40.0756 60.7816 40.1474C53.3883 40.2191 51.22 34.8016 51.1489 28.8817V18.9077H49.0518V30.2092H49.0873Z" fill="white"/>
<path d="M94.9047 32.47C94.0872 36.9906 90.1772 40.399 85.4498 40.399C80.2602 40.399 76.0659 36.2731 75.8526 31.1067H97.0019C97.0019 30.9632 97.0019 30.8555 97.0019 30.712C97.0019 24.1823 91.7768 18.9082 85.3076 18.9082C78.8384 18.9082 73.6133 24.1823 73.6133 30.712C73.6133 37.2418 78.8384 42.5158 85.3076 42.5158C91.1725 42.5158 96.0422 38.1746 96.8597 32.47H94.9047ZM85.3431 21.0609C90.1062 21.0609 94.0517 24.541 94.8336 29.1334H75.8882C76.6346 24.5769 80.5801 21.0609 85.3431 21.0609Z" fill="white"/>
</g>
<defs>
<clipPath id="clip0_1132_54353">
<rect width="225" height="47" fill="white"/>
</clipPath>
</defs>
</svg>
