<svg width="156" height="40" viewBox="0 0 156 40" fill="none" xmlns="http://www.w3.org/2000/svg">
<path d="M16.6902 29.2083C16.6902 27.7208 16.832 25.2416 17.1157 23.7541L17.0447 23.6833C15.5555 27.2958 12.2935 29.7041 7.82592 29.7041C1.86915 29.7041 0.0253906 25.9499 0.0253906 21.3458V3.1416H4.70571V19.9999C4.70571 23.6833 5.76942 25.8083 9.17329 25.8083C13.499 25.8083 16.6193 21.4874 16.6193 15.6791V3.1416H21.2996V29.2083H16.6902Z" fill="#006192"/>
<path d="M44.2052 29.208V12.3497C44.2052 8.66634 43.2124 6.54134 39.7376 6.54134C35.4119 6.54134 32.3626 10.8622 32.3626 16.6705V29.208H27.6113V3.14134H32.1498C32.1498 4.62884 32.0789 7.10801 31.7243 8.59551L31.8662 8.66634C33.3554 5.05384 36.6174 2.64551 41.085 2.64551C47.0417 2.64551 48.9564 6.39968 48.9564 11.0038V29.208H44.2052Z" fill="#006192"/>
<path d="M55.1973 29.2083V3.1416H59.9485V29.2083H55.1973Z" fill="#006192"/>
<path d="M77.8183 29.9874C69.5923 29.9874 65.6211 24.604 65.6211 16.3874C65.6211 7.39154 71.436 2.2207 78.5274 2.2207C85.9025 2.2207 90.7246 6.96653 90.7246 15.8207C90.7246 24.8165 84.9097 29.9874 77.8183 29.9874ZM78.1729 5.47904C73.6344 5.47904 69.5923 9.09153 69.5923 15.8915C69.5923 22.3374 72.3579 26.729 78.1019 26.729C82.5695 26.729 86.7534 23.1874 86.7534 16.2457C86.7534 9.37487 83.6332 5.47904 78.1729 5.47904ZM76.8964 35.7249V32.4665C83.4205 31.6874 86.0443 34.5915 92.3556 33.7415V36.9999C85.3352 37.9915 82.5695 34.9457 76.8964 35.7249Z" fill="#006192" stroke="#006192"/>
<path d="M112.921 29.2083C112.921 27.7208 113.063 25.2416 113.347 23.7541L113.205 23.6833C111.716 27.2958 108.454 29.7041 103.986 29.7041C98.0293 29.7041 96.1855 25.9499 96.1855 21.3458V3.1416H100.866V19.9999C100.866 23.6833 101.93 25.8083 105.333 25.8083C109.659 25.8083 112.779 21.4874 112.779 15.6791V3.1416H117.46V29.2083H112.921Z" fill="#006192"/>
<path d="M144.549 15.8913H127.458C127.246 22.9038 130.153 25.8788 135.685 25.8788C138.379 25.8788 141.216 25.2413 143.272 24.2497L143.698 28.0747C141.145 29.1372 138.096 29.7038 134.904 29.7038C126.891 29.7038 122.565 25.5247 122.565 16.3163C122.565 8.52468 126.82 2.64551 134.195 2.64551C141.57 2.64551 144.62 7.60384 144.62 13.6247C144.691 14.2622 144.62 14.9705 144.549 15.8913ZM134.053 6.11634C130.65 6.11634 128.239 8.66634 127.671 12.4913H139.868C139.939 8.66634 137.67 6.11634 134.053 6.11634Z" fill="#006192"/>
<path d="M147.81 3.92025V8.02858H146.888V3.92025H145.541V3.21191H149.087V3.92025H147.81ZM154.689 8.02858L154.263 5.19525L154.122 4.20358L153.909 5.05358L152.987 8.02858H151.994L151.072 5.05358L150.86 4.27441L150.789 4.91191L150.292 8.09941H149.441L150.15 3.35358H151.356L152.207 6.32858L152.42 7.17858L152.561 6.39942L153.554 3.35358H154.76L155.469 8.09941H154.689V8.02858Z" fill="#006192"/>
</svg>
