<svg width="179" height="90" viewBox="0 0 179 90" fill="none" xmlns="http://www.w3.org/2000/svg">
<g clip-path="url(#clip0_1187_22913)">
<path fill-rule="evenodd" clip-rule="evenodd" d="M36.778 71.6433L43.2785 78.1415H30.2775L36.778 71.6433ZM63.1024 45.3386L69.6029 38.8404V51.8368L63.1024 45.3386ZM17.3701 25.6673H40.0334L17.3701 48.3226V25.6673ZM3.95312 12.5254H69.5925V31.2506L55.5098 45.3386L69.6029 59.4267V78.1518H50.9231L36.778 64.0118L22.6329 78.1518H3.95312V12.5254ZM56.7059 25.0227L60.8246 32.7685L58.4116 35.1495L50.6734 30.9802L57.0283 37.3017L53.8561 40.4832L42.28 28.8904L46.5443 24.6172L55.6658 29.9405L50.3406 20.8119L54.6049 16.5491L66.1914 28.1314L63.0296 31.3129L56.7059 25.0227ZM40.2311 41.4917L41.6976 40.0257C42.1448 39.5786 42.384 39.142 42.4256 38.7157C42.4672 38.227 42.2488 37.7383 41.7704 37.2497C41.3023 36.7818 40.7407 36.657 40.0958 36.8962C39.6486 37.0625 39.1702 37.4056 38.6605 37.9151L37.6621 38.9236L40.2311 41.4917ZM46.5339 47.8027L42.9977 51.3377L31.4112 39.7554L36.6116 34.5672C38.1197 33.0596 39.6278 32.2591 41.1359 32.1655C42.5712 32.0823 43.9025 32.6542 45.1298 33.8706C46.4299 35.1703 47.0644 36.5115 47.0436 37.9151C47.0228 39.3915 46.2531 40.8887 44.7242 42.417L42.9457 44.1949L46.5339 47.8027ZM33.4913 52.9701L28.1973 49.9549L31.2552 55.1951L33.4913 52.9701ZM34.1154 60.2169L30.6519 63.6791L22.9346 48.229L26.5332 44.6316L41.9784 52.3463L38.4629 55.8709L36.518 54.7688L32.9921 58.283L34.1154 60.2169ZM13.9691 68.6489C14.6763 69.3559 15.4148 69.6678 16.174 69.5639C16.6525 69.5015 17.1413 69.2727 17.6614 68.888L13.8963 65.1243C13.4906 65.6961 13.2618 66.1848 13.189 66.6007C13.0642 67.3181 13.3242 68.0043 13.9691 68.6489ZM20.8024 61.818C20.1679 61.1838 19.5231 60.9135 18.847 60.9966C18.4518 61.059 17.9318 61.2878 17.3077 61.7036L21.0728 65.457C21.4576 64.8644 21.6657 64.3549 21.7073 63.9286C21.7697 63.2008 21.4784 62.4938 20.8024 61.818ZM20.6256 71.8616C18.7534 73.2652 16.9853 73.9202 15.3108 73.8267C13.7299 73.7539 12.2633 73.0261 10.8904 71.6537C9.53834 70.302 8.87269 68.7841 8.8935 67.0789C8.9143 65.3842 9.56955 63.7207 10.8384 62.0779L9.95438 61.1942L13.4386 57.7008L14.3539 58.5533C15.758 57.1497 17.4013 56.4947 19.3151 56.5571C21.1352 56.6195 22.6953 57.3057 23.9954 58.6053C25.3995 60.0089 26.1068 61.5893 26.1276 63.3464C26.138 65.1035 25.4619 66.8294 24.0994 68.5033L24.9523 69.3559L21.5512 72.7558L20.6256 71.8616Z" fill="#009640"/>
<path fill-rule="evenodd" clip-rule="evenodd" d="M0 8.57422H73.544V82.0921H0V8.57422ZM1.79934 10.3625H71.755V80.3038H1.79934V10.3625Z" fill="#009640"/>
<path d="M83.5292 29.971H80.9395V11.1211H87.3775C88.4592 11.1211 93.982 11.1523 93.982 16.9331C93.982 22.7243 89.3225 23.0986 87.1903 23.0986H83.5292V29.971ZM86.9823 20.8632C88.5216 20.8632 91.2154 20.5617 91.2154 17.089C91.2154 13.6996 88.3864 13.3461 86.6599 13.3461H83.5396V20.8632H86.9823Z" fill="#009640"/>
<path d="M95.8335 22.1318H103.166V24.1801H95.8335V22.1318Z" fill="#009640"/>
<path d="M116.313 30.6468H113.724V28.3595C107.795 28.3075 105.018 25.9889 105.018 20.5513C105.018 16.7251 106.557 12.6911 113.724 13.0965V11.1211H116.313V13.0861C116.605 13.055 116.875 13.055 117.177 13.055C119.954 13.055 125.019 13.5644 125.019 20.5409C125.019 25.9577 122.221 28.3283 116.313 28.3491V30.6468ZM107.795 20.5409C107.795 24.8245 109.407 26.0929 113.724 26.2801V15.1552C109.553 14.9992 107.795 16.7147 107.795 20.5409ZM116.313 26.2801C120.567 26.1137 122.242 24.8037 122.242 20.5409C122.242 15.7478 119.496 15.2383 117.125 15.1552C116.854 15.1552 116.584 15.1552 116.313 15.1552V26.2801Z" fill="#009640"/>
<path d="M129.563 29.971H126.703L134.545 11.1211H136.865L144.707 29.971H141.847L139.985 24.8557H131.415L129.563 29.971ZM135.7 14.3754L132.444 22.6203H138.966L135.7 14.3754Z" fill="#009640"/>
<path d="M150.064 29.971H147.474V11.1211H153.912C154.994 11.1211 160.517 11.1523 160.517 16.9331C160.517 22.7243 155.857 23.0986 153.725 23.0986H150.064V29.971ZM153.507 20.8632C155.046 20.8632 157.74 20.5617 157.74 17.089C157.74 13.6996 154.911 13.3461 153.184 13.3461H150.064V20.8632H153.507Z" fill="#009640"/>
<path d="M166.331 14.4586V29.971H163.741V11.1211H167.319L171.978 22.7866L176.586 11.1211H180.143V29.971H177.553V14.4586L172.81 26.4152H171.094L166.331 14.4586Z" fill="#009640"/>
<path d="M86.6391 38.9958V38.1328H88.0224V48.2076H86.6391V40.992L82.2188 47.0535V48.2076H80.8354V38.1328H82.2188V45.2028L86.6391 38.9958Z" fill="#009640"/>
<path d="M91.3616 48.2077H90.1655V41.4912H91.3616V44.0697H94.5026V41.4912H95.6987V48.2077H94.5026V45.099H91.3616V48.2077Z" fill="#009640"/>
<path d="M98.8797 48.2077H97.6836V41.4912H98.8797V44.0697H102.021V41.4912H103.217V48.2077H102.021V45.099H98.8797V48.2077Z" fill="#009640"/>
<path d="M108.149 41.3252C109.834 41.3252 111.633 42.5209 111.633 44.777C111.633 46.1287 110.947 48.364 108.149 48.364C105.372 48.364 104.675 46.1598 104.675 44.777C104.675 42.5209 106.475 41.3252 108.149 41.3252ZM108.149 47.3243C109.949 47.3243 110.261 45.744 110.261 44.7874C110.261 44.1428 110.011 42.3545 108.149 42.3545C106.391 42.3545 106.048 43.9765 106.048 44.7874C106.048 45.3281 106.121 47.3243 108.149 47.3243Z" fill="#009640"/>
<path d="M113.099 41.4805H115.647C116.126 41.4805 117.883 41.5117 117.883 43.1336C117.883 43.7574 117.499 44.454 116.76 44.6308C117.613 44.7036 118.331 45.2754 118.331 46.2527C118.331 47.9787 116.895 48.197 115.887 48.197H113.11V41.4805H113.099ZM115.304 44.1733C115.824 44.1733 116.511 44.1317 116.511 43.2376C116.511 42.489 115.751 42.5202 115.304 42.5202H114.295V44.1733H115.304ZM115.502 47.1677C116.282 47.1677 116.958 47.0949 116.958 46.128C116.958 45.4626 116.5 45.2026 115.502 45.2026H114.295V47.1573H115.502V47.1677Z" fill="#009640"/>
<path d="M119.745 42.3025C120.744 41.5123 121.7 41.3252 122.397 41.3252C124.904 41.3252 124.914 43.5086 124.914 43.9453V46.4198C124.914 46.9396 125.029 47.2411 125.601 47.2723V48.364C124.623 48.364 124.113 47.9066 123.874 47.3867C123.136 47.917 122.449 48.364 121.451 48.364C119.922 48.364 119.267 47.4283 119.267 46.4094C119.267 44.3092 121.284 44.0388 123.718 43.9453C123.791 42.5728 122.938 42.3649 122.262 42.3649C121.763 42.3649 121.149 42.6144 120.307 43.1655L119.745 42.3025ZM120.64 46.4094C120.64 46.8669 120.972 47.3139 121.752 47.3139C122.345 47.3139 123.208 46.95 123.729 46.1495V44.9434C121.17 44.881 120.64 45.8167 120.64 46.4094Z" fill="#009640"/>
<path d="M130.978 47.1677V41.4805H132.174V47.1677H133.11V50.1724H131.914V48.197H126.88V41.4805H128.076V47.1677H130.978Z" fill="#009640"/>
<path d="M138.705 42.5517V41.4912H139.901V48.2077H138.705V44.0489L135.564 47.22V48.2077H134.378V41.4912H135.575V45.7228L138.705 42.5517Z" fill="#009640"/>
<path d="M144.841 41.3252C146.526 41.3252 148.325 42.5209 148.325 44.777C148.325 46.1287 147.628 48.364 144.841 48.364C142.064 48.364 141.367 46.1598 141.367 44.777C141.367 42.5209 143.167 41.3252 144.841 41.3252ZM144.841 47.3243C146.64 47.3243 146.963 45.744 146.963 44.7874C146.963 44.1428 146.724 42.3545 144.841 42.3545C143.083 42.3545 142.74 43.9765 142.74 44.7874C142.74 45.3281 142.813 47.3243 144.841 47.3243Z" fill="#009640"/>
<path d="M150.99 48.2077H149.794V41.4912H150.99V44.0697H154.131V41.4912H155.327V48.2077H154.131V45.099H150.99V48.2077Z" fill="#009640"/>
<path d="M158.498 48.2077H157.302V41.4912H158.498V44.0697H161.639V41.4912H162.835V48.2077H161.639V45.099H158.498V48.2077Z" fill="#009640"/>
<path d="M166.018 41.4805V43.5079H167.1C169.169 43.5079 169.866 44.3813 169.866 45.7537C169.866 47.594 168.857 48.197 166.912 48.197H164.822V41.4805H166.018ZM167.006 47.1677C167.599 47.1677 168.493 47.0845 168.493 45.868C168.493 44.6308 167.547 44.5476 167.006 44.5476H166.018V47.1677H167.006ZM171.125 41.4805H172.321V48.197H171.125V41.4805Z" fill="#009640"/>
<path d="M179.934 47.0228C179.258 47.8754 178.239 48.364 177.136 48.364C175.108 48.364 173.777 46.8149 173.777 44.8914C173.777 42.8432 175.077 41.3252 176.928 41.3252C179.164 41.3252 179.986 43.3422 179.924 45.0785H175.139C175.108 45.9415 175.514 47.3243 177.126 47.3243C177.979 47.3243 178.447 47.0228 179.175 46.3054L179.934 47.0228ZM178.582 44.0492C178.52 43.4566 178.218 42.3649 176.897 42.3649C175.628 42.3649 175.285 43.3318 175.212 44.0492H178.582Z" fill="#009640"/>
<path d="M111.227 56.9098H109.209V55.8701H114.441V56.9098H112.423V62.597H111.227V56.9098Z" fill="#009640"/>
<path d="M121.378 61.4115C120.702 62.264 119.683 62.7527 118.591 62.7527C116.563 62.7527 115.231 61.1931 115.231 59.2801C115.231 57.2422 116.532 55.7139 118.383 55.7139C120.619 55.7139 121.441 57.7309 121.378 59.4672H116.594C116.563 60.3302 116.968 61.713 118.581 61.713C119.433 61.713 119.901 61.4115 120.619 60.6941L121.378 61.4115ZM120.026 58.4379C119.964 57.8453 119.662 56.7536 118.341 56.7536C117.072 56.7536 116.729 57.7205 116.656 58.4379H120.026Z" fill="#009640"/>
<path d="M123.53 62.5974H122.074L124.581 58.9584L122.397 55.8809H123.853L125.434 58.137L127.015 55.8809H128.471L126.287 58.9584L128.793 62.5974H127.337L125.434 59.8006L123.53 62.5974Z" fill="#009640"/>
<path d="M131.207 62.597H130.011V55.8805H131.207V58.4486H134.348V55.8701H135.544V62.5866H134.348V59.4883H131.207V62.597Z" fill="#009640"/>
<path d="M140.474 55.7139C142.159 55.7139 143.958 56.9095 143.958 59.1657C143.958 60.5173 143.272 62.7527 140.474 62.7527C137.697 62.7527 137 60.5485 137 59.1657C137.01 56.9095 138.81 55.7139 140.474 55.7139ZM140.474 61.713C142.273 61.713 142.596 60.1326 142.596 59.1761C142.596 58.5315 142.346 56.7432 140.474 56.7432C138.716 56.7432 138.373 58.3651 138.373 59.1761C138.373 59.7167 138.446 61.713 140.474 61.713Z" fill="#009640"/>
<path d="M147.214 60.9543C146.642 62.5346 145.758 62.753 145.165 62.753C145.019 62.753 144.895 62.753 144.749 62.7426V61.6717C145.904 61.5989 146.174 60.5384 146.32 59.769C146.548 58.563 146.652 56.9618 146.684 55.8701H150.958V62.5866H149.762V56.8994H147.828C147.807 58.1783 147.62 59.8314 147.214 60.9543Z" fill="#009640"/>
<path d="M155.898 55.7139C157.583 55.7139 159.382 56.9095 159.382 59.1657C159.382 60.5173 158.695 62.7527 155.898 62.7527C153.121 62.7527 152.424 60.5485 152.424 59.1657C152.424 56.9095 154.223 55.7139 155.898 55.7139ZM155.898 61.713C157.697 61.713 158.019 60.1326 158.019 59.1761C158.019 58.5315 157.77 56.7432 155.898 56.7432C154.14 56.7432 153.797 58.3651 153.797 59.1761C153.797 59.7167 153.87 61.713 155.898 61.713Z" fill="#009640"/>
<path d="M162.045 62.5974H160.849V55.8809H165.155V56.9206H162.045V62.5974Z" fill="#009640"/>
<path d="M170.71 56.9414V55.8809H171.906V62.5974H170.71V58.4385L167.569 61.6097V62.5974H166.373V55.8809H167.569V60.1125L170.71 56.9414Z" fill="#009640"/>
<path d="M178.218 56.9414V55.8809H179.414V62.5974H178.218V58.4385L175.077 61.6097V62.5974H173.881V55.8809H175.077V60.1125L178.218 56.9414Z" fill="#009640"/>
<path d="M122.626 74.8972C123.406 75.7082 123.947 76.1033 124.977 76.1033C125.986 76.1033 126.433 75.573 126.433 75.0947C126.433 74.1174 125.393 74.0135 124.509 74.0135H124.238V73.0361H124.55C126.017 73.0361 126.266 72.4435 126.266 72.0276C126.266 71.5805 125.892 71.1335 125.018 71.1335C124.269 71.1335 123.697 71.4038 123.136 71.8509L122.574 70.9567C123.281 70.3537 124.249 70.0938 125.112 70.0938C126.797 70.0938 127.608 70.8527 127.608 71.8093C127.608 72.901 126.87 73.3376 126.454 73.4624C127.629 73.7327 127.816 74.5437 127.816 75.0428C127.816 76.1033 126.922 77.1326 125.143 77.1326C123.729 77.1326 122.782 76.6231 121.929 75.5938L122.626 74.8972Z" fill="#009640"/>
<path d="M129.823 78.9621H128.627V75.9678H129.49C129.854 75.5207 130.468 74.4706 130.468 71.8609V70.2598H134.93V75.9574H135.908V78.9517H134.711V76.9971H129.813V78.9621H129.823ZM133.744 71.2995H131.674C131.685 73.6596 131.498 74.8657 130.894 75.9574H133.744V71.2995Z" fill="#009640"/>
<path d="M140.172 70.1035C141.857 70.1035 143.656 71.2992 143.656 73.5553C143.656 74.907 142.959 77.1423 140.172 77.1423C137.395 77.1423 136.698 74.9382 136.698 73.5553C136.709 71.2992 138.508 70.1035 140.172 70.1035ZM140.172 76.1026C141.971 76.1026 142.294 74.5223 142.294 73.5657C142.294 72.9211 142.044 71.1328 140.172 71.1328C138.414 71.1328 138.071 72.7548 138.071 73.5657C138.071 74.1064 138.144 76.1026 140.172 76.1026Z" fill="#009640"/>
<path d="M146.319 79.7524H145.123V70.2702H146.319V71.2475C146.516 70.9356 147.099 70.1143 148.378 70.1143C150.625 70.1143 151.519 71.9233 151.519 73.5869C151.519 75.0737 150.76 77.1531 148.472 77.1531C147.525 77.1531 146.828 76.7684 146.329 76.2174V79.7524H146.319ZM148.336 75.9886C149.647 75.9886 150.146 74.7514 150.146 73.5661C150.146 72.1313 149.387 71.2371 148.284 71.2371C147.13 71.2371 146.308 72.1729 146.308 73.6077C146.319 74.481 146.62 75.9886 148.336 75.9886Z" fill="#009640"/>
<path d="M155.939 70.1035C157.624 70.1035 159.423 71.2992 159.423 73.5553C159.423 74.907 158.737 77.1423 155.939 77.1423C153.162 77.1423 152.465 74.9382 152.465 73.5553C152.465 71.2992 154.264 70.1035 155.939 70.1035ZM155.939 76.1026C157.738 76.1026 158.06 74.5223 158.06 73.5657C158.06 72.9211 157.811 71.1328 155.939 71.1328C154.181 71.1328 153.838 72.7548 153.838 73.5657C153.838 74.1064 153.911 76.1026 155.939 76.1026Z" fill="#009640"/>
<path d="M160.891 70.2598H163.439C163.918 70.2598 165.675 70.291 165.675 71.9129C165.675 72.5263 165.291 73.2333 164.552 73.4101C165.405 73.4829 166.123 74.0547 166.123 75.032C166.123 76.758 164.687 76.9763 163.679 76.9763H160.902V70.2598H160.891ZM163.096 72.9526C163.616 72.9526 164.303 72.911 164.303 72.0169C164.303 71.2683 163.543 71.2995 163.096 71.2995H162.087V72.9526H163.096ZM163.294 75.947C164.074 75.947 164.75 75.8742 164.75 74.9073C164.75 74.2419 164.292 73.9819 163.294 73.9819H162.087V75.9366H163.294V75.947Z" fill="#009640"/>
<path d="M168.762 70.2598V72.2872H170.177C172.486 72.2872 172.881 73.4517 172.881 74.533C172.881 76.0198 172.32 76.9763 169.99 76.9763H167.566V70.2598H168.762ZM170.083 75.947C171.29 75.947 171.508 75.3024 171.508 74.6473C171.508 74.0755 171.383 73.3269 170.083 73.3269H168.762V75.947H170.083Z" fill="#009640"/>
<path d="M177.562 74.3562C176.688 74.3562 176.688 74.6681 176.168 75.4895C175.492 76.55 175.004 77.1426 174.234 77.1426C174.078 77.1426 173.932 77.1115 173.787 77.0595V76.051C173.849 76.051 173.901 76.051 173.963 76.051C174.494 76.0094 174.598 75.5935 175.014 74.9385C175.243 74.5954 175.42 74.3146 175.992 74.1483V74.0755C175.014 74.1171 174.265 73.3373 174.265 72.308C174.265 71.1227 175.118 70.2598 176.48 70.2598H179.434V76.9763H178.238V74.3562H177.562ZM176.74 71.2995C176.439 71.2995 175.628 71.2995 175.628 72.2768C175.628 73.2957 176.418 73.3165 176.761 73.3165H178.228V71.2995H176.74Z" fill="#009640"/>
</g>
<defs>
<clipPath id="clip0_1187_22913">
<rect width="179" height="90" fill="white"/>
</clipPath>
</defs>
</svg>
