<svg width="246" height="90" viewBox="0 0 246 90" fill="none" xmlns="http://www.w3.org/2000/svg">
<g clip-path="url(#clip0_1187_22961)">
<path d="M28.4403 54.7107H18.6486L0.170898 12.0236H9.77121L23.6771 44.6618L37.5164 12.0236H46.919L28.4403 54.7107ZM83.9349 48.6042C80.2134 53.0682 74.8593 55.7617 68.7859 55.7617C57.2313 55.7617 47.8287 46.1076 47.8287 33.3648C47.8287 20.6904 57.2313 11.0363 68.7859 11.0363C74.8593 11.0363 80.2134 13.7301 83.9349 18.1971V12.0236H92.682V54.7107H83.9349V48.6042ZM84.1306 33.3648C84.1306 25.6172 78.2551 19.1161 70.4186 19.1161C62.518 19.1161 56.7068 25.6172 56.7068 33.3648C56.7068 41.1808 62.518 47.6819 70.4186 47.6819C78.2551 47.6819 84.1306 41.1808 84.1306 33.3648ZM126.629 20.3631H121.079C114.092 20.3631 110.241 24.8271 110.241 32.2542V54.7107H101.493V32.2542C101.493 18.9872 109.001 12.0236 121.079 12.0236H126.629V20.3631ZM142.229 54.7107H133.481V12.0236H142.229V54.7107ZM186.168 48.6042C182.446 53.0682 177.092 55.7617 171.019 55.7617C159.463 55.7617 150.061 46.1076 150.061 33.3648C150.061 20.6904 159.463 11.0363 171.019 11.0363C177.092 11.0363 182.446 13.7301 186.168 18.1971V12.0236H194.915V54.7107H186.168V48.6042ZM186.365 33.3648C186.365 25.6172 180.488 19.1161 172.653 19.1161C164.754 19.1161 158.947 25.6172 158.947 33.3648C158.947 41.1808 164.754 47.6819 172.653 47.6819C180.488 47.6819 186.365 41.1808 186.365 33.3648ZM237.544 54.7107V32.6455C237.544 25.0907 232.321 19.2481 225.008 19.2481C217.763 19.2481 212.472 25.0907 212.472 32.6455V54.7107H203.726V32.6455C203.726 19.9063 213.258 11.0363 225.008 11.0363C236.829 11.0363 246.291 19.9063 246.291 32.6455V54.7107H237.544Z" fill="#1A1A18"/>
<path d="M10.1211 75.1573C10.1887 75.3642 10.2328 75.5299 10.2505 75.651C10.268 75.7724 10.2445 75.8641 10.1829 75.9263C10.118 75.9852 10.0065 76.0237 9.84473 76.0386C9.68602 76.0533 9.46258 76.0593 9.18335 76.0593C8.88943 76.0593 8.6602 76.0562 8.49843 76.0473C8.33379 76.0386 8.2105 76.0208 8.12212 75.9941C8.03696 75.9675 7.9781 75.9321 7.94299 75.8848C7.90758 75.8404 7.87825 75.7784 7.85768 75.7044L7.12563 73.4512H2.922L2.21958 75.6424C2.19594 75.7251 2.16661 75.793 2.12848 75.8463C2.09322 75.9026 2.03145 75.9439 1.94916 75.9765C1.86691 76.009 1.7491 76.0297 1.59633 76.0415C1.44346 76.0533 1.24366 76.0593 0.99678 76.0593C0.732138 76.0593 0.526453 76.0504 0.376449 76.0326C0.226599 76.0148 0.123731 75.9734 0.067896 75.9084C0.00898993 75.8404 -0.0114814 75.7459 0.00607276 75.6246C0.0236269 75.5032 0.0678961 75.3437 0.135503 75.1397L3.56889 65.1891C3.60124 65.0916 3.64228 65.0118 3.68932 64.9526C3.73354 64.8904 3.80698 64.8461 3.90677 64.8136C4.0098 64.7811 4.14787 64.7603 4.32736 64.7514C4.50361 64.7425 4.73878 64.7396 5.03285 64.7396C5.37067 64.7396 5.6411 64.7425 5.841 64.7514C6.04397 64.7603 6.19976 64.7811 6.31148 64.8136C6.42321 64.8461 6.50238 64.8934 6.55243 64.9556C6.59946 65.0207 6.64368 65.1063 6.67592 65.2158L10.1211 75.1573ZM5.00629 66.9249H4.99743L3.44545 71.6947H6.57305L5.00629 66.9249ZM22.2821 72.6408C22.2821 73.2323 22.1732 73.7468 21.9556 74.1933C21.7353 74.6368 21.4413 75.0066 21.068 75.3051C20.6916 75.6009 20.2567 75.8256 19.7568 75.9765C19.2572 76.1272 18.7221 76.2012 18.1518 76.2012C17.7668 76.2012 17.4113 76.1686 17.079 76.1036C16.7497 76.0386 16.4587 75.9616 16.2058 75.8699C15.9531 75.7813 15.7415 75.6866 15.5708 75.5861C15.4004 75.4857 15.2799 75.3968 15.2035 75.3229C15.13 75.246 15.0772 75.1366 15.0448 74.9947C15.0125 74.8527 14.9977 74.6517 14.9977 74.3854C14.9977 74.2051 15.0036 74.0572 15.0154 73.936C15.0271 73.8149 15.0448 73.7172 15.0712 73.6403C15.0978 73.5665 15.1329 73.5132 15.1741 73.4807C15.2182 73.4482 15.2681 73.4334 15.327 73.4334C15.4062 73.4334 15.5211 73.4807 15.668 73.5783C15.815 73.6729 16.003 73.7792 16.2324 73.8947C16.4616 74.01 16.738 74.1165 17.0584 74.2111C17.3759 74.3087 17.7462 74.356 18.1665 74.356C18.4429 74.356 18.6899 74.3235 18.9074 74.2583C19.1279 74.1903 19.313 74.0987 19.4658 73.9774C19.6186 73.8563 19.7333 73.7084 19.8157 73.531C19.895 73.3536 19.9362 73.1555 19.9362 72.9366C19.9362 72.6822 19.8686 72.4633 19.7304 72.2831C19.5923 72.0998 19.413 71.94 19.1896 71.7982C18.9692 71.6562 18.7162 71.5231 18.434 71.3989C18.1547 71.2749 17.8637 71.1446 17.5639 71.0056C17.2641 70.8667 16.9731 70.7099 16.6937 70.5326C16.4116 70.3581 16.1588 70.1481 15.9385 69.9027C15.7149 69.6573 15.5356 69.3675 15.3975 69.0304C15.2592 68.6962 15.1918 68.294 15.1918 67.8269C15.1918 67.2916 15.2916 66.8184 15.4886 66.4104C15.6855 66.0053 15.9531 65.6682 16.2881 65.3991C16.6262 65.13 17.0201 64.9289 17.4758 64.7958C17.9315 64.6629 18.4165 64.5976 18.928 64.5976C19.1896 64.5976 19.454 64.6183 19.7187 64.6598C19.9832 64.6983 20.2302 64.7544 20.4593 64.8225C20.6887 64.8934 20.8915 64.9703 21.0708 65.056C21.2472 65.1449 21.3647 65.2158 21.4236 65.2749C21.4794 65.3311 21.5177 65.3813 21.5383 65.4198C21.5589 65.4613 21.5766 65.5144 21.5912 65.5826C21.6058 65.6475 21.6146 65.7304 21.6205 65.8338C21.6263 65.9342 21.6294 66.0584 21.6294 66.2093C21.6294 66.375 21.6263 66.5168 21.6176 66.6321C21.6088 66.7475 21.5941 66.8421 21.5735 66.919C21.5529 66.993 21.5236 67.0492 21.4882 67.0816C21.45 67.1172 21.4002 67.1349 21.3353 67.1349C21.2736 67.1349 21.1737 67.0934 21.0356 67.0137C20.8973 66.9338 20.727 66.8452 20.5271 66.7475C20.3241 66.6528 20.092 66.5672 19.8274 66.4902C19.563 66.4104 19.2748 66.3719 18.9573 66.3719C18.7105 66.3719 18.4958 66.4015 18.3105 66.4637C18.1285 66.5228 17.9756 66.6086 17.852 66.715C17.7285 66.8214 17.6345 66.9485 17.5756 67.0994C17.5139 67.2501 17.4847 67.4099 17.4847 67.5754C17.4847 67.8238 17.5523 68.0398 17.6875 68.2202C17.8227 68.4034 18.0049 68.566 18.2313 68.708C18.4575 68.847 18.7162 68.98 19.0044 69.1042C19.2895 69.2285 19.5834 69.3615 19.8833 69.4975C20.183 69.6366 20.477 69.7934 20.7621 69.9707C21.0502 70.1481 21.3061 70.3581 21.5323 70.6034C21.7557 70.8489 21.9379 71.1357 22.0762 71.4698C22.2143 71.8011 22.2821 72.1913 22.2821 72.6408ZM26.0503 75.7132C26.0503 75.7695 26.0329 75.8197 25.9975 75.8641C25.9651 75.9084 25.9064 75.9439 25.8211 75.9734C25.7388 76.0001 25.6271 76.0237 25.4919 76.0386C25.3537 76.0533 25.1773 76.0593 24.9657 76.0593C24.7541 76.0593 24.5778 76.0533 24.4396 76.0386C24.3044 76.0237 24.1926 76.0001 24.1104 75.9734C24.0249 75.9439 23.9663 75.9084 23.934 75.8641C23.8986 75.8197 23.881 75.7695 23.881 75.7132V67.9954C23.881 67.9391 23.8986 67.8889 23.934 67.8445C23.9663 67.8002 24.0249 67.7618 24.1104 67.7322C24.1926 67.6996 24.3044 67.676 24.4396 67.6582C24.5778 67.6407 24.7541 67.6318 24.9657 67.6318C25.1773 67.6318 25.3537 67.6407 25.4919 67.6582C25.6271 67.676 25.7388 67.6996 25.8211 67.7322C25.9064 67.7618 25.9651 67.8002 25.9975 67.8445C26.0329 67.8889 26.0503 67.9391 26.0503 67.9954V75.7132ZM26.2267 65.3518C26.2267 65.7924 26.1386 66.094 25.9593 66.2626C25.7799 66.4311 25.4509 66.5139 24.9657 66.5139C24.4777 66.5139 24.1457 66.4341 23.9781 66.2715C23.8075 66.1088 23.7223 65.816 23.7223 65.3962C23.7223 64.9556 23.8105 64.651 23.9869 64.4794C24.1603 64.3109 24.4923 64.2252 24.9834 64.2252C25.4653 64.2252 25.7947 64.3079 25.968 64.4736C26.1416 64.6361 26.2267 64.9289 26.2267 65.3518ZM35.304 71.6237C35.304 71.8897 35.2454 72.0849 35.1277 72.2121C35.0101 72.3392 34.8486 72.4044 34.6397 72.4044H29.96C29.96 72.7326 29.9983 73.0281 30.0776 73.2974C30.1541 73.5636 30.2774 73.7911 30.4451 73.9774C30.6156 74.1638 30.833 74.3058 31.1005 74.4032C31.368 74.5008 31.6855 74.5511 32.0589 74.5511C32.438 74.5511 32.7702 74.5245 33.0583 74.4683C33.3435 74.4122 33.5933 74.3529 33.8021 74.285C34.0107 74.2169 34.1842 74.1579 34.3223 74.1016C34.4604 74.0454 34.5721 74.0189 34.6574 74.0189C34.7102 74.0189 34.7545 74.0278 34.7868 74.0483C34.8221 74.0691 34.8515 74.1045 34.8749 74.1579C34.8955 74.208 34.9132 74.282 34.922 74.3765C34.9308 74.4714 34.9338 74.5926 34.9338 74.7345C34.9338 74.8616 34.9308 74.9709 34.9249 75.0598C34.919 75.1484 34.9103 75.2253 34.8984 75.2875C34.8866 75.3524 34.872 75.4057 34.8486 75.4471C34.825 75.4915 34.7955 75.5328 34.7574 75.5742C34.7191 75.6128 34.6193 75.6688 34.4516 75.7399C34.284 75.8108 34.0725 75.8788 33.8138 75.9468C33.555 76.0148 33.2613 76.0741 32.929 76.1243C32.5968 76.1746 32.2412 76.2012 31.8619 76.2012C31.177 76.2012 30.5803 76.1154 30.0659 75.9408C29.5544 75.7695 29.1251 75.5062 28.7784 75.1544C28.4344 74.8024 28.1787 74.356 28.0082 73.8207C27.8406 73.2826 27.7555 72.6526 27.7555 71.9311C27.7555 71.2452 27.8435 70.6272 28.0228 70.0742C28.1992 69.5242 28.4579 69.057 28.7988 68.6724C29.137 68.2882 29.5484 67.9954 30.0336 67.7942C30.5214 67.5903 31.0683 67.4898 31.6766 67.4898C32.3205 67.4898 32.8701 67.5843 33.3258 67.7767C33.7844 67.9658 34.1576 68.2318 34.4516 68.5691C34.7426 68.9062 34.9602 69.3082 35.0985 69.7697C35.2365 70.231 35.304 70.7336 35.304 71.2778V71.6237ZM33.2052 71.0027C33.2229 70.3907 33.0995 69.9086 32.8378 69.5595C32.5762 69.2078 32.1735 69.0333 31.6267 69.0333C31.3505 69.0333 31.1094 69.0866 30.9066 69.19C30.7007 69.2935 30.5302 69.4324 30.395 69.6099C30.2599 69.7873 30.157 69.9943 30.0863 70.2339C30.0129 70.4763 29.9717 70.7305 29.96 71.0027H33.2052ZM49.3171 75.7132C49.3171 75.7695 49.2994 75.8197 49.2641 75.8641C49.2318 75.9084 49.173 75.9439 49.0935 75.9734C49.0113 76.0001 48.9026 76.0237 48.7645 76.0386C48.6262 76.0533 48.4498 76.0593 48.2382 76.0593C48.0178 76.0593 47.8384 76.0533 47.7003 76.0386C47.5621 76.0237 47.4505 76.0001 47.368 75.9734C47.2858 75.9439 47.227 75.9084 47.1947 75.8641C47.1623 75.8197 47.1477 75.7695 47.1477 75.7132V71.1299C47.1477 70.8696 47.1242 70.633 47.0742 70.4201C47.0271 70.2043 46.9507 70.021 46.8507 69.8701C46.7509 69.7163 46.6246 69.5981 46.4746 69.5124C46.3216 69.4295 46.1424 69.3882 45.9307 69.3882C45.672 69.3882 45.4105 69.4888 45.1487 69.6927C44.8843 69.8937 44.5991 70.1896 44.2905 70.5738V75.7132C44.2905 75.7695 44.2728 75.8197 44.2376 75.8641C44.2052 75.9084 44.1465 75.9439 44.0611 75.9734C43.9789 76.0001 43.8672 76.0237 43.729 76.0386C43.5907 76.0533 43.4174 76.0593 43.2116 76.0593C42.997 76.0593 42.8206 76.0533 42.6825 76.0386C42.5444 76.0237 42.4327 76.0001 42.3503 75.9734C42.2651 75.9439 42.2062 75.9084 42.1739 75.8641C42.1388 75.8197 42.1211 75.7695 42.1211 75.7132V71.1299C42.1211 70.8696 42.0976 70.633 42.0475 70.4201C42.0005 70.2043 41.927 70.021 41.8272 69.8701C41.73 69.7163 41.6036 69.5981 41.4507 69.5124C41.2949 69.4295 41.1128 69.3882 40.907 69.3882C40.6423 69.3882 40.3808 69.4888 40.1163 69.6927C39.8516 69.8937 39.5665 70.1896 39.2637 70.5738V75.7132C39.2637 75.7695 39.2462 75.8197 39.2109 75.8641C39.1786 75.9084 39.1197 75.9439 39.0345 75.9734C38.9523 76.0001 38.8404 76.0237 38.7052 76.0386C38.5671 76.0533 38.3907 76.0593 38.179 76.0593C37.9674 76.0593 37.7911 76.0533 37.653 76.0386C37.5178 76.0237 37.4059 76.0001 37.3237 75.9734C37.2384 75.9439 37.1796 75.9084 37.1473 75.8641C37.112 75.8197 37.0944 75.7695 37.0944 75.7132V67.9776C37.0944 67.9216 37.109 67.8712 37.1384 67.8269C37.165 67.7825 37.218 67.747 37.2913 67.7174C37.3678 67.6909 37.4618 67.6671 37.5795 67.6523C37.697 67.6376 37.8468 67.6318 38.0232 67.6318C38.2085 67.6318 38.3585 67.6376 38.4789 67.6523C38.5995 67.6671 38.6935 67.6909 38.7611 67.7174C38.8258 67.747 38.8727 67.7825 38.9022 67.8269C38.9317 67.8712 38.9463 67.9216 38.9463 67.9776V68.8706C39.3696 68.4093 39.793 68.0663 40.2161 67.8356C40.6395 67.605 41.0805 67.4898 41.539 67.4898C41.8563 67.4898 42.1417 67.5222 42.3944 67.5903C42.6472 67.6552 42.8705 67.75 43.0704 67.8741C43.2674 67.9983 43.438 68.1462 43.5821 68.3178C43.726 68.4922 43.8466 68.6844 43.9435 68.8973C44.1727 68.6489 44.3991 68.436 44.6195 68.2586C44.8402 68.0811 45.0606 67.9334 45.2752 67.8209C45.4897 67.7085 45.7044 67.6258 45.9218 67.5725C46.1365 67.5163 46.3538 67.4898 46.5803 67.4898C47.0888 67.4898 47.5209 67.5754 47.8708 67.75C48.2205 67.9216 48.5028 68.158 48.7174 68.4567C48.935 68.7524 49.0877 69.1013 49.1789 69.5006C49.27 69.8997 49.3171 70.3196 49.3171 70.7661V75.7132ZM58.5325 71.6237C58.5325 71.8897 58.4737 72.0849 58.3562 72.2121C58.2386 72.3392 58.077 72.4044 57.8682 72.4044H53.1885C53.1885 72.7326 53.2266 73.0281 53.3061 73.2974C53.3824 73.5636 53.5059 73.7911 53.6735 73.9774C53.8441 74.1638 54.0615 74.3058 54.3289 74.4032C54.5965 74.5008 54.914 74.5511 55.2874 74.5511C55.6665 74.5511 55.9987 74.5245 56.2868 74.4683C56.5719 74.4122 56.8217 74.3529 57.0306 74.285C57.2392 74.2169 57.4126 74.1579 57.5508 74.1016C57.6889 74.0454 57.8006 74.0189 57.8859 74.0189C57.9387 74.0189 57.9828 74.0278 58.0152 74.0483C58.0506 74.0691 58.08 74.1045 58.1034 74.1579C58.124 74.208 58.1415 74.282 58.1504 74.3765C58.1593 74.4714 58.1621 74.5926 58.1621 74.7345C58.1621 74.8616 58.1593 74.9709 58.1534 75.0598C58.1475 75.1484 58.1386 75.2253 58.1269 75.2875C58.1151 75.3524 58.1005 75.4057 58.077 75.4471C58.0535 75.4915 58.024 75.5328 57.9857 75.5742C57.9476 75.6128 57.8476 75.6688 57.6801 75.7399C57.5125 75.8108 57.301 75.8788 57.0423 75.9468C56.7835 76.0148 56.4896 76.0741 56.1574 76.1243C55.8252 76.1746 55.4696 76.2012 55.0904 76.2012C54.4055 76.2012 53.8086 76.1154 53.2944 75.9408C52.7827 75.7695 52.3536 75.5062 52.0069 75.1544C51.6629 74.8024 51.4072 74.356 51.2367 73.8207C51.069 73.2826 50.9838 72.6526 50.9838 71.9311C50.9838 71.2452 51.072 70.6272 51.2513 70.0742C51.4277 69.5242 51.6864 69.057 52.0273 68.6724C52.3654 68.2882 52.7769 67.9954 53.262 67.7942C53.7499 67.5903 54.2967 67.4898 54.9051 67.4898C55.549 67.4898 56.0986 67.5843 56.5543 67.7767C57.0129 67.9658 57.3862 68.2318 57.6801 68.5691C57.9711 68.9062 58.1887 69.3082 58.3268 69.7697C58.465 70.231 58.5325 70.7336 58.5325 71.2778V71.6237ZM56.4337 71.0027C56.4514 70.3907 56.328 69.9086 56.0663 69.5595C55.8045 69.2078 55.402 69.0333 54.8552 69.0333C54.5789 69.0333 54.3377 69.0866 54.1351 69.19C53.9292 69.2935 53.7586 69.4324 53.6234 69.6099C53.4882 69.7873 53.3855 69.9943 53.3148 70.2339C53.2414 70.4763 53.2002 70.7305 53.1885 71.0027H56.4337ZM67.66 75.7132C67.66 75.7695 67.6423 75.8197 67.6071 75.8641C67.5747 75.9084 67.516 75.9439 67.4366 75.9734C67.3543 76.0001 67.2426 76.0237 67.1015 76.0386C66.9605 76.0533 66.787 76.0593 66.5811 76.0593C66.3666 76.0593 66.1901 76.0533 66.0491 76.0386C65.908 76.0237 65.7964 76.0001 65.714 75.9734C65.6346 75.9439 65.5757 75.9084 65.5434 75.8641C65.5083 75.8197 65.4906 75.7695 65.4906 75.7132V71.3042C65.4906 70.9287 65.4642 70.633 65.4082 70.4201C65.3554 70.2043 65.2759 70.021 65.1732 69.8701C65.0703 69.7163 64.9351 69.5981 64.7734 69.5124C64.6087 69.4295 64.4206 69.3882 64.2031 69.3882C63.9269 69.3882 63.6504 69.4888 63.3682 69.6927C63.0889 69.8937 62.795 70.1896 62.4921 70.5738V75.7132C62.4921 75.7695 62.4747 75.8197 62.4393 75.8641C62.4069 75.9084 62.3482 75.9439 62.2629 75.9734C62.1806 76.0001 62.0689 76.0237 61.9337 76.0386C61.7955 76.0533 61.6191 76.0593 61.4075 76.0593C61.1959 76.0593 61.0196 76.0533 60.8814 76.0386C60.7462 76.0237 60.6344 76.0001 60.5522 75.9734C60.4667 75.9439 60.4081 75.9084 60.3758 75.8641C60.3404 75.8197 60.3229 75.7695 60.3229 75.7132V67.9776C60.3229 67.9216 60.3375 67.8712 60.3669 67.8269C60.3933 67.7825 60.4463 67.747 60.5197 67.7174C60.5963 67.6909 60.6903 67.6671 60.8078 67.6523C60.9255 67.6376 61.0753 67.6318 61.2518 67.6318C61.437 67.6318 61.5869 67.6376 61.7074 67.6523C61.8278 67.6671 61.922 67.6909 61.9896 67.7174C62.0541 67.747 62.1013 67.7825 62.1307 67.8269C62.16 67.8712 62.1749 67.9216 62.1749 67.9776V68.8706C62.5981 68.4093 63.0302 68.0663 63.4712 67.8356C63.9092 67.605 64.3676 67.4898 64.8438 67.4898C65.3671 67.4898 65.808 67.5754 66.1666 67.75C66.5254 67.9216 66.8135 68.158 67.0368 68.4567C67.2572 68.7524 67.416 69.1013 67.513 69.5006C67.61 69.8997 67.66 70.3788 67.66 70.9376V75.7132ZM75.2029 73.525C75.2029 73.9627 75.1206 74.35 74.9561 74.6871C74.7944 75.0213 74.5621 75.2993 74.2622 75.527C73.9625 75.7517 73.6097 75.9202 73.2012 76.0326C72.7925 76.145 72.3516 76.2012 71.8754 76.2012C71.5872 76.2012 71.311 76.1804 71.0493 76.1361C70.7878 76.0917 70.5555 76.0356 70.3469 75.9675C70.141 75.9026 69.9675 75.8345 69.8294 75.7635C69.6913 75.6924 69.5913 75.6275 69.5296 75.5653C69.465 75.5032 69.4149 75.4086 69.3826 75.2786C69.3472 75.1514 69.3298 74.9591 69.3298 74.7049C69.3298 74.5393 69.3356 74.4062 69.3472 74.3058C69.3591 74.2051 69.3766 74.1223 69.3972 74.0631C69.4209 74.0041 69.4502 73.9627 69.4856 73.942C69.5178 73.9212 69.5619 73.9123 69.6148 73.9123C69.6765 73.9123 69.7707 73.9478 69.8941 74.0219C70.0175 74.0958 70.1705 74.1756 70.3557 74.2613C70.5378 74.35 70.7525 74.4329 70.9964 74.5067C71.2404 74.5836 71.5196 74.6222 71.8282 74.6222C72.0223 74.6222 72.1987 74.6015 72.3486 74.56C72.5015 74.5215 72.6338 74.4625 72.7455 74.3854C72.8571 74.3116 72.9425 74.2169 73.0011 74.0987C73.0571 73.9834 73.0866 73.8503 73.0866 73.6995C73.0866 73.525 73.0335 73.3772 72.9277 73.253C72.8189 73.1288 72.6777 73.0195 72.5046 72.9277C72.3281 72.8361 72.1281 72.7503 71.9077 72.6675C71.6872 72.5877 71.458 72.499 71.2256 72.3984C70.9935 72.3008 70.7642 72.1884 70.5438 72.0613C70.3232 71.9342 70.1233 71.7804 69.9469 71.594C69.7737 71.4109 69.6325 71.186 69.5236 70.9287C69.4178 70.6687 69.3649 70.3552 69.3649 69.9914C69.3649 69.6217 69.4384 69.2846 69.5825 68.9741C69.7266 68.6666 69.9323 68.4004 70.2028 68.1818C70.4762 67.9629 70.8053 67.7913 71.1934 67.6701C71.5844 67.5489 72.0194 67.4898 72.5046 67.4898C72.7484 67.4898 72.9805 67.5074 73.2099 67.54C73.4362 67.5754 73.645 67.6199 73.8272 67.6701C74.0124 67.7234 74.1682 67.7767 74.2946 67.8387C74.4209 67.8978 74.5122 67.9509 74.5679 67.9923C74.6239 68.0369 74.6621 68.0783 74.6857 68.1225C74.706 68.1669 74.7237 68.2172 74.7355 68.2793C74.7472 68.3385 74.7591 68.4153 74.7678 68.504C74.7767 68.5927 74.7797 68.7051 74.7797 68.838C74.7797 68.9948 74.7767 69.122 74.7678 69.2197C74.7591 69.3171 74.7443 69.397 74.7237 69.4532C74.7031 69.5124 74.6769 69.5508 74.6414 69.5715C74.6062 69.5922 74.565 69.601 74.521 69.601C74.4681 69.601 74.3858 69.5715 74.2769 69.5095C74.1682 69.4502 74.03 69.3853 73.8655 69.3171C73.7008 69.2491 73.5098 69.1841 73.2952 69.125C73.0777 69.0629 72.8307 69.0333 72.5543 69.0333C72.3574 69.0333 72.187 69.054 72.0429 69.0926C71.8989 69.1339 71.7814 69.193 71.6872 69.2668C71.5961 69.3408 71.5255 69.4295 71.4815 69.5302C71.4344 69.6306 71.4108 69.7401 71.4108 69.8523C71.4108 70.0328 71.4668 70.1835 71.5755 70.3048C71.6843 70.426 71.8282 70.5326 72.0077 70.6241C72.1841 70.7158 72.3897 70.8047 72.6161 70.8843C72.8424 70.9643 73.0747 71.0529 73.3069 71.1474C73.5391 71.2422 73.7713 71.3546 73.9976 71.4817C74.2241 71.6089 74.4298 71.7656 74.6062 71.9489C74.7855 72.1353 74.9296 72.354 75.0382 72.6114C75.147 72.8686 75.2029 73.173 75.2029 73.525ZM89.6302 75.6955C89.6302 75.7517 89.6126 75.8048 89.5743 75.8522C89.536 75.8966 89.4745 75.935 89.3891 75.9645C89.3039 75.9912 89.1891 76.0148 89.0451 76.0326C88.904 76.0504 88.7219 76.0593 88.5072 76.0593C88.2839 76.0593 88.0986 76.0504 87.9517 76.0326C87.8047 76.0148 87.693 75.9912 87.6077 75.9645C87.5255 75.935 87.4666 75.8966 87.4285 75.8522C87.3903 75.8048 87.3725 75.7517 87.3725 75.6955V71.1623H83.1926V75.6955C83.1926 75.7517 83.1749 75.8048 83.1396 75.8522C83.1073 75.8966 83.0456 75.935 82.9603 75.9645C82.875 75.9912 82.7604 76.0148 82.6163 76.0326C82.4753 76.0504 82.2901 76.0593 82.0697 76.0593C81.8521 76.0593 81.6698 76.0504 81.5229 76.0326C81.376 76.0148 81.2613 75.9912 81.1759 75.9645C81.0908 75.935 81.0289 75.8966 80.9908 75.8522C80.9525 75.8048 80.935 75.7517 80.935 75.6955V65.1035C80.935 65.0471 80.9525 64.994 80.9908 64.9467C81.0289 64.9023 81.0908 64.864 81.1759 64.8343C81.2613 64.8047 81.376 64.784 81.5229 64.7663C81.6698 64.7485 81.8521 64.7396 82.0697 64.7396C82.2901 64.7396 82.4753 64.7485 82.6163 64.7663C82.7604 64.784 82.875 64.8078 82.9603 64.8343C83.0456 64.864 83.1073 64.9023 83.1396 64.9467C83.1749 64.994 83.1926 65.0471 83.1926 65.1035V69.2285H87.3725V65.1035C87.3725 65.0471 87.3903 64.994 87.4285 64.9467C87.4666 64.9023 87.5255 64.864 87.6077 64.8343C87.693 64.8078 87.8047 64.784 87.9517 64.7663C88.0986 64.7485 88.2839 64.7396 88.5072 64.7396C88.7219 64.7396 88.904 64.7485 89.0451 64.7663C89.1891 64.784 89.3039 64.8047 89.3891 64.8343C89.4745 64.864 89.536 64.9023 89.5743 64.9467C89.6126 64.994 89.6302 65.0471 89.6302 65.1035V75.6955ZM99.0278 71.6237C99.0278 71.8897 98.9692 72.0849 98.8515 72.2121C98.7338 72.3392 98.5724 72.4044 98.3635 72.4044H93.6837C93.6837 72.7326 93.7221 73.0281 93.8014 73.2974C93.8778 73.5636 94.0012 73.7911 94.1689 73.9774C94.3393 74.1638 94.5568 74.3058 94.8243 74.4032C95.0919 74.5008 95.4093 74.5511 95.7827 74.5511C96.1617 74.5511 96.4939 74.5245 96.7821 74.4683C97.0673 74.4122 97.3171 74.3529 97.5258 74.285C97.7344 74.2169 97.908 74.1579 98.0461 74.1016C98.1842 74.0454 98.2959 74.0189 98.3812 74.0189C98.434 74.0189 98.4783 74.0278 98.5106 74.0483C98.5459 74.0691 98.5753 74.1045 98.5986 74.1579C98.6193 74.208 98.637 74.282 98.6458 74.3765C98.6547 74.4714 98.6575 74.5926 98.6575 74.7345C98.6575 74.8616 98.6547 74.9709 98.6487 75.0598C98.6427 75.1484 98.634 75.2253 98.6222 75.2875C98.6104 75.3524 98.5958 75.4057 98.5724 75.4471C98.5487 75.4915 98.5193 75.5328 98.4811 75.5742C98.4428 75.6128 98.343 75.6688 98.1753 75.7399C98.0078 75.8108 97.7963 75.8788 97.5376 75.9468C97.2788 76.0148 96.985 76.0741 96.6528 76.1243C96.3206 76.1746 95.965 76.2012 95.5857 76.2012C94.9007 76.2012 94.3041 76.1154 93.7897 75.9408C93.2782 75.7695 92.8489 75.5062 92.5021 75.1544C92.1582 74.8024 91.9024 74.356 91.7319 73.8207C91.5644 73.2826 91.4792 72.6526 91.4792 71.9311C91.4792 71.2452 91.5673 70.6272 91.7466 70.0742C91.923 69.5242 92.1817 69.057 92.5226 68.6724C92.8608 68.2882 93.2722 67.9954 93.7573 67.7942C94.2452 67.5903 94.7921 67.4898 95.4004 67.4898C96.0442 67.4898 96.5939 67.5843 97.0496 67.7767C97.5081 67.9658 97.8814 68.2318 98.1753 68.5691C98.4663 68.9062 98.6839 69.3082 98.8222 69.7697C98.9603 70.231 99.0278 70.7336 99.0278 71.2778V71.6237ZM96.929 71.0027C96.9467 70.3907 96.8233 69.9086 96.5615 69.5595C96.3 69.2078 95.8972 69.0333 95.3505 69.0333C95.0743 69.0333 94.8331 69.0866 94.6304 69.19C94.4245 69.2935 94.254 69.4324 94.1189 69.6099C93.9836 69.7873 93.8808 69.9943 93.8101 70.2339C93.7367 70.4763 93.6955 70.7305 93.6837 71.0027H96.929ZM107.362 75.7399C107.362 75.8197 107.332 75.8819 107.276 75.9291C107.218 75.9765 107.126 76.009 107.003 76.0297C106.88 76.0504 106.697 76.0593 106.453 76.0593C106.195 76.0593 106.006 76.0504 105.889 76.0297C105.771 76.009 105.686 75.9765 105.639 75.9291C105.589 75.8819 105.566 75.8197 105.566 75.7399V75.1248C105.248 75.4649 104.889 75.728 104.484 75.9173C104.081 76.1064 103.631 76.2012 103.137 76.2012C102.732 76.2012 102.356 76.1479 102.015 76.0415C101.674 75.935 101.38 75.7753 101.13 75.5653C100.88 75.3524 100.686 75.0922 100.548 74.7816C100.409 74.4683 100.342 74.1045 100.342 73.6907C100.342 73.2383 100.43 72.8479 100.604 72.5166C100.78 72.1825 101.042 71.9104 101.388 71.6917C101.735 71.4758 102.164 71.3162 102.682 71.2127C103.196 71.1092 103.796 71.056 104.478 71.056H105.227V70.5887C105.227 70.3463 105.204 70.1332 105.154 69.9501C105.107 69.7697 105.025 69.6159 104.913 69.4946C104.801 69.3735 104.654 69.2846 104.466 69.2255C104.281 69.1693 104.049 69.1397 103.775 69.1397C103.414 69.1397 103.091 69.1811 102.808 69.261C102.523 69.3408 102.273 69.4324 102.056 69.5302C101.838 69.6277 101.656 69.7193 101.509 69.7992C101.362 69.879 101.244 69.9205 101.153 69.9205C101.089 69.9205 101.033 69.8997 100.986 69.8612C100.936 69.8199 100.895 69.7608 100.865 69.6868C100.833 69.613 100.809 69.5182 100.792 69.4088C100.774 69.2993 100.765 69.1782 100.765 69.048C100.765 68.8676 100.78 68.7258 100.809 68.6223C100.836 68.5188 100.892 68.4271 100.971 68.3414C101.053 68.2586 101.192 68.1669 101.394 68.0663C101.594 67.9658 101.829 67.8712 102.1 67.7855C102.37 67.6967 102.664 67.6258 102.982 67.5725C103.302 67.5163 103.631 67.4898 103.969 67.4898C104.572 67.4898 105.086 67.5489 105.516 67.6671C105.942 67.7855 106.295 67.9687 106.568 68.2143C106.844 68.4597 107.047 68.776 107.173 69.1633C107.3 69.5477 107.362 70.009 107.362 70.5385V75.7399ZM105.227 72.422H104.402C104.052 72.422 103.755 72.4486 103.508 72.499C103.261 72.5522 103.061 72.629 102.905 72.7354C102.749 72.839 102.638 72.9632 102.567 73.111C102.494 73.259 102.458 73.4276 102.458 73.6166C102.458 73.942 102.561 74.1962 102.764 74.3796C102.967 74.566 103.249 74.6575 103.611 74.6575C103.914 74.6575 104.193 74.5807 104.448 74.424C104.704 74.2672 104.963 74.0396 105.227 73.7379V72.422Z" fill="#1A1A18"/>
<path d="M111.536 75.7454C111.536 75.8015 111.518 75.852 111.483 75.8963C111.45 75.9407 111.392 75.9761 111.306 76.0056C111.224 76.0323 111.112 76.056 110.977 76.0709C110.839 76.0856 110.663 76.0916 110.451 76.0916C110.239 76.0916 110.063 76.0856 109.925 76.0709C109.79 76.056 109.678 76.0323 109.596 76.0056C109.51 75.9761 109.451 75.9407 109.419 75.8963C109.384 75.852 109.366 75.8018 109.366 75.7454V64.3461C109.366 64.2871 109.384 64.2368 109.419 64.1893C109.451 64.1451 109.51 64.1036 109.596 64.074C109.678 64.0415 109.79 64.018 109.925 64.0002C110.063 63.9824 110.239 63.9736 110.451 63.9736C110.663 63.9736 110.839 63.9824 110.977 64.0002C111.112 64.018 111.224 64.0415 111.306 64.074C111.392 64.1036 111.45 64.1451 111.483 64.1893C111.518 64.2368 111.536 64.2872 111.536 64.3461V75.7454ZM118.25 74.9855C118.25 75.2397 118.235 75.435 118.203 75.571C118.17 75.7069 118.129 75.8018 118.076 75.8548C118.026 75.9111 117.95 75.9614 117.85 76.0027C117.747 76.0471 117.629 76.0856 117.494 76.1151C117.362 76.1476 117.215 76.1713 117.056 76.1891C116.897 76.2069 116.739 76.2156 116.577 76.2156C116.148 76.2156 115.774 76.1594 115.457 76.0501C115.142 75.9407 114.881 75.7721 114.672 75.5443C114.466 75.3167 114.313 75.0299 114.217 74.6809C114.12 74.335 114.07 73.924 114.07 73.4509V69.4914H113.138C113.029 69.4914 112.944 69.4233 112.888 69.2872C112.829 69.1512 112.8 68.9236 112.8 68.6043C112.8 68.4357 112.806 68.2937 112.82 68.1784C112.835 68.0633 112.858 67.9713 112.888 67.9035C112.914 67.8384 112.953 67.7911 112.997 67.7615C113.038 67.7318 113.091 67.7171 113.146 67.7171H114.07V65.9872C114.07 65.931 114.084 65.8779 114.117 65.8305C114.149 65.7861 114.208 65.7476 114.29 65.7152C114.372 65.6826 114.487 65.6589 114.628 65.6443C114.769 65.6295 114.943 65.6237 115.151 65.6237C115.363 65.6237 115.539 65.6295 115.68 65.6443C115.822 65.6589 115.933 65.6826 116.015 65.7152C116.095 65.7477 116.154 65.7861 116.186 65.8305C116.221 65.8779 116.239 65.9312 116.239 65.9872V67.7171H117.906C117.964 67.7171 118.015 67.7318 118.056 67.7615C118.1 67.7911 118.135 67.8384 118.164 67.9035C118.194 67.9713 118.214 68.0631 118.229 68.1784C118.244 68.2937 118.25 68.4357 118.25 68.6043C118.25 68.9236 118.22 69.1512 118.164 69.2872C118.105 69.4233 118.023 69.4914 117.914 69.4914H116.239V73.1225C116.239 73.5453 116.304 73.8619 116.436 74.0719C116.568 74.2815 116.803 74.3882 117.141 74.3882C117.256 74.3882 117.359 74.3793 117.45 74.3588C117.541 74.3382 117.623 74.3142 117.694 74.2877C117.767 74.264 117.826 74.2403 117.876 74.2197C117.923 74.199 117.97 74.1902 118.009 74.1902C118.044 74.1902 118.076 74.199 118.109 74.2197C118.138 74.2403 118.164 74.2788 118.182 74.341C118.197 74.4001 118.214 74.4829 118.229 74.5863C118.244 74.6928 118.25 74.8228 118.25 74.9855ZM127.151 75.7454C127.151 75.8015 127.133 75.852 127.098 75.8963C127.065 75.9407 127.007 75.9761 126.927 76.0056C126.845 76.0323 126.733 76.056 126.592 76.0709C126.451 76.0856 126.278 76.0916 126.072 76.0916C125.857 76.0916 125.681 76.0856 125.54 76.0709C125.399 76.056 125.287 76.0323 125.205 76.0056C125.125 75.9761 125.066 75.9407 125.034 75.8963C124.999 75.852 124.981 75.8018 124.981 75.7454V71.3364C124.981 70.961 124.955 70.6653 124.899 70.4524C124.846 70.2365 124.767 70.0532 124.664 69.9023C124.561 69.7485 124.426 69.6303 124.264 69.5446C124.099 69.4618 123.911 69.4205 123.694 69.4205C123.417 69.4205 123.141 69.521 122.859 69.7249C122.579 69.926 122.286 70.2218 121.983 70.6061V75.7454C121.983 75.8016 121.965 75.852 121.93 75.8963C121.898 75.9407 121.839 75.9761 121.754 76.0056C121.671 76.0323 121.559 76.056 121.424 76.0709C121.286 76.0856 121.11 76.0916 120.898 76.0916C120.686 76.0916 120.51 76.0856 120.372 76.0709C120.237 76.056 120.125 76.0323 120.043 76.0056C119.957 75.9761 119.899 75.9407 119.866 75.8963C119.831 75.852 119.813 75.8018 119.813 75.7454V64.3461C119.813 64.2871 119.831 64.2368 119.866 64.1893C119.899 64.1451 119.957 64.1036 120.043 64.074C120.125 64.0415 120.237 64.018 120.372 64.0002C120.51 63.9824 120.686 63.9736 120.898 63.9736C121.11 63.9736 121.286 63.9824 121.424 64.0002C121.559 64.018 121.671 64.0415 121.754 64.074C121.839 64.1036 121.898 64.1451 121.93 64.1893C121.965 64.2368 121.983 64.2901 121.983 64.3461V68.6221C122.356 68.2524 122.735 67.9773 123.124 67.794C123.511 67.6136 123.914 67.522 124.334 67.522C124.858 67.522 125.299 67.6077 125.657 67.7822C126.016 67.9538 126.304 68.1933 126.527 68.4919C126.748 68.7935 126.907 69.1423 127.004 69.5446C127.101 69.9466 127.151 70.4349 127.151 71.0055V75.7454ZM131.448 75.7454C131.448 75.8015 131.431 75.852 131.395 75.8963C131.363 75.9407 131.304 75.9761 131.219 76.0056C131.137 76.0323 131.025 76.056 130.89 76.0709C130.752 76.0856 130.575 76.0916 130.364 76.0916C130.152 76.0916 129.976 76.0856 129.837 76.0709C129.702 76.056 129.59 76.0323 129.508 76.0056C129.423 75.9761 129.364 75.9407 129.332 75.8963C129.296 75.852 129.279 75.8018 129.279 75.7454V68.0277C129.279 67.9713 129.296 67.9211 129.332 67.8768C129.364 67.8324 129.423 67.794 129.508 67.7644C129.59 67.7318 129.702 67.7082 129.837 67.6904C129.976 67.6729 130.152 67.664 130.364 67.664C130.575 67.664 130.752 67.6729 130.89 67.6904C131.025 67.7082 131.137 67.7318 131.219 67.7644C131.304 67.794 131.363 67.8324 131.395 67.8768C131.431 67.9211 131.448 67.9715 131.448 68.0277V75.7454ZM131.625 65.3841C131.625 65.8246 131.537 66.1263 131.357 66.2949C131.178 66.4634 130.849 66.5462 130.364 66.5462C129.876 66.5462 129.544 66.4663 129.376 66.3037C129.205 66.141 129.12 65.8483 129.12 65.4284C129.12 64.9878 129.208 64.6832 129.385 64.5117C129.558 64.3431 129.89 64.2575 130.381 64.2575C130.863 64.2575 131.193 64.3402 131.366 64.5059C131.539 64.6684 131.625 64.9612 131.625 65.3841ZM140.949 75.7454C140.949 75.8015 140.931 75.852 140.896 75.8963C140.864 75.9407 140.805 75.9761 140.726 76.0056C140.643 76.0323 140.532 76.056 140.39 76.0709C140.249 76.0856 140.076 76.0916 139.87 76.0916C139.656 76.0916 139.479 76.0856 139.338 76.0709C139.197 76.056 139.085 76.0323 139.003 76.0056C138.924 75.9761 138.865 75.9407 138.832 75.8963C138.797 75.852 138.78 75.8018 138.78 75.7454V71.3364C138.78 70.961 138.753 70.6653 138.697 70.4524C138.644 70.2365 138.565 70.0532 138.462 69.9023C138.359 69.7485 138.224 69.6303 138.062 69.5446C137.898 69.4618 137.71 69.4205 137.492 69.4205C137.216 69.4205 136.939 69.521 136.657 69.7249C136.378 69.926 136.084 70.2218 135.781 70.6061V75.7454C135.781 75.8016 135.764 75.852 135.728 75.8963C135.696 75.9407 135.637 75.9761 135.552 76.0056C135.47 76.0323 135.358 76.056 135.223 76.0709C135.084 76.0856 134.908 76.0916 134.696 76.0916C134.485 76.0916 134.309 76.0856 134.17 76.0709C134.035 76.056 133.923 76.0323 133.841 76.0056C133.756 75.9761 133.697 75.9407 133.665 75.8963C133.629 75.852 133.612 75.8018 133.612 75.7454V68.0099C133.612 67.9538 133.626 67.9035 133.656 67.8591C133.682 67.8147 133.735 67.7793 133.809 67.7497C133.885 67.7231 133.979 67.6992 134.097 67.6846C134.214 67.6699 134.364 67.664 134.541 67.664C134.726 67.664 134.876 67.6699 134.996 67.6846C135.117 67.6992 135.211 67.7231 135.278 67.7497C135.343 67.7793 135.39 67.8147 135.42 67.8591C135.449 67.9033 135.464 67.954 135.464 68.0099V68.9029C135.887 68.4415 136.319 68.0986 136.76 67.8679C137.198 67.6373 137.657 67.522 138.133 67.522C138.656 67.522 139.097 67.6077 139.456 67.7822C139.814 67.9538 140.102 68.1902 140.326 68.4889C140.546 68.7846 140.705 69.1336 140.802 69.5329C140.899 69.9318 140.949 70.4112 140.949 70.9698V75.7454ZM150.167 71.6559C150.167 71.9216 150.109 72.1173 149.991 72.2443C149.873 72.3714 149.712 72.4366 149.503 72.4366H144.823C144.823 72.7649 144.862 73.0604 144.941 73.3296C145.017 73.5958 145.141 73.8233 145.308 74.0097C145.479 74.196 145.696 74.3382 145.964 74.4355C146.231 74.533 146.549 74.5833 146.922 74.5833C147.301 74.5833 147.634 74.5568 147.922 74.5006C148.207 74.4444 148.457 74.3852 148.665 74.3173C148.874 74.2493 149.047 74.1902 149.186 74.1338C149.324 74.0777 149.435 74.0511 149.521 74.0511C149.574 74.0511 149.618 74.06 149.65 74.0806C149.685 74.1013 149.715 74.1368 149.738 74.1902C149.759 74.2403 149.777 74.3142 149.785 74.4088C149.794 74.5035 149.797 74.6248 149.797 74.7668C149.797 74.8939 149.794 75.0033 149.788 75.0921C149.783 75.1806 149.774 75.2575 149.762 75.3197C149.75 75.3847 149.735 75.4379 149.712 75.4794C149.688 75.5238 149.659 75.5651 149.621 75.6065C149.582 75.645 149.483 75.7012 149.315 75.7721C149.147 75.8431 148.936 75.9111 148.677 75.9791C148.418 76.0469 148.124 76.1063 147.792 76.1565C147.46 76.2067 147.104 76.2334 146.725 76.2334C146.04 76.2334 145.444 76.1476 144.929 75.9731C144.418 75.8018 143.988 75.5385 143.642 75.1867C143.298 74.8346 143.042 74.3882 142.871 73.853C142.704 73.3149 142.619 72.6849 142.619 71.9634C142.619 71.2775 142.707 70.6594 142.886 70.1065C143.063 69.5565 143.321 69.0892 143.662 68.7047C144 68.3204 144.412 68.0277 144.897 67.8264C145.385 67.6226 145.932 67.522 146.54 67.522C147.184 67.522 147.733 67.6166 148.189 67.8089C148.648 67.9981 149.021 68.2641 149.315 68.6013C149.606 68.9384 149.824 69.3405 149.962 69.802C150.1 70.2632 150.167 70.766 150.167 71.31V71.6559ZM148.069 71.035C148.086 70.4229 147.963 69.9409 147.701 69.5918C147.439 69.2401 147.037 69.0656 146.49 69.0656C146.214 69.0656 145.973 69.1188 145.77 69.2223C145.564 69.3257 145.393 69.4647 145.258 69.6422C145.123 69.8196 145.02 70.0265 144.95 70.2662C144.876 70.5086 144.835 70.7628 144.823 71.035H148.069ZM159.048 71.6559C159.048 71.9216 158.989 72.1173 158.872 72.2443C158.754 72.3714 158.592 72.4366 158.384 72.4366H153.704C153.704 72.7649 153.742 73.0604 153.821 73.3296C153.898 73.5958 154.021 73.8233 154.189 74.0097C154.359 74.196 154.577 74.3382 154.844 74.4355C155.112 74.533 155.429 74.5833 155.803 74.5833C156.182 74.5833 156.514 74.5568 156.802 74.5006C157.087 74.4444 157.337 74.3852 157.546 74.3173C157.754 74.2493 157.928 74.1902 158.066 74.1338C158.204 74.0777 158.316 74.0511 158.401 74.0511C158.454 74.0511 158.498 74.06 158.531 74.0806C158.566 74.1013 158.595 74.1368 158.619 74.1902C158.639 74.2403 158.657 74.3142 158.666 74.4088C158.675 74.5035 158.677 74.6248 158.677 74.7668C158.677 74.8939 158.675 75.0033 158.669 75.0921C158.663 75.1806 158.654 75.2575 158.642 75.3197C158.63 75.3847 158.616 75.4379 158.592 75.4794C158.569 75.5238 158.539 75.5651 158.501 75.6065C158.463 75.645 158.363 75.7012 158.195 75.7721C158.028 75.8431 157.816 75.9111 157.558 75.9791C157.299 76.0469 157.005 76.1063 156.673 76.1565C156.341 76.2067 155.985 76.2334 155.606 76.2334C154.921 76.2334 154.324 76.1476 153.81 75.9731C153.298 75.8018 152.869 75.5385 152.522 75.1867C152.178 74.8346 151.922 74.3882 151.752 73.853C151.584 73.3149 151.499 72.6849 151.499 71.9634C151.499 71.2775 151.587 70.6594 151.767 70.1065C151.943 69.5565 152.202 69.0892 152.543 68.7047C152.881 68.3204 153.292 68.0277 153.777 67.8264C154.265 67.6226 154.812 67.522 155.42 67.522C156.064 67.522 156.614 67.6166 157.069 67.8089C157.528 67.9981 157.901 68.2641 158.195 68.6013C158.486 68.9384 158.704 69.3405 158.842 69.802C158.98 70.2632 159.048 70.766 159.048 71.31V71.6559ZM156.949 71.035C156.967 70.4229 156.843 69.9409 156.581 69.5918C156.32 69.2401 155.917 69.0656 155.371 69.0656C155.094 69.0656 154.853 69.1188 154.65 69.2223C154.445 69.3257 154.274 69.4647 154.139 69.6422C154.004 69.8196 153.901 70.0265 153.83 70.2662C153.757 70.5086 153.715 70.7628 153.704 71.035H156.949ZM165.777 68.7314C165.777 68.9384 165.771 69.1099 165.759 69.243C165.747 69.3761 165.73 69.4796 165.709 69.5536C165.685 69.6274 165.653 69.6807 165.618 69.7103C165.58 69.7398 165.533 69.7516 165.474 69.7516C165.43 69.7516 165.377 69.7427 165.318 69.722C165.262 69.7014 165.197 69.6807 165.124 69.657C165.053 69.6332 164.974 69.6125 164.889 69.5918C164.801 69.5711 164.707 69.5625 164.604 69.5625C164.483 69.5625 164.363 69.5859 164.242 69.6363C164.122 69.6865 163.995 69.7605 163.866 69.8669C163.736 69.9705 163.601 70.1094 163.46 70.2809C163.319 70.4553 163.169 70.6682 163.007 70.9226V75.7454C163.007 75.8016 162.99 75.852 162.955 75.8963C162.922 75.9407 162.863 75.9761 162.778 76.0056C162.696 76.0323 162.584 76.056 162.449 76.0709C162.311 76.0856 162.134 76.0916 161.923 76.0916C161.711 76.0916 161.535 76.0856 161.397 76.0709C161.262 76.056 161.15 76.0323 161.067 76.0056C160.982 75.9761 160.923 75.9407 160.891 75.8963C160.856 75.852 160.838 75.8018 160.838 75.7454V68.0099C160.838 67.9538 160.853 67.9035 160.882 67.8591C160.909 67.8147 160.962 67.7793 161.035 67.7497C161.112 67.7231 161.206 67.6992 161.323 67.6846C161.441 67.6699 161.591 67.664 161.767 67.664C161.952 67.664 162.102 67.6699 162.223 67.6846C162.343 67.6992 162.437 67.7231 162.505 67.7497C162.569 67.7793 162.617 67.8147 162.646 67.8591C162.675 67.9033 162.69 67.954 162.69 68.0099V68.9739C162.89 68.6842 163.081 68.4475 163.257 68.2612C163.437 68.075 163.607 67.9242 163.766 67.8147C163.928 67.7053 164.089 67.6284 164.251 67.5871C164.41 67.5426 164.571 67.522 164.733 67.522C164.806 67.522 164.889 67.5251 164.974 67.5337C165.059 67.5424 165.15 67.5575 165.242 67.5782C165.333 67.5989 165.415 67.6226 165.483 67.6462C165.553 67.6729 165.603 67.6993 165.635 67.729C165.665 67.7586 165.688 67.7911 165.703 67.8235C165.718 67.8591 165.73 67.9064 165.741 67.9684C165.753 68.0277 165.762 68.1193 165.768 68.2406C165.773 68.3618 165.777 68.5244 165.777 68.7314ZM172.308 73.5573C172.308 73.9949 172.226 74.3822 172.061 74.7194C171.9 75.0535 171.667 75.3315 171.367 75.5592C171.068 75.784 170.715 75.9525 170.306 76.0648C169.898 76.1772 169.457 76.2334 168.981 76.2334C168.693 76.2334 168.416 76.2127 168.155 76.1683C167.893 76.1239 167.661 76.0678 167.452 75.9998C167.246 75.9349 167.073 75.8667 166.935 75.7957C166.797 75.7249 166.697 75.6597 166.635 75.5976C166.57 75.5354 166.52 75.4408 166.488 75.3108C166.453 75.1837 166.435 74.9914 166.435 74.7372C166.435 74.5715 166.441 74.4383 166.453 74.338C166.464 74.2373 166.482 74.1546 166.503 74.0953C166.526 74.0364 166.556 73.9949 166.591 73.9742C166.623 73.9535 166.667 73.9446 166.72 73.9446C166.782 73.9446 166.876 73.9802 166.999 74.0542C167.123 74.128 167.276 74.2079 167.461 74.2935C167.643 74.3822 167.858 74.4651 168.102 74.539C168.346 74.6159 168.625 74.6544 168.934 74.6544C169.128 74.6544 169.304 74.6337 169.454 74.5922C169.607 74.5537 169.739 74.4947 169.851 74.4177C169.962 74.3438 170.048 74.2492 170.107 74.131C170.162 74.0156 170.192 73.8826 170.192 73.7318C170.192 73.5573 170.139 73.4094 170.033 73.2853C169.924 73.1611 169.783 73.0517 169.61 72.96C169.433 72.8683 169.233 72.7825 169.013 72.6997C168.792 72.6199 168.563 72.5312 168.331 72.4306C168.099 72.333 167.869 72.2207 167.649 72.0935C167.429 71.9666 167.229 71.8127 167.052 71.6263C166.879 71.4433 166.738 71.2182 166.629 70.961C166.523 70.7009 166.47 70.3874 166.47 70.0236C166.47 69.6539 166.544 69.3168 166.688 69.0063C166.832 68.6988 167.038 68.4326 167.308 68.214C167.582 67.9951 167.911 67.8235 168.299 67.7024C168.69 67.5811 169.125 67.522 169.61 67.522C169.854 67.522 170.086 67.5397 170.315 67.5722C170.542 67.6077 170.75 67.6522 170.932 67.7024C171.118 67.7556 171.273 67.8089 171.4 67.871C171.526 67.9301 171.617 67.9832 171.673 68.0246C171.729 68.0691 171.767 68.1106 171.791 68.1548C171.811 68.1992 171.829 68.2495 171.841 68.3115C171.853 68.3707 171.864 68.4477 171.873 68.5363C171.882 68.625 171.885 68.7373 171.885 68.8703C171.885 69.027 171.882 69.1544 171.873 69.2519C171.864 69.3494 171.85 69.4292 171.829 69.4854C171.809 69.5446 171.782 69.5831 171.747 69.6037C171.711 69.6245 171.67 69.6332 171.626 69.6332C171.573 69.6332 171.491 69.6037 171.382 69.5418C171.273 69.4825 171.135 69.4175 170.971 69.3494C170.806 69.2814 170.615 69.2163 170.4 69.1572C170.183 69.0952 169.936 69.0656 169.66 69.0656C169.463 69.0656 169.292 69.0863 169.148 69.1248C169.004 69.1661 168.887 69.2252 168.792 69.2991C168.701 69.3731 168.631 69.4618 168.587 69.5625C168.54 69.6628 168.516 69.7723 168.516 69.8845C168.516 70.0651 168.572 70.2158 168.681 70.3371C168.79 70.4582 168.934 70.5649 169.113 70.6564C169.289 70.748 169.495 70.8369 169.722 70.9166C169.948 70.9964 170.18 71.0852 170.412 71.1797C170.644 71.2743 170.877 71.3869 171.103 71.5139C171.329 71.6412 171.535 71.798 171.711 71.9812C171.891 72.1675 172.035 72.3863 172.144 72.6436C172.252 72.9007 172.308 73.2053 172.308 73.5573ZM185.748 74.3438C185.748 74.4888 185.745 74.613 185.736 74.7135C185.727 74.8139 185.712 74.9028 185.695 74.9737C185.68 75.0477 185.657 75.1097 185.627 75.163C185.598 75.2132 185.554 75.2723 185.489 75.3374C185.427 75.4025 185.304 75.4883 185.125 75.5918C184.942 75.6922 184.722 75.7929 184.46 75.8874C184.199 75.9791 183.902 76.0589 183.567 76.1209C183.231 76.1829 182.867 76.2156 182.476 76.2156C181.715 76.2156 181.027 76.0973 180.412 75.8607C179.798 75.6243 179.275 75.2694 178.846 74.7993C178.414 74.3291 178.084 73.7437 177.855 73.0369C177.626 72.333 177.511 71.5139 177.511 70.5796C177.511 69.6274 177.638 68.7817 177.89 68.0424C178.143 67.3033 178.496 66.6822 178.949 66.1795C179.401 65.677 179.945 65.2983 180.58 65.0382C181.212 64.7778 181.912 64.6477 182.676 64.6477C182.985 64.6477 183.281 64.6744 183.57 64.7276C183.858 64.7778 184.122 64.8458 184.366 64.9315C184.61 65.0144 184.828 65.1121 185.025 65.2214C185.219 65.3338 185.357 65.4284 185.433 65.5052C185.51 65.5852 185.563 65.6501 185.592 65.7005C185.621 65.7537 185.645 65.8187 185.66 65.8987C185.677 65.9814 185.692 66.0761 185.701 66.1854C185.71 66.2949 185.712 66.428 185.712 66.5905C185.712 66.7621 185.707 66.91 185.695 67.0311C185.683 67.1524 185.663 67.2498 185.636 67.3238C185.607 67.3977 185.571 67.454 185.533 67.4865C185.492 67.5219 185.445 67.5397 185.395 67.5397C185.31 67.5397 185.201 67.4893 185.069 67.3889C184.937 67.2884 184.766 67.1758 184.557 67.0518C184.349 66.9276 184.099 66.8153 183.808 66.7147C183.52 66.6142 183.176 66.564 182.773 66.564C182.332 66.564 181.938 66.6556 181.591 66.8359C181.244 67.0193 180.95 67.2765 180.706 67.6136C180.462 67.9538 180.277 68.3618 180.151 68.8408C180.025 69.3168 179.963 69.858 179.963 70.4582C179.963 71.1148 180.03 71.6855 180.166 72.1675C180.301 72.6465 180.492 73.0458 180.742 73.3562C180.989 73.6666 181.291 73.9004 181.644 74.0511C181.997 74.2049 182.394 74.2817 182.835 74.2817C183.235 74.2817 183.581 74.2344 183.875 74.1399C184.166 74.0453 184.416 73.9386 184.625 73.8264C184.837 73.7111 185.007 73.6075 185.142 73.5158C185.277 73.4242 185.38 73.3769 185.457 73.3769C185.513 73.3769 185.56 73.3887 185.592 73.4124C185.627 73.436 185.657 73.4805 185.68 73.5513C185.701 73.6194 185.718 73.7169 185.73 73.8411C185.742 73.9681 185.748 74.1338 185.748 74.3438ZM195.013 71.8008C195.013 72.4574 194.928 73.0574 194.755 73.6016C194.581 74.1427 194.322 74.6101 193.97 75.0032C193.62 75.3965 193.182 75.6981 192.653 75.9141C192.124 76.1269 191.506 76.2334 190.801 76.2334C190.116 76.2334 189.522 76.1387 189.016 75.9466C188.511 75.7574 188.091 75.4792 187.758 75.1156C187.426 74.7519 187.179 74.3055 187.018 73.7733C186.856 73.2438 186.777 72.6376 186.777 71.9546C186.777 71.2982 186.865 70.6949 187.038 70.1507C187.215 69.6037 187.476 69.1365 187.829 68.7461C188.179 68.359 188.617 68.0573 189.143 67.8413C189.666 67.6284 190.283 67.522 190.989 67.522C191.68 67.522 192.276 67.6166 192.782 67.8029C193.288 67.992 193.705 68.2672 194.034 68.6308C194.366 68.9945 194.61 69.4411 194.772 69.9734C194.934 70.5027 195.013 71.1119 195.013 71.8008ZM192.791 71.8866C192.791 71.5051 192.761 71.1533 192.7 70.8339C192.638 70.5115 192.538 70.2336 192.391 69.9971C192.247 69.7605 192.056 69.5741 191.818 69.4411C191.577 69.3079 191.277 69.243 190.912 69.243C190.589 69.243 190.307 69.3021 190.063 69.4205C189.822 69.5387 189.622 69.7132 189.466 69.9409C189.311 70.1685 189.193 70.4435 189.116 70.7628C189.037 71.0852 188.999 71.449 188.999 71.8601C188.999 72.2414 189.031 72.5934 189.093 72.9125C189.158 73.2349 189.261 73.5131 189.402 73.7495C189.543 73.986 189.734 74.1695 189.978 74.2995C190.219 74.4295 190.519 74.4947 190.877 74.4947C191.206 74.4947 191.492 74.4355 191.735 74.3173C191.977 74.199 192.176 74.0275 192.332 73.8026C192.488 73.5751 192.603 73.3031 192.679 72.9836C192.753 72.6612 192.791 72.2976 192.791 71.8866ZM208.958 75.7454C208.958 75.8015 208.941 75.852 208.905 75.8963C208.873 75.9407 208.814 75.9761 208.735 76.0056C208.653 76.0323 208.544 76.056 208.406 76.0709C208.268 76.0856 208.091 76.0916 207.879 76.0916C207.659 76.0916 207.48 76.0856 207.342 76.0709C207.203 76.056 207.092 76.0323 207.009 76.0056C206.927 75.9761 206.868 75.9405 206.836 75.8963C206.804 75.852 206.789 75.8018 206.789 75.7454V71.1622C206.789 70.9018 206.766 70.6653 206.715 70.4524C206.668 70.2365 206.592 70.0532 206.492 69.9023C206.392 69.7485 206.266 69.6303 206.116 69.5446C205.963 69.4618 205.784 69.4205 205.572 69.4205C205.313 69.4205 205.052 69.521 204.79 69.7249C204.526 69.926 204.24 70.2218 203.932 70.6061V75.7454C203.932 75.8016 203.914 75.852 203.879 75.8963C203.846 75.9407 203.788 75.9761 203.702 76.0056C203.62 76.0323 203.508 76.0561 203.37 76.0709C203.232 76.0856 203.059 76.0916 202.853 76.0916C202.638 76.0916 202.462 76.0856 202.324 76.0709C202.186 76.056 202.074 76.0323 201.992 76.0056C201.906 75.9761 201.848 75.9407 201.815 75.8963C201.78 75.852 201.762 75.8018 201.762 75.7454V71.1622C201.762 70.9018 201.739 70.6653 201.689 70.4524C201.642 70.2365 201.568 70.0532 201.469 69.9023C201.371 69.7485 201.245 69.6303 201.092 69.5446C200.936 69.4618 200.754 69.4205 200.548 69.4205C200.284 69.4205 200.022 69.521 199.758 69.7249C199.493 69.926 199.208 70.2218 198.905 70.6061V75.7454C198.905 75.8016 198.887 75.852 198.852 75.8963C198.82 75.9407 198.761 75.9761 198.676 76.0056C198.594 76.0323 198.482 76.056 198.347 76.0709C198.208 76.0856 198.032 76.0916 197.82 76.0916C197.609 76.0916 197.432 76.0856 197.294 76.0709C197.159 76.056 197.047 76.0323 196.965 76.0056C196.88 75.9761 196.821 75.9407 196.789 75.8963C196.753 75.852 196.736 75.8018 196.736 75.7454V68.0099C196.736 67.9538 196.75 67.9035 196.78 67.8591C196.806 67.8147 196.859 67.7793 196.933 67.7497C197.009 67.7231 197.103 67.6992 197.221 67.6846C197.338 67.6699 197.488 67.664 197.665 67.664C197.85 67.664 198 67.6699 198.12 67.6846C198.241 67.6992 198.335 67.7231 198.402 67.7497C198.467 67.7793 198.514 67.8147 198.544 67.8591C198.573 67.9033 198.588 67.954 198.588 68.0099V68.9029C199.011 68.4415 199.434 68.0985 199.857 67.8679C200.281 67.6373 200.722 67.522 201.18 67.522C201.498 67.522 201.783 67.5544 202.036 67.6226C202.288 67.6875 202.512 67.7822 202.712 67.9064C202.909 68.0306 203.079 68.1784 203.223 68.35C203.367 68.5244 203.488 68.7167 203.585 68.9295C203.814 68.6812 204.04 68.4681 204.261 68.2908C204.481 68.1133 204.702 67.9655 204.917 67.8531C205.131 67.7408 205.346 67.658 205.563 67.6047C205.778 67.5486 205.995 67.522 206.222 67.522C206.73 67.522 207.162 67.6077 207.512 67.7822C207.862 67.9538 208.144 68.1902 208.359 68.4889C208.576 68.7846 208.729 69.1336 208.82 69.5329C208.911 69.9318 208.958 70.352 208.958 70.7984V75.7454Z" fill="#1A1A18"/>
<path d="M218.678 71.5867C218.678 72.2729 218.605 72.8937 218.458 73.4439C218.314 73.9939 218.099 74.4641 217.817 74.8514C217.538 75.2387 217.188 75.5344 216.771 75.7444C216.35 75.9513 215.871 76.0549 215.333 76.0549C215.11 76.0549 214.904 76.0342 214.719 75.9898C214.531 75.9454 214.351 75.8804 214.175 75.7917C214.001 75.7 213.828 75.5907 213.655 75.4576C213.484 75.3245 213.305 75.1678 213.123 74.9903V78.6274C213.123 78.6867 213.105 78.7369 213.07 78.7842C213.037 78.8287 212.979 78.87 212.893 78.8995C212.811 78.932 212.699 78.9558 212.564 78.9734C212.426 78.9911 212.25 79 212.038 79C211.826 79 211.65 78.9911 211.512 78.9734C211.377 78.9558 211.265 78.932 211.183 78.8995C211.097 78.87 211.038 78.8287 211.006 78.7842C210.971 78.7369 210.953 78.6867 210.953 78.6274V67.8313C210.953 67.7753 210.968 67.725 210.997 67.6804C211.024 67.6362 211.074 67.6007 211.147 67.5711C211.218 67.5444 211.312 67.5208 211.432 67.5061C211.55 67.4913 211.697 67.4855 211.873 67.4855C212.047 67.4855 212.191 67.4913 212.308 67.5061C212.426 67.5208 212.523 67.5444 212.593 67.5711C212.664 67.6007 212.714 67.6362 212.743 67.6804C212.773 67.725 212.787 67.7753 212.787 67.8343V68.7451C213.011 68.5145 213.228 68.3104 213.446 68.1359C213.66 67.9585 213.878 67.8135 214.102 67.6953C214.328 67.5771 214.557 67.4884 214.795 67.4292C215.033 67.373 215.286 67.3435 215.557 67.3435C216.118 67.3435 216.597 67.4559 216.994 67.6776C217.388 67.8993 217.711 68.2041 217.961 68.5914C218.211 68.9756 218.393 69.4282 218.508 69.9427C218.622 70.4542 218.678 71.0043 218.678 71.5867ZM216.421 71.7376C216.421 71.4094 216.397 71.093 216.347 70.7913C216.3 70.4897 216.215 70.2207 216.097 69.984C215.98 69.7475 215.827 69.5582 215.636 69.4193C215.442 69.2773 215.204 69.2065 214.919 69.2065C214.775 69.2065 214.633 69.2272 214.492 69.2715C214.351 69.3158 214.21 69.3839 214.063 69.4843C213.916 69.5818 213.766 69.7091 213.613 69.8627C213.458 70.0195 213.293 70.2118 213.123 70.4424V72.9885C213.425 73.3728 213.716 73.6686 213.99 73.8786C214.266 74.0884 214.551 74.1919 214.848 74.1919C215.13 74.1919 215.368 74.121 215.565 73.9761C215.762 73.8312 215.927 73.6419 216.05 73.4113C216.177 73.1776 216.271 72.9144 216.329 72.6187C216.391 72.326 216.421 72.0303 216.421 71.7376ZM226.962 75.5936C226.962 75.6735 226.933 75.7356 226.877 75.7829C226.818 75.8302 226.727 75.8627 226.604 75.8835C226.48 75.9042 226.298 75.9131 226.054 75.9131C225.795 75.9131 225.607 75.9042 225.489 75.8835C225.372 75.8627 225.287 75.8302 225.239 75.7829C225.19 75.7356 225.166 75.6735 225.166 75.5936V74.9785C224.849 75.3187 224.49 75.5818 224.084 75.7711C223.681 75.9602 223.232 76.0549 222.738 76.0549C222.332 76.0549 221.956 76.0017 221.615 75.8952C221.274 75.7887 220.98 75.6291 220.73 75.4191C220.48 75.2062 220.286 74.946 220.148 74.6354C220.01 74.3221 219.942 73.9583 219.942 73.5444C219.942 73.0919 220.031 72.7016 220.204 72.3703C220.38 72.0362 220.642 71.7641 220.989 71.5454C221.336 71.3296 221.765 71.1698 222.282 71.0664C222.797 70.963 223.396 70.9097 224.078 70.9097H224.828V70.4424C224.828 70.2 224.804 69.987 224.754 69.8038C224.707 69.6233 224.625 69.4696 224.513 69.3483C224.402 69.2272 224.255 69.1383 224.067 69.0792C223.881 69.0231 223.649 68.9935 223.376 68.9935C223.014 68.9935 222.691 69.0349 222.409 69.1147C222.124 69.1945 221.874 69.2862 221.656 69.3839C221.439 69.4815 221.256 69.5731 221.109 69.6529C220.963 69.7327 220.845 69.7742 220.754 69.7742C220.689 69.7742 220.633 69.7534 220.586 69.7149C220.536 69.6736 220.495 69.6145 220.466 69.5406C220.433 69.4665 220.41 69.372 220.392 69.2626C220.375 69.1531 220.366 69.032 220.366 68.9018C220.366 68.7214 220.381 68.5795 220.41 68.4761C220.436 68.3725 220.492 68.2808 220.571 68.1952C220.654 68.1123 220.792 68.0206 220.995 67.9201C221.195 67.8196 221.43 67.725 221.7 67.6393C221.971 67.5505 222.265 67.4795 222.582 67.4262C222.902 67.3701 223.232 67.3435 223.57 67.3435C224.172 67.3435 224.687 67.4026 225.116 67.5208C225.542 67.6393 225.895 67.8224 226.168 68.0681C226.445 68.3134 226.647 68.6298 226.774 69.0171C226.9 69.4015 226.962 69.8627 226.962 70.3922V75.5936ZM224.828 72.2758H224.002C223.652 72.2758 223.355 72.3023 223.108 72.3527C222.861 72.406 222.661 72.4827 222.506 72.5891C222.35 72.6927 222.238 72.8169 222.168 72.9648C222.094 73.1126 222.059 73.2813 222.059 73.4704C222.059 73.7957 222.162 74.0499 222.365 74.2333C222.567 74.4197 222.85 74.5112 223.211 74.5112C223.514 74.5112 223.793 74.4344 224.049 74.2777C224.305 74.121 224.563 73.8934 224.828 73.5917V72.2758ZM236.463 75.5669C236.463 75.6232 236.445 75.6735 236.41 75.7178C236.377 75.7622 236.319 75.7975 236.239 75.8271C236.157 75.8538 236.045 75.8774 235.904 75.8924C235.763 75.9071 235.59 75.9131 235.384 75.9131C235.169 75.9131 234.993 75.9071 234.852 75.8924C234.711 75.8774 234.599 75.8538 234.517 75.8271C234.437 75.7975 234.379 75.7622 234.346 75.7178C234.311 75.6735 234.293 75.6232 234.293 75.5669V71.1579C234.293 70.7824 234.267 70.4868 234.211 70.2739C234.158 70.058 234.079 69.8747 233.976 69.7238C233.873 69.57 233.738 69.4518 233.576 69.3661C233.411 69.2832 233.223 69.242 233.006 69.242C232.73 69.242 232.453 69.3425 232.171 69.5464C231.892 69.7475 231.598 70.0433 231.295 70.4275V75.5669C231.295 75.6232 231.277 75.6735 231.242 75.7178C231.21 75.7622 231.151 75.7975 231.066 75.8271C230.983 75.8538 230.872 75.8774 230.736 75.8924C230.598 75.9071 230.422 75.9131 230.21 75.9131C229.999 75.9131 229.822 75.9071 229.684 75.8924C229.549 75.8774 229.437 75.8538 229.355 75.8271C229.269 75.7975 229.211 75.7622 229.179 75.7178C229.143 75.6735 229.126 75.6232 229.126 75.5669V67.8313C229.126 67.7753 229.14 67.725 229.17 67.6804C229.196 67.6362 229.249 67.6007 229.323 67.5711C229.399 67.5444 229.493 67.5208 229.611 67.5061C229.728 67.4913 229.878 67.4855 230.054 67.4855C230.24 67.4855 230.39 67.4913 230.51 67.5061C230.631 67.5208 230.725 67.5444 230.792 67.5711C230.857 67.6007 230.904 67.6362 230.934 67.6804C230.963 67.725 230.978 67.7753 230.978 67.8313V68.7243C231.401 68.263 231.833 67.9201 232.274 67.6894C232.712 67.4588 233.17 67.3435 233.647 67.3435C234.17 67.3435 234.611 67.4292 234.969 67.6037C235.328 67.7753 235.616 68.0117 235.84 68.3104C236.06 68.6061 236.219 68.9549 236.316 69.3543C236.413 69.7534 236.463 70.2325 236.463 70.7913V75.5669ZM242.712 75.8597L241.78 78.592C241.728 78.7369 241.589 78.8405 241.36 78.9054C241.131 78.9676 240.796 79 240.355 79C240.126 79 239.94 78.9911 239.805 78.9706C239.667 78.9498 239.564 78.9173 239.493 78.87C239.426 78.8227 239.388 78.7665 239.382 78.6984C239.376 78.6274 239.394 78.5447 239.435 78.4471L240.458 75.8597C240.384 75.8242 240.316 75.7711 240.258 75.7C240.196 75.6261 240.152 75.5492 240.122 75.4694L237.486 68.3608C237.412 68.1595 237.374 68.0028 237.374 67.8964C237.374 67.7899 237.409 67.7072 237.477 67.645C237.544 67.5859 237.662 67.5444 237.824 67.5208C237.988 67.4973 238.203 67.4855 238.473 67.4855C238.717 67.4855 238.911 67.4884 239.055 67.4973C239.2 67.5061 239.311 67.5297 239.391 67.5622C239.47 67.5979 239.532 67.651 239.57 67.725C239.611 67.7959 239.649 67.8993 239.69 68.0324L241.498 73.2073H241.525L243.165 67.929C243.2 67.7782 243.244 67.6776 243.3 67.6273C243.353 67.5801 243.444 67.5444 243.571 67.5208C243.697 67.4973 243.92 67.4855 244.235 67.4855C244.485 67.4855 244.69 67.4973 244.852 67.5208C245.017 67.5444 245.137 67.5859 245.217 67.651C245.293 67.7131 245.331 67.7988 245.331 67.9053C245.331 68.0117 245.311 68.1388 245.264 68.2838L242.712 75.8597Z" fill="#1A1A18"/>
</g>
<defs>
<clipPath id="clip0_1187_22961">
<rect width="246" height="90" fill="white"/>
</clipPath>
</defs>
</svg>
