<svg width="200" height="48" viewBox="0 0 200 48" fill="none" xmlns="http://www.w3.org/2000/svg">
<g clip-path="url(#clip0_1406_19228)">
<path d="M29.6512 9.96989L30.4354 10.6958L34.0949 6.58993L33.4812 6.02282C25.5258 -0.975289 14.9905 -2.03011 9.94444 3.67499C9.75123 3.8905 9.20572 4.66176 9.06934 4.80921C12.0356 1.44059 24.0142 5.01337 29.6512 9.96989Z" fill="white"/>
<path d="M31.0714 11.2397L30.435 10.6953L26.8096 14.8239C27.0823 15.0507 27.3665 15.2775 27.6278 15.5157C33.3103 20.4496 38.3677 31.8484 35.3901 35.2397C35.5265 35.0923 36.2311 34.4458 36.4129 34.2303C41.4362 28.5025 39.0496 18.2038 31.0714 11.2397Z" fill="white"/>
<path d="M26.1395 37.3273C26.6028 35.6757 26.5473 33.9219 25.9804 32.3028C24.8653 29.087 22.9023 26.2307 20.2979 24.0343L19.4683 23.3425L23.3096 19.0098L23.946 19.5428C31.9015 26.5523 34.2427 36.8623 29.1966 42.5674C24.1506 48.2725 13.6381 47.2177 5.6826 40.2083L5.02344 39.6979L8.66021 35.5807L9.4444 36.3179C15.1269 41.2744 22.0708 42.5561 25.0598 39.1761C25.543 38.6403 25.9105 38.011 26.1395 37.3273Z" fill="white"/>
<path d="M12.3766 31.1347L8.54661 35.4787C8.34204 35.2973 8.12611 35.1271 7.92154 34.9343C0.00018392 27.9362 -2.38645 17.6262 2.65958 11.9211C7.70561 6.21598 18.2409 7.2708 26.1963 14.2689L26.81 14.8247L23.2869 19.0099C23.0369 18.7604 22.6619 18.4542 22.3891 18.216C19.7259 15.7384 16.3818 14.1112 12.7857 13.543C11.0005 13.2655 9.17509 13.6443 7.64878 14.6092C7.31726 14.8084 7.02463 15.0658 6.78505 15.3691C3.79607 18.7717 5.94404 25.509 11.581 30.4769C11.8311 30.6924 12.1038 30.9192 12.3766 31.1347Z" fill="white"/>
<path d="M13.1157 14.5973H12.8316H12.3884C12.1878 14.586 11.9867 14.586 11.786 14.5973C10.4918 14.5414 9.21236 14.8903 8.12653 15.5955L7.95605 15.6295C9.18495 19.9811 11.7096 23.8573 15.1955 26.7448L15.8319 27.2892L19.4119 23.2741C19.1278 23.0586 18.7186 22.6616 18.4459 22.4234C15.9845 20.3511 14.1408 17.644 13.1157 14.5973Z" fill="white"/>
<path d="M25.1508 37.2594C25.1489 37.2216 25.1489 37.1838 25.1508 37.146C25.5591 35.7193 25.5354 34.2039 25.0826 32.7906L24.9689 32.5071L24.8667 32.1895C21.831 31.5836 19.0179 30.1642 16.7294 28.0836C16.468 27.8568 16.0247 27.5165 15.7747 27.2783L12.3652 31.1687L12.9676 31.7018C16.3959 34.7046 20.6321 36.6371 25.1508 37.2594Z" fill="white"/>
<path d="M138.243 11.3418V31.4514L152.222 11.3418H154.7V34.786H152.347V14.6537L138.368 34.786H135.891V11.3418H138.243Z" fill="white"/>
<path d="M161.553 11.3418V34.786H159.2V11.3418H161.553ZM172.224 11.3418H175.02L165.928 22.5252L175.361 34.7974H172.44L163.132 22.786L172.224 11.3418Z" fill="white"/>
<path d="M63.8482 12.3747V9.42578H61.4956V30.5335C60.4195 30.5892 59.3434 30.421 58.3358 30.0395C57.3283 29.6581 56.4112 29.0717 55.6428 28.3176C54.8744 27.5636 54.2715 26.6583 53.8724 25.6593C53.4732 24.6603 53.2866 23.5894 53.3243 22.5146C53.256 20.6668 53.8572 18.8562 55.0177 17.4147C56.1782 15.9732 57.8203 14.9973 59.6432 14.6659V12.5335C57.2202 12.8381 54.9956 14.0258 53.397 15.8683C51.7984 17.7107 50.9387 20.0778 50.9831 22.5146C50.9831 28.3558 55.4268 32.6318 61.4956 32.7226V36.0118H63.8482V14.4957C64.9234 14.4417 65.9982 14.6111 67.0045 14.9933C68.0107 15.3755 68.9264 15.9621 69.6935 16.716C70.4606 17.4699 71.0625 18.3746 71.461 19.3727C71.8594 20.3709 72.0458 21.4408 72.0082 22.5146C72.0773 24.3622 71.4781 26.173 70.32 27.6161C69.162 29.0592 67.5223 30.0384 65.7007 30.3747V32.5071C68.1225 32.1951 70.3443 31.0037 71.9418 29.1605C73.5393 27.3173 74.4004 24.9513 74.3607 22.5146C74.3607 16.6848 69.9057 12.4088 63.8482 12.3747Z" fill="white"/>
<path d="M107.376 21.028H103.807V23.149H107.41C111.501 23.149 112.49 26.0979 112.49 27.9013C112.49 29.7047 111.501 32.665 107.41 32.665H101.978V13.4514H112.411V11.3418H99.625V34.786H107.376C111.785 34.786 114.843 31.9959 114.843 27.9013C114.843 26.7331 114.581 21.028 107.376 21.028Z" fill="white"/>
<path d="M125.015 11.3418H117.582V34.786H119.935V13.4514H125.015C129.208 13.4514 130.697 15.856 130.697 18.3626C130.697 20.8692 129.174 23.2511 125.015 23.2511H121.753V25.372H125.015C130.959 25.372 133.118 21.856 133.118 18.3626C133.118 15.6972 131.913 11.3418 125.015 11.3418Z" fill="white"/>
<path d="M87.0213 11.3311H84.4188L74.2812 34.7866H76.827L77.7817 32.5749L83.2255 19.9171L85.7257 14.0532L90.2262 24.7942H83.1459L82.2253 26.9265H91.1468L94.5563 34.7866H97.0907L87.0213 11.3311Z" fill="white"/>
<path d="M189.931 11.3311H187.317L177.19 34.7866H179.725L180.691 32.5636L186.123 19.9171L188.624 14.0532L193.135 24.7942H186.044L185.135 26.9265H194.056L197.454 34.7866H200L189.931 11.3311Z" fill="white"/>
<path d="M55.6884 43.8711C55.6884 45.391 54.8361 46.4345 53.5746 46.4345C53.1561 46.4399 52.7476 46.3072 52.4126 46.0569C52.0776 45.8067 51.8348 45.4529 51.7221 45.0507V47.9997H51.3584V41.3645H51.6993V42.7029C51.8144 42.2968 52.0606 41.9399 52.3996 41.6876C52.7387 41.4354 53.1517 41.3019 53.5746 41.3078C54.8588 41.3078 55.6884 42.3399 55.6884 43.8711ZM55.3248 43.8711C55.3248 42.5328 54.5974 41.6027 53.5291 41.6027C52.4608 41.6027 51.7107 42.5101 51.7107 43.8711C51.7107 45.2322 52.4608 46.1396 53.5291 46.1396C54.5974 46.1396 55.3589 45.1982 55.3589 43.8711H55.3248Z" fill="white"/>
<path d="M57.0977 45.0168C57.0977 44.1661 57.7114 43.6784 58.882 43.5877L60.5981 43.4629V43.0206C60.6125 42.8312 60.585 42.641 60.5175 42.4635C60.45 42.286 60.3441 42.1254 60.2074 41.9933C60.0707 41.8612 59.9066 41.7608 59.7266 41.6992C59.5466 41.6376 59.3552 41.6163 59.1661 41.6368C58.8139 41.5965 58.4595 41.6912 58.1747 41.9018C57.8898 42.1124 57.6958 42.4231 57.6318 42.7711H57.2909C57.3423 42.3221 57.5695 41.9116 57.9228 41.629C58.2762 41.3465 58.7272 41.2147 59.1774 41.2625C59.4101 41.2375 59.6454 41.2633 59.8671 41.3381C60.0888 41.4129 60.2916 41.5349 60.4613 41.6956C60.631 41.8564 60.7637 42.0521 60.8501 42.2691C60.9365 42.4861 60.9746 42.7193 60.9617 42.9525V46.3552H60.6094V45.221C60.4535 45.5737 60.1941 45.871 59.8654 46.0735C59.5367 46.276 59.1541 46.3742 58.7683 46.3552C58.5697 46.382 58.3677 46.3683 58.1746 46.3148C57.9816 46.2612 57.8014 46.1691 57.6451 46.0439C57.4888 45.9187 57.3597 45.7631 57.2656 45.5865C57.1715 45.4099 57.1143 45.2161 57.0977 45.0168ZM60.5981 44.5177V43.7692L58.9274 43.8939C57.9728 43.962 57.4613 44.3476 57.4613 45.0281C57.4613 45.7087 58.0182 46.1624 58.8024 46.1624C59.0294 46.1761 59.257 46.1441 59.4713 46.0682C59.6857 45.9923 59.8826 45.8741 60.0502 45.7206C60.2178 45.5671 60.3527 45.3815 60.4468 45.1748C60.5409 44.9682 60.5924 44.7447 60.5981 44.5177Z" fill="white"/>
<path d="M62.3145 47.6374V46.0495H62.7122C63.0873 45.8 63.2464 45.0855 63.3259 44.2575C63.4055 43.4295 63.4964 41.9891 63.5305 41.3652H66.7468V46.0495H67.5764V47.6374H67.2355V46.3671H62.6895V47.6374H62.3145ZM66.3945 41.6374H63.8601C63.8601 42.2499 63.7351 43.5883 63.6669 44.2348C63.6712 44.8564 63.4977 45.4662 63.1668 45.9928H66.3945V41.6374Z" fill="white"/>
<path d="M68.9629 46.3671V41.3652H69.3266V45.8L72.4974 41.3652H72.8497V46.3671H72.4974V41.9664L69.3266 46.3671H68.9629Z" fill="white"/>
<path d="M74.4742 43.8712C74.4071 43.5418 74.4143 43.2015 74.4952 42.8752C74.5761 42.5488 74.7286 42.2445 74.9418 41.9842C75.155 41.7239 75.4234 41.5142 75.7278 41.3701C76.0322 41.2261 76.3648 41.1514 76.7017 41.1514C77.0385 41.1514 77.3712 41.2261 77.6756 41.3701C77.9799 41.5142 78.2484 41.7239 78.4616 41.9842C78.6748 42.2445 78.8273 42.5488 78.9082 42.8752C78.9891 43.2015 78.9962 43.5418 78.9292 43.8712C78.9962 44.2007 78.9891 44.5409 78.9082 44.8672C78.8273 45.1936 78.6748 45.4979 78.4616 45.7582C78.2484 46.0185 77.9799 46.2283 77.6756 46.3723C77.3712 46.5163 77.0385 46.5911 76.7017 46.5911C76.3648 46.5911 76.0322 46.5163 75.7278 46.3723C75.4234 46.2283 75.155 46.0185 74.9418 45.7582C74.7286 45.4979 74.5761 45.1936 74.4952 44.8672C74.4143 44.5409 74.4071 44.2007 74.4742 43.8712ZM78.5655 43.8712C78.5655 42.4875 77.8268 41.6028 76.7017 41.6028C75.5766 41.6028 74.8378 42.4534 74.8378 43.8712C74.8378 45.289 75.5766 46.1396 76.7017 46.1396C77.8268 46.1396 78.5655 45.2436 78.5655 43.8712Z" fill="white"/>
<path d="M83.8393 41.6828H82.0209V46.3671H81.6686V41.6828H79.8389V41.3652H83.8393V41.6828Z" fill="white"/>
<path d="M89.0217 44.9721C88.9121 45.4197 88.6455 45.8133 88.2703 46.0817C87.895 46.3501 87.4359 46.4755 86.976 46.4353C85.6235 46.4353 84.703 45.4825 84.703 43.8719C84.6615 43.5568 84.6868 43.2366 84.7772 42.9318C84.8677 42.6271 85.0213 42.3448 85.2281 42.1031C85.4349 41.8614 85.6903 41.6658 85.9777 41.529C86.2651 41.3921 86.5781 41.317 86.8964 41.3086C87.2009 41.3079 87.5021 41.3719 87.78 41.4963C88.0579 41.6207 88.3061 41.8026 88.5081 42.03C88.7102 42.2574 88.8615 42.525 88.952 42.8152C89.0425 43.1054 89.0701 43.4115 89.033 43.7131V43.9286H85.1121C85.1121 45.301 85.8622 46.095 86.9873 46.095C87.3536 46.1323 87.7213 46.0388 88.0251 45.8311C88.3289 45.6235 88.5491 45.3151 88.6466 44.9608L89.0217 44.9721ZM85.1235 43.6224H88.7148C88.74 43.3721 88.7129 43.1194 88.635 42.8801C88.5571 42.6409 88.4303 42.4204 88.2625 42.2327C88.0947 42.045 87.8897 41.8942 87.6604 41.7897C87.4311 41.6853 87.1825 41.6296 86.9305 41.6262C86.6787 41.6332 86.4308 41.691 86.202 41.7963C85.9732 41.9016 85.7681 42.052 85.5992 42.2386C85.4303 42.4252 85.3011 42.644 85.2193 42.8819C85.1376 43.1197 85.105 43.3716 85.1235 43.6224Z" fill="white"/>
<path d="M95.0224 43.8711C95.0224 45.391 94.1587 46.4345 92.9085 46.4345C92.4901 46.4399 92.0816 46.3072 91.7466 46.0569C91.4115 45.8067 91.1688 45.4529 91.0561 45.0507V47.9997H90.6924V41.3645H91.0333V42.7029C91.1484 42.2968 91.3946 41.9399 91.7336 41.6876C92.0727 41.4354 92.4857 41.3019 92.9085 41.3078C94.1587 41.3078 95.0224 42.3399 95.0224 43.8711ZM94.6587 43.8711C94.6587 42.5328 93.9314 41.6027 92.8631 41.6027C91.7948 41.6027 91.0447 42.5101 91.0447 43.8711C91.0447 45.2322 91.7834 46.1396 92.8631 46.1396C93.9427 46.1396 94.6587 45.1982 94.6587 43.8711Z" fill="white"/>
<path d="M96.3975 45.0174C96.3975 44.1668 97.0112 43.6791 98.1818 43.5883L99.8979 43.4636V43.0212C99.9123 42.8319 99.8848 42.6417 99.8173 42.4641C99.7498 42.2866 99.6439 42.1261 99.5072 41.994C99.3705 41.8619 99.2064 41.7615 99.0264 41.6998C98.8464 41.6382 98.655 41.6169 98.4659 41.6375C98.1137 41.5971 97.7593 41.6919 97.4745 41.9024C97.1896 42.113 96.9956 42.4237 96.9316 42.7717H96.602C96.6563 42.3239 96.8842 41.9152 97.2369 41.6332C97.5896 41.3512 98.0389 41.2184 98.4886 41.2632C98.7213 41.2382 98.9566 41.2639 99.1783 41.3387C99.4 41.4135 99.6027 41.5355 99.7725 41.6963C99.9422 41.857 100.075 42.0527 100.161 42.2697C100.248 42.4868 100.286 42.72 100.273 42.9532V46.3558H99.932V45.2216C99.7748 45.5734 99.5151 45.8697 99.1867 46.072C98.8582 46.2744 98.4764 46.3732 98.0908 46.3558C97.8905 46.386 97.6861 46.3748 97.4904 46.3228C97.2946 46.2709 97.1116 46.1793 96.9528 46.0538C96.794 45.9283 96.6627 45.7715 96.5672 45.5932C96.4717 45.4149 96.4139 45.2189 96.3975 45.0174ZM99.8979 44.5184V43.7698L98.2272 43.8946C97.2726 43.9626 96.7611 44.3482 96.7611 45.0288C96.7611 45.7093 97.318 46.163 98.1022 46.163C98.3293 46.1768 98.5568 46.1448 98.7711 46.0689C98.9855 45.993 99.1824 45.8747 99.35 45.7212C99.5176 45.5678 99.6525 45.3821 99.7466 45.1755C99.8407 44.9688 99.8922 44.7453 99.8979 44.5184Z" fill="white"/>
<path d="M105.535 41.6828H102.444V46.3671H102.08V41.3652H105.899V46.3671H105.535V41.6828Z" fill="white"/>
<path d="M111.775 44.9721C111.663 45.4185 111.396 45.8108 111.021 46.0788C110.646 46.3468 110.188 46.4732 109.729 46.4353C108.376 46.4353 107.456 45.4825 107.456 43.8719C107.414 43.5568 107.44 43.2366 107.53 42.9318C107.621 42.6271 107.774 42.3448 107.981 42.1031C108.188 41.8614 108.443 41.6658 108.731 41.529C109.018 41.3921 109.331 41.317 109.649 41.3086C109.954 41.3079 110.255 41.3719 110.533 41.4963C110.811 41.6207 111.059 41.8026 111.261 42.03C111.463 42.2574 111.614 42.525 111.705 42.8152C111.795 43.1054 111.823 43.4115 111.786 43.7131V43.9286H107.865C107.865 45.301 108.615 46.095 109.729 46.095C110.097 46.1328 110.466 46.0397 110.772 45.8322C111.077 45.6246 111.3 45.316 111.4 44.9608L111.775 44.9721ZM107.865 43.6224H111.468C111.493 43.3721 111.466 43.1194 111.388 42.8801C111.31 42.6409 111.183 42.4204 111.015 42.2327C110.848 42.045 110.643 41.8942 110.413 41.7897C110.184 41.6853 109.935 41.6296 109.683 41.6262C109.431 41.6332 109.183 41.6911 108.953 41.7962C108.724 41.9014 108.518 42.0516 108.349 42.238C108.179 42.4244 108.048 42.6431 107.965 42.881C107.882 43.1189 107.848 43.3711 107.865 43.6224Z" fill="white"/>
<path d="M113.434 41.3652H115.297C116.218 41.3652 116.798 41.8416 116.798 42.5902C116.802 42.8604 116.709 43.1231 116.536 43.3311C116.363 43.539 116.121 43.6785 115.854 43.7244C116.016 43.7243 116.177 43.7568 116.326 43.8201C116.475 43.8833 116.61 43.9759 116.723 44.0924C116.835 44.2089 116.923 44.3469 116.981 44.498C117.038 44.6491 117.065 44.8104 117.059 44.972C117.059 45.8794 116.423 46.3671 115.32 46.3671H113.434V41.3652ZM113.786 41.6942V43.6223H115.218C115.979 43.6223 116.445 43.2367 116.445 42.6129C116.445 41.9891 116.013 41.6942 115.309 41.6942H113.786ZM113.786 43.9626V46.0495H115.32C116.218 46.0495 116.707 45.6866 116.707 44.9153C116.707 44.1441 116.138 43.8945 115.241 43.8945L113.786 43.9626Z" fill="white"/>
<path d="M122.071 41.6828H120.253V46.3671H119.9V41.6828H118.082V41.3652H122.071V41.6828Z" fill="white"/>
<path d="M123.491 46.3671V41.3652H123.878V45.8L127.048 41.3652H127.412V46.3671H127.048V41.9664L123.866 46.3898L123.491 46.3671Z" fill="white"/>
<path d="M132.242 46.3671V43.8492C132.056 44.0574 131.826 44.2223 131.568 44.332C131.311 44.4418 131.033 44.4938 130.753 44.4843C130.515 44.5001 130.277 44.4642 130.054 44.3791C129.832 44.2939 129.63 44.1616 129.464 43.9912C129.298 43.8209 129.17 43.6165 129.091 43.3922C129.011 43.168 128.981 42.9292 129.003 42.6923V41.3652H129.355V42.6469C129.333 42.8361 129.351 43.0278 129.408 43.2096C129.465 43.3913 129.56 43.559 129.687 43.7014C129.813 43.8439 129.969 43.958 130.143 44.0363C130.317 44.1145 130.506 44.1551 130.696 44.1554C130.992 44.1645 131.284 44.0985 131.547 43.9636C131.809 43.8286 132.033 43.6292 132.197 43.3841V41.3652H132.56V46.3671H132.242Z" fill="white"/>
<path d="M138.47 44.9721C138.363 45.4188 138.099 45.8122 137.725 46.0807C137.352 46.3493 136.894 46.4751 136.436 46.4353C135.072 46.4353 134.163 45.4825 134.163 43.8719C134.121 43.555 134.147 43.2328 134.239 42.9266C134.331 42.6203 134.486 42.3369 134.696 42.0948C134.905 41.8528 135.163 41.6576 135.453 41.5221C135.743 41.3866 136.059 41.3139 136.379 41.3086C136.684 41.3079 136.985 41.3719 137.263 41.4963C137.54 41.6207 137.789 41.8026 137.991 42.03C138.193 42.2574 138.344 42.525 138.435 42.8152C138.525 43.1054 138.553 43.4115 138.516 43.7131V43.9286H134.561C134.561 45.301 135.299 46.095 136.425 46.095C136.792 46.1328 137.162 46.0397 137.467 45.8322C137.773 45.6246 137.995 45.316 138.095 44.9608L138.47 44.9721ZM134.572 43.6224H138.163C138.192 43.3715 138.168 43.1173 138.091 42.8765C138.014 42.6357 137.888 42.4138 137.719 42.2253C137.551 42.0368 137.344 41.886 137.113 41.7827C136.882 41.6795 136.632 41.6261 136.379 41.6262C136.128 41.6347 135.881 41.6937 135.653 41.7995C135.425 41.9053 135.22 42.0558 135.052 42.242C134.883 42.4282 134.754 42.6464 134.671 42.8836C134.589 43.1207 134.555 43.372 134.572 43.6224Z" fill="white"/>
<path d="M143.698 42.7711C143.594 42.4275 143.377 42.1287 143.082 41.923C142.788 41.7173 142.432 41.6165 142.073 41.6369C140.936 41.6369 140.232 42.5103 140.232 43.9054C140.232 45.3004 140.948 46.1738 142.084 46.1738C142.432 46.1979 142.778 46.1048 143.066 45.9094C143.355 45.7141 143.569 45.4277 143.675 45.0963H144.039C143.915 45.5129 143.65 45.8738 143.29 46.1177C142.929 46.3617 142.495 46.4736 142.062 46.4346C140.732 46.4346 139.868 45.4365 139.868 43.8713C139.868 42.3061 140.732 41.308 142.062 41.308C142.511 41.286 142.955 41.4196 143.317 41.6862C143.679 41.9528 143.938 42.336 144.05 42.7711H143.698Z" fill="white"/>
<path d="M149.279 46.3671H148.779L145.971 43.8832V46.3671H145.619V41.3652H145.971V43.6337L148.665 41.3652H149.154L146.335 43.7584L149.279 46.3671Z" fill="white"/>
<path d="M150.017 43.8712C149.95 43.5418 149.957 43.2015 150.038 42.8752C150.119 42.5488 150.272 42.2445 150.485 41.9842C150.698 41.7239 150.966 41.5142 151.271 41.3701C151.575 41.2261 151.908 41.1514 152.245 41.1514C152.582 41.1514 152.914 41.2261 153.219 41.3701C153.523 41.5142 153.791 41.7239 154.005 41.9842C154.218 42.2445 154.37 42.5488 154.451 42.8752C154.532 43.2015 154.539 43.5418 154.472 43.8712C154.539 44.2007 154.532 44.5409 154.451 44.8672C154.37 45.1936 154.218 45.4979 154.005 45.7582C153.791 46.0185 153.523 46.2283 153.219 46.3723C152.914 46.5163 152.582 46.5911 152.245 46.5911C151.908 46.5911 151.575 46.5163 151.271 46.3723C150.966 46.2283 150.698 46.0185 150.485 45.7582C150.272 45.4979 150.119 45.1936 150.038 44.8672C149.957 44.5409 149.95 44.2007 150.017 43.8712ZM154.109 43.8712C154.109 42.4875 153.37 41.6028 152.245 41.6028C151.12 41.6028 150.381 42.4534 150.381 43.8712C150.381 45.289 151.12 46.1396 152.245 46.1396C153.37 46.1396 154.143 45.2436 154.143 43.8712H154.109Z" fill="white"/>
<path d="M156.108 46.367V41.3651H156.461V45.7999L159.632 41.3651H159.995V46.367H159.632V41.9663L156.449 46.3897L156.108 46.367ZM157.177 39.3916C157.177 39.6473 157.278 39.8925 157.46 40.0733C157.641 40.2541 157.887 40.3557 158.143 40.3557C158.399 40.3557 158.645 40.2541 158.826 40.0733C159.007 39.8925 159.109 39.6473 159.109 39.3916H159.416C159.416 39.7285 159.281 40.0516 159.043 40.2899C158.804 40.5281 158.48 40.6619 158.143 40.6619C157.805 40.6619 157.481 40.5281 157.243 40.2899C157.004 40.0516 156.87 39.7285 156.87 39.3916H157.177Z" fill="white"/>
<path d="M167.815 41.6828H165.997V46.3671H165.633V41.6828H163.814V41.3652H167.815V41.6828Z" fill="white"/>
<path d="M172.997 44.9721C172.89 45.4209 172.624 45.8159 172.248 46.0847C171.872 46.3534 171.412 46.4779 170.952 46.4353C169.599 46.4353 168.679 45.4825 168.679 43.8719C168.637 43.5568 168.662 43.2366 168.753 42.9318C168.843 42.6271 168.997 42.3448 169.204 42.1031C169.41 41.8614 169.666 41.6658 169.953 41.529C170.241 41.3921 170.554 41.317 170.872 41.3086C171.177 41.3079 171.478 41.3719 171.756 41.4963C172.033 41.6207 172.282 41.8026 172.484 42.03C172.686 42.2574 172.837 42.525 172.928 42.8152C173.018 43.1054 173.046 43.4115 173.009 43.7131V43.9286H169.042C169.042 45.301 169.792 46.095 170.917 46.095C171.285 46.1305 171.653 46.0365 171.958 45.8293C172.263 45.6221 172.486 45.3148 172.588 44.9608L172.997 44.9721ZM169.099 43.6224H172.747C172.776 43.3724 172.752 43.1192 172.676 42.8792C172.6 42.6392 172.474 42.4178 172.307 42.2295C172.14 42.0412 171.935 41.8902 171.705 41.7862C171.475 41.6823 171.226 41.6277 170.974 41.6262C170.717 41.6256 170.463 41.6778 170.227 41.7796C169.991 41.8813 169.778 42.0304 169.602 42.2177C169.426 42.4049 169.291 42.6262 169.204 42.8679C169.118 43.1095 169.082 43.3663 169.099 43.6224Z" fill="white"/>
<path d="M175.986 44.1094L174.373 46.3779H173.952L175.793 43.8486L173.964 41.376H174.384L175.986 43.565L177.589 41.376H178.021L176.157 43.8259L177.975 46.3665H177.555L175.952 44.0981L175.986 44.1094Z" fill="white"/>
<path d="M182.896 43.9399H179.748V46.3671H179.396V41.3652H179.748V43.6337H182.896V41.3652H183.248V46.3671H182.896V43.9399Z" fill="white"/>
<path d="M185.101 46.3671V41.3652H185.453V45.8L188.635 41.3652H188.987V46.3671H188.658V41.9664L185.476 46.3898L185.101 46.3671Z" fill="white"/>
<path d="M194.545 46.3671H194.033L191.238 43.8832V46.3671H190.874V41.3652H191.238V43.6337L193.931 41.3652H194.409L191.601 43.7584L194.545 46.3671Z" fill="white"/>
<path d="M195.92 46.3671V41.3652H196.284V45.8L199.454 41.3652H199.807V46.3671H199.454V41.9664L196.284 46.3898L195.92 46.3671Z" fill="white"/>
</g>
<defs>
<clipPath id="clip0_1406_19228">
<rect width="200" height="48" fill="white"/>
</clipPath>
</defs>
</svg>
