<svg width="150" height="41" viewBox="0 0 150 41" fill="none" xmlns="http://www.w3.org/2000/svg">
<g clip-path="url(#clip0_5_170)">
<path d="M17.2388 0.388247C14.0966 0.39993 11.284 1.45971 9.36834 3.6228C9.19995 3.81199 8.71651 4.48996 8.59888 4.62813C11.2311 1.65565 21.7822 4.79684 26.7432 9.16192C26.9818 9.37212 27.2111 9.58565 27.4346 9.80249L30.6389 6.18323C30.4612 6.01741 30.2836 5.85245 30.0988 5.69081C26.1505 2.21594 21.4761 0.406255 17.3544 0.388247H17.2388Z" fill="url(#paint0_linear_5_170)"/>
<path d="M18.3439 41.0679H18.4561C21.5999 41.0565 24.412 39.9968 26.3282 37.8333C30.7746 32.8117 28.7013 23.7463 21.6978 17.5837C21.5138 17.4208 21.3282 17.2646 21.1412 17.1106L24.2449 13.4343C24.068 13.2689 23.8891 13.1048 23.7047 12.9419C19.7371 9.45028 15.0362 7.63974 10.8993 7.63974C7.73489 7.63899 4.90091 8.69867 2.97424 10.8739C1.39457 12.6576 0.637685 14.9508 0.632631 17.4438V17.4652C0.63048 21.9851 3.0965 27.1567 7.6051 31.1227C7.78865 31.2847 7.9751 31.4417 8.1608 31.5966L11.5071 27.8179C11.6777 27.974 11.852 28.1285 12.0305 28.2809C15.5049 31.2471 19.9001 32.9219 23.6097 33.2229C23.4136 33.815 23.1128 34.3521 22.7017 34.8157C20.0694 37.7885 13.9151 36.6584 8.95414 32.2938C8.71607 32.0836 8.48629 31.8696 8.26285 31.6536L5.05801 35.2729C5.23489 35.4387 5.41381 35.6037 5.59854 35.7657C9.54811 39.2402 14.2218 41.0503 18.3439 41.0679V41.0679ZM17.6811 20.8668C17.4388 20.6713 17.077 20.3234 16.839 20.1136C14.1903 17.783 12.5428 14.8337 11.8675 12.2946C14.533 12.5939 17.6214 14.0129 20.3491 16.4134C20.5877 16.6236 20.9182 16.8949 21.1412 17.1106L17.7625 20.9259C18.0049 21.1201 18.2473 21.3198 18.485 21.5296C21.0039 23.7463 22.729 26.3711 23.4733 28.8068C20.9169 28.4869 17.9802 27.3112 15.3835 25.0941C15.1504 24.8961 14.7669 24.5971 14.5477 24.3915L11.5336 27.7759C11.2941 27.5833 11.0539 27.3852 10.8182 27.1772C5.8565 22.8125 3.96973 16.8635 6.6008 13.8916C6.82166 13.642 7.06865 13.4238 7.33629 13.2316C8.14984 16.9377 10.4297 20.8014 13.9752 23.92C14.1592 24.0817 14.3452 24.2387 14.5318 24.3931L17.6811 20.8668" fill="url(#paint1_linear_5_170)"/>
<path d="M24.2449 13.4344C24.4893 13.6274 24.7304 13.8276 24.9698 14.0349C29.948 18.3802 34.4254 28.4095 31.8049 31.3928C31.9276 31.2593 32.5395 30.6932 32.7067 30.5039C37.1321 25.4643 35.0214 16.4072 27.9936 10.2727C27.8092 10.1115 27.6232 9.95534 27.435 9.80249L24.2449 13.4344Z" fill="url(#paint2_linear_5_170)"/>
<path d="M7.35767 13.2167C8.16745 16.926 10.4491 20.7957 13.9983 23.9185C14.1819 24.0804 14.3679 24.2375 14.5552 24.3916L17.7038 20.8643C17.461 20.6705 17.0993 20.3213 16.8616 20.1107C14.2095 17.7777 12.5618 14.8232 11.8872 12.2817C11.5613 12.249 11.2353 12.2318 10.9119 12.2318C9.59681 12.2318 8.33509 12.5158 7.35767 13.2167" fill="url(#paint3_linear_5_170)"/>
<path d="M11.5248 27.8112C11.6982 27.9691 11.8738 28.1248 12.0532 28.278C15.528 31.2446 19.9236 32.9199 23.6328 33.2209C24.0924 31.7508 23.9457 30.3721 23.4976 28.8052C20.9422 28.4862 18.0028 27.3096 15.4066 25.0921C15.1739 24.8932 14.7905 24.5959 14.5708 24.3899L11.5248 27.8112Z" fill="url(#paint4_linear_5_170)"/>
<path d="M104.954 9.06097V23.8092L115.204 9.06097H117.023V26.2473H115.298V11.5L105.046 26.2473H103.23V9.06097H104.954Z" fill="#266090"/>
<path d="M129.88 9.06097H131.93L125.289 17.2594L132.209 26.2473H130.066L123.24 17.4452L129.88 9.06097ZM122.051 26.2473H120.327V9.06097H122.051V26.2473Z" fill="#266090"/>
<path d="M50.3856 9.82754V7.66735H48.6614V23.1349C44.9576 23.1584 42.6739 20.487 42.6739 17.2592C42.6739 14.4471 44.4073 12.0601 47.3017 11.5053V9.94309C43.564 10.5305 40.9501 13.436 40.9501 17.2592C40.9501 21.5325 44.2121 24.6678 48.6614 24.6909V27.106H50.3856V26.8694V24.6909V23.1349V12.3029V11.3825C54.0898 11.3603 56.3735 14.0305 56.3735 17.2592C56.3735 20.0712 54.6396 22.4583 51.7449 23.0119V24.5749C55.4822 23.9874 58.0973 21.0824 58.0973 17.2592C58.0973 12.9862 54.835 9.85048 50.3856 9.82754" fill="#266090"/>
<path d="M82.3132 16.1677H79.698V17.7233H82.3363C85.3424 17.7233 86.064 19.8842 86.064 21.2078C86.064 22.5308 85.3424 24.6915 82.3363 24.6915H78.3523V24.6704H78.3376V10.6174H78.3523V10.6165H85.9938V9.06097H76.6285V26.2473H82.3132C85.5511 26.2473 87.7878 24.2036 87.7878 21.2078C87.7878 20.3481 87.6012 16.1677 82.3132 16.1677" fill="#266090"/>
<path d="M95.2517 9.06097H89.8002V26.2473H91.5244V19.3496V17.7932V10.6169H92.8839H95.2753C98.3506 10.6169 99.4689 12.3827 99.4689 14.217C99.4689 16.0048 98.3506 17.7932 95.2753 17.7932H92.8839V19.3496H95.2517C99.6087 19.3496 101.193 16.772 101.193 14.217C101.193 12.2658 100.308 9.06097 95.2517 9.06097" fill="#266090"/>
<path d="M67.3875 9.06097H65.4764L58.0452 26.2473H59.9085L60.6108 24.6252L64.5997 15.3584L66.4319 11.0578L69.7401 18.9321H64.5409L63.871 20.488H70.4163L72.9092 26.2473H74.7729L67.3875 9.06097" fill="#266090"/>
<path d="M142.861 9.06097H140.951L133.518 26.2473H135.382L136.086 24.6215L140.073 15.3584L141.905 11.0578L145.214 18.9321H140.014L139.345 20.488H145.89L148.383 26.2473H150.246L142.861 9.06097" fill="#266090"/>
<path d="M44.6228 32.2205C44.094 32.2205 43.624 32.4797 43.4107 32.8883H43.393V32.2565H42.6609V37.3032H43.4208V35.4237H43.435C43.663 35.8423 44.094 36.0848 44.6405 36.0848C45.5965 36.0848 46.2282 35.3227 46.2282 34.1504C46.2282 32.9792 45.5927 32.2205 44.6228 32.2205ZM44.43 35.4404C43.8236 35.4404 43.4182 34.9253 43.4144 34.1528C43.4182 33.3832 43.8273 32.8648 44.43 32.8648C45.0471 32.8648 45.4528 33.3728 45.4528 34.1528C45.4528 34.9363 45.0471 35.4404 44.43 35.4404" fill="#7B7979"/>
<path d="M48.238 35.4836C47.7991 35.4836 47.5157 35.2739 47.5157 34.9468C47.5157 34.6098 47.7861 34.4163 48.3048 34.3841L49.231 34.3208V34.6202C49.231 35.1223 48.8025 35.4836 48.238 35.4836V35.4836ZM48.0348 36.085C48.5539 36.085 49.0273 35.827 49.2381 35.4171H49.2562V36.0489H49.9774V33.4446C49.9774 32.6934 49.3818 32.2064 48.4522 32.2064C47.5954 32.2064 46.9582 32.7 46.9364 33.3704H47.6483C47.7151 33.0426 48.0167 32.8291 48.4304 32.8291C48.9404 32.8291 49.231 33.0664 49.231 33.5006V33.7938L48.2032 33.8532C47.2628 33.9118 46.7474 34.2937 46.7474 34.959C46.7474 35.6398 47.274 36.085 48.0348 36.085" fill="#7B7979"/>
<path d="M53.3435 35.4478H51.5925V35.4202C51.7705 35.1757 51.8617 34.7801 51.8935 34.3291L52.0015 32.8506H53.3435V35.4478ZM51.1547 37.0444V36.0487H53.9912V37.0444H54.6918V35.4478H54.0903V32.2565H51.3471L51.2073 34.2981C51.1716 34.8085 51.046 35.2737 50.7658 35.4478H50.4584V37.0444H51.1547Z" fill="#7B7979"/>
<path d="M55.972 36.0488L57.7605 33.3573H57.7878V36.0488H58.5346V32.2566H57.7878L55.9997 34.9383H55.972V32.2566H55.2256V36.0488H55.972" fill="#7B7979"/>
<path d="M61.0098 36.0916C62.1128 36.0916 62.8067 35.3437 62.8067 34.1505C62.8067 32.958 62.109 32.2064 61.0098 32.2064C59.9115 32.2064 59.2104 32.9617 59.2104 34.1505C59.2104 35.3437 59.9077 36.0916 61.0098 36.0916ZM61.0098 35.4622C60.3638 35.4622 59.9787 34.9777 59.9787 34.1505C59.9787 33.3277 60.3638 32.8361 61.0098 32.8361C61.6558 32.8361 62.0389 33.3239 62.0389 34.1505C62.0389 34.9777 61.6558 35.4622 61.0098 35.4622Z" fill="#7B7979"/>
<path d="M66.3093 32.2566H63.1582V32.8574H64.3604V36.0488H65.1067V32.8574H66.3093V32.2566Z" fill="#7B7979"/>
<path d="M68.4136 32.8218C68.9685 32.8218 69.3439 33.2154 69.3608 33.8092H67.4265C67.4686 33.2225 67.8655 32.8218 68.4136 32.8218V32.8218ZM69.3574 34.9375C69.252 35.2676 68.9055 35.4765 68.4628 35.4765C67.837 35.4765 67.4232 35.0447 67.4232 34.3912V34.346H70.1219V34.0813C70.1219 32.927 69.4629 32.2064 68.417 32.2064C67.3489 32.2064 66.655 32.976 66.655 34.1685C66.655 35.3513 67.3417 36.0916 68.4485 36.0916C69.3049 36.0916 69.9749 35.616 70.0824 34.9375H69.3574" fill="#7B7979"/>
<path d="M72.7596 32.2205C72.2308 32.2205 71.7608 32.4797 71.5479 32.8883H71.5298V32.2565H70.7977V37.3032H71.5575V35.4237H71.5718C71.8002 35.8423 72.2308 36.0848 72.7777 36.0848C73.7337 36.0848 74.365 35.3227 74.365 34.1504C74.365 32.9792 73.7299 32.2205 72.7596 32.2205V32.2205ZM72.5672 35.4404C71.9607 35.4404 71.555 34.9253 71.5516 34.1528C71.555 33.3832 71.9641 32.8648 72.5672 32.8648C73.1842 32.8648 73.59 33.3728 73.59 34.1528C73.59 34.9363 73.1842 35.4404 72.5672 35.4404Z" fill="#7B7979"/>
<path d="M76.3752 35.4836C75.9363 35.4836 75.6528 35.2739 75.6528 34.9468C75.6528 34.6098 75.9229 34.4163 76.442 34.3841L77.3681 34.3208V34.6202C77.3681 35.1223 76.9397 35.4836 76.3752 35.4836V35.4836ZM76.1716 36.085C76.6907 36.085 77.1645 35.827 77.3749 35.4171H77.393V36.0489H78.1146V33.4446C78.1146 32.6934 77.5186 32.2064 76.5894 32.2064C75.7326 32.2064 75.095 32.7 75.0736 33.3704H75.7851C75.8523 33.0426 76.1538 32.8291 76.5676 32.8291C77.0771 32.8291 77.3681 33.0664 77.3681 33.5006V33.7938L76.3404 33.8532C75.4 33.9118 74.8846 34.2937 74.8846 34.959C74.8846 35.6398 75.4108 36.085 76.1716 36.085" fill="#7B7979"/>
<path d="M81.416 36.0488H82.1699V32.2566H78.947V36.0488H79.7006V32.8574H81.416V36.0488Z" fill="#7B7979"/>
<path d="M84.6019 32.8218C85.1568 32.8218 85.5327 33.2154 85.549 33.8092H83.6148C83.6569 33.2225 84.0537 32.8218 84.6019 32.8218V32.8218ZM85.5457 34.9375C85.4403 35.2676 85.0937 35.4765 84.6511 35.4765C84.0252 35.4765 83.6115 35.0447 83.6115 34.3912V34.346H86.3102V34.0813C86.3102 32.927 85.6512 32.2064 84.6052 32.2064C83.5372 32.2064 82.8432 32.976 82.8432 34.1685C82.8432 35.3513 83.53 36.0916 84.6367 36.0916C85.4932 36.0916 86.1631 35.616 86.2706 34.9375H85.5457" fill="#7B7979"/>
<path d="M88.5568 32.8134C88.9361 32.8134 89.1466 32.9913 89.1466 33.3121C89.1466 33.6492 88.9231 33.8166 88.4733 33.8166H87.7323V32.8134H88.5568ZM88.5258 34.353C89.0449 34.353 89.3045 34.5414 89.3045 34.9267C89.3045 35.2951 89.063 35.4907 88.6203 35.4907H87.7323V34.353H88.5258ZM86.986 36.0488H88.7185C89.5426 36.0488 90.058 35.6267 90.058 34.9551C90.058 34.4782 89.7291 34.1298 89.2423 34.067V34.0393C89.6061 33.9703 89.8859 33.6149 89.8859 33.2213C89.8859 32.625 89.4373 32.2577 88.7018 32.2577H86.986V36.0488" fill="#7B7979"/>
<path d="M93.5732 32.2566H90.4222V32.8574H91.6242V36.0488H92.371V32.8574H93.5732V32.2566Z" fill="#7B7979"/>
<path d="M94.8936 36.0488L96.6817 33.3573H96.7097V36.0488H97.4559V32.2566H96.7097L94.9215 34.9383H94.8936V32.2566H94.1473V36.0488H94.8936" fill="#7B7979"/>
<path d="M101.347 36.0488V32.2566H100.594V33.6567C100.503 33.7924 100.227 34.1026 99.6764 34.1026C99.2258 34.1026 98.9646 33.8032 98.9646 33.325V32.2566H98.2183V33.3774C98.2183 34.204 98.7065 34.7466 99.5312 34.7466C100.033 34.7466 100.359 34.5544 100.567 34.3459H100.594V36.0488H101.347" fill="#7B7979"/>
<path d="M103.785 32.8218C104.34 32.8218 104.715 33.2154 104.731 33.8092H102.798C102.84 33.2225 103.237 32.8218 103.785 32.8218ZM104.728 34.9375C104.623 35.2676 104.276 35.4765 103.833 35.4765C103.208 35.4765 102.794 35.0447 102.794 34.3912V34.346H105.493V34.0813C105.493 32.927 104.833 32.2064 103.788 32.2064C102.719 32.2064 102.026 32.976 102.026 34.1685C102.026 35.3513 102.713 36.0916 103.819 36.0916C104.675 36.0916 105.345 35.616 105.453 34.9375H104.728" fill="#7B7979"/>
<path d="M109.403 33.4612C109.302 32.7695 108.705 32.2064 107.776 32.2064C106.701 32.2064 105.997 32.9684 105.997 34.1492C105.997 35.3513 106.705 36.0916 107.784 36.0916C108.667 36.0916 109.295 35.5958 109.411 34.8479H108.677C108.565 35.2391 108.254 35.4547 107.787 35.4547C107.177 35.4547 106.765 34.9661 106.765 34.1492C106.765 33.3523 107.17 32.8432 107.784 32.8432C108.27 32.8432 108.575 33.1045 108.67 33.4612H109.403Z" fill="#7B7979"/>
<path d="M111.548 34.0406L113.243 32.2566H112.341L110.823 33.8878H110.795V32.2566H110.041V36.0488H110.795V34.2851H110.823L112.357 36.0488H113.306L111.548 34.0406Z" fill="#7B7979"/>
<path d="M115.376 36.0916C116.48 36.0916 117.173 35.3437 117.173 34.1505C117.173 32.958 116.476 32.2064 115.376 32.2064C114.279 32.2064 113.577 32.9617 113.577 34.1505C113.577 35.3437 114.274 36.0916 115.376 36.0916ZM115.376 35.4622C114.731 35.4622 114.345 34.9777 114.345 34.1505C114.345 33.3277 114.731 32.8361 115.376 32.8361C116.023 32.8361 116.405 33.3239 116.405 34.1505C116.405 34.9777 116.023 35.4622 115.376 35.4622Z" fill="#7B7979"/>
<path d="M118.36 30.5917C118.36 31.2524 118.828 31.6984 119.522 31.6984C120.218 31.6984 120.686 31.2524 120.686 30.5917H120.176C120.173 30.9866 119.922 31.2835 119.522 31.2835C119.125 31.2835 118.873 30.9866 118.87 30.5917H118.36ZM118.604 36.0488L120.393 33.3573H120.42V36.0488H121.167V32.2566H120.42L118.632 34.9383H118.604V32.2566H117.858V36.0488H118.604" fill="#7B7979"/>
<path d="M126.544 32.2566H123.394V32.8574H124.596V36.0488H125.342V32.8574H126.544V32.2566" fill="#7B7979"/>
<path d="M128.648 32.8218C129.203 32.8218 129.58 33.2154 129.596 33.8092H127.661C127.703 33.2225 128.101 32.8218 128.648 32.8218ZM129.593 34.9375C129.487 35.2676 129.14 35.4765 128.698 35.4765C128.072 35.4765 127.658 35.0447 127.658 34.3912V34.346H130.357V34.0813C130.357 32.927 129.698 32.2064 128.652 32.2064C127.584 32.2064 126.889 32.976 126.889 34.1685C126.889 35.3513 127.576 36.0916 128.683 36.0916C129.54 36.0916 130.21 35.616 130.317 34.9375H129.593" fill="#7B7979"/>
<path d="M132.451 34.6415L133.302 36.0488H134.14L132.899 34.129L134.154 32.2566H133.321L132.482 33.6362H132.465L131.621 32.2566H130.769L132.019 34.1562L130.754 36.0488H131.579L132.432 34.6415H132.451" fill="#7B7979"/>
<path d="M137.225 36.0488H137.979V32.2566H137.225V33.7878H135.473V32.2566H134.719V36.0488H135.473V34.389H137.225V36.0488" fill="#7B7979"/>
<path d="M139.57 36.0488L141.359 33.3573H141.386V36.0488H142.133V32.2566H141.386L139.598 34.9383H139.57V32.2566H138.824V36.0488H139.57" fill="#7B7979"/>
<path d="M144.489 34.0406L146.184 32.2566H145.281L143.762 33.8878H143.734V32.2566H142.982V36.0488H143.734V34.2851H143.762L145.298 36.0488H146.247L144.489 34.0406Z" fill="#7B7979"/>
<path d="M147.491 36.0488L149.28 33.3573H149.308V36.0488H150.054V32.2566H149.308L147.519 34.9383H147.491V32.2566H146.745V36.0488H147.491" fill="#7B7979"/>
</g>
<defs>
<linearGradient id="paint0_linear_5_170" x1="-1.48234" y1="29.8909" x2="23.6033" y2="0.528805" gradientUnits="userSpaceOnUse">
<stop stop-color="#6EC43C"/>
<stop offset="0.492188" stop-color="#2EB4E0"/>
<stop offset="1" stop-color="#266092"/>
</linearGradient>
<linearGradient id="paint1_linear_5_170" x1="4.48016" y1="35.4894" x2="26.1742" y2="6.1476" gradientUnits="userSpaceOnUse">
<stop stop-color="#6EC43C"/>
<stop offset="0.492188" stop-color="#2EB4E0"/>
<stop offset="1" stop-color="#266092"/>
</linearGradient>
<linearGradient id="paint2_linear_5_170" x1="15.5883" y1="41.2866" x2="33.1077" y2="11.9608" gradientUnits="userSpaceOnUse">
<stop stop-color="#6EC43C"/>
<stop offset="0.492188" stop-color="#2EB4E0"/>
<stop offset="1" stop-color="#266092"/>
</linearGradient>
<linearGradient id="paint3_linear_5_170" x1="9.25885" y1="13.6131" x2="23.4593" y2="32.5732" gradientUnits="userSpaceOnUse">
<stop stop-color="#21415D"/>
<stop offset="1" stop-color="#217CA2"/>
</linearGradient>
<linearGradient id="paint4_linear_5_170" x1="7.57206" y1="14.9685" x2="21.3667" y2="33.9198" gradientUnits="userSpaceOnUse">
<stop stop-color="#21415D"/>
<stop offset="1" stop-color="#217CA2"/>
</linearGradient>
<clipPath id="clip0_5_170">
<rect width="150" height="41" fill="white"/>
</clipPath>
</defs>
</svg>
