<svg width="248" height="115" viewBox="0 0 248 115" fill="none" xmlns="http://www.w3.org/2000/svg">
<path d="M49.9219 92H64.9688L41.4375 24.3594H24.7969L1.3125 92H15.8438L21 75.5938H44.7656L49.9219 92ZM32.7188 37.2969H33.0469L41.7188 65H24.0469L32.7188 37.2969ZM86.0625 35.4219H98.3438C105.375 35.4219 109.781 39.6406 109.781 46.2031C109.781 52.9062 105.609 56.9844 98.4844 56.9844H86.0625V35.4219ZM86.0625 67.25H97.6406L110.25 92H126.281L112.031 65.1406C119.812 62.0938 124.312 54.5938 124.312 45.9219C124.312 32.5625 115.406 24.3594 99.8438 24.3594H71.9062V92H86.0625V67.25ZM147.75 92V24.3594H133.594V92H147.75ZM203.297 92H218.344L194.812 24.3594H178.172L154.688 92H169.219L174.375 75.5938H198.141L203.297 92ZM186.094 37.2969H186.422L195.094 65H177.422L186.094 37.2969Z" fill="black"/>
<path d="M235.818 34.6914C234.342 36.1445 232.537 36.8711 230.404 36.8711C228.271 36.8711 226.461 36.1445 224.973 34.6914C223.496 33.2266 222.758 31.4512 222.758 29.3652C222.758 27.2676 223.496 25.4922 224.973 24.0391C226.461 22.5859 228.271 21.8594 230.404 21.8594C232.537 21.8594 234.342 22.5859 235.818 24.0391C237.307 25.4922 238.051 27.2676 238.051 29.3652C238.051 31.4629 237.307 33.2383 235.818 34.6914ZM230.404 35.2539C232.057 35.2539 233.451 34.6855 234.588 33.5488C235.725 32.4004 236.293 31.0059 236.293 29.3652C236.293 27.7129 235.725 26.3184 234.588 25.1816C233.451 24.0449 232.057 23.4766 230.404 23.4766C228.764 23.4766 227.369 24.0449 226.221 25.1816C225.084 26.3184 224.516 27.7129 224.516 29.3652C224.516 31.0059 225.084 32.4004 226.221 33.5488C227.369 34.6855 228.764 35.2539 230.404 35.2539ZM228.91 32.7051H227.398V25.5332H230.914C231.652 25.5332 232.256 25.7383 232.725 26.1484C233.205 26.5586 233.445 27.0801 233.445 27.7129C233.445 28.2871 233.293 28.7617 232.988 29.1367C232.684 29.5117 232.273 29.7402 231.758 29.8223L233.797 32.7051H231.898L230.158 30.0508H228.91V32.7051ZM228.91 26.7988V28.873H230.615C230.99 28.873 231.283 28.7793 231.494 28.5918C231.705 28.3926 231.811 28.123 231.811 27.7832C231.811 27.127 231.43 26.7988 230.668 26.7988H228.91Z" fill="black"/>
</svg>
