<svg width="401" height="116" viewBox="0 0 401 116" fill="none" xmlns="http://www.w3.org/2000/svg">
<path d="M0.492188 42.2227V42.0191C0.492188 20.7459 16.171 3.03516 38.0811 3.03516C51.5487 3.03516 59.6897 7.92088 67.127 14.9441L61.3983 21.153C55.1669 15.1476 48.1316 10.8727 37.9806 10.8727C21.4977 10.8727 9.23612 24.4102 9.23612 41.7137V41.9173C9.23612 59.3227 21.6988 73.0637 37.9806 73.0637C48.1316 73.0637 54.8654 69.0941 62.0013 62.1727L67.5291 67.6691C59.7902 75.6084 51.2472 80.9012 37.7796 80.9012C16.2715 81.003 0.492188 63.903 0.492188 42.2227Z" fill="black"/>
<path d="M75.1685 1.20312H83.3094V79.7817H75.1685V1.20312Z" fill="black"/>
<path d="M96.3745 2.72949H105.721V11.8902H96.3745V2.72949ZM96.877 24.1045H105.018V79.7813H96.877V24.1045Z" fill="black"/>
<path d="M117.782 24.1052H125.923V33.7749C129.541 27.7695 135.27 22.8838 144.718 22.8838C157.984 22.8838 165.723 31.9427 165.723 45.1749V79.6802H157.582V47.2106C157.582 36.9302 152.054 30.4159 142.406 30.4159C132.958 30.4159 125.923 37.4391 125.923 47.8213V79.6802H117.782V24.1052Z" fill="black"/>
<path d="M172.757 63.5984V63.3948C172.757 51.4859 182.305 45.1752 196.275 45.1752C203.311 45.1752 208.135 46.193 213.06 47.5163V45.7859C213.06 35.9127 207.13 30.7216 196.778 30.7216C190.245 30.7216 185.22 32.3502 180.094 34.6913L177.682 27.8716C183.712 25.1234 189.542 23.1895 197.683 23.1895C205.421 23.1895 211.452 25.327 215.371 29.2966C219.191 33.1645 221.1 38.5591 221.1 45.6841V79.6805H213.06V71.4359C209.241 76.4234 203.009 80.902 193.26 80.902C183.009 80.902 172.757 74.9984 172.757 63.5984ZM213.16 59.2216V54.0305C209.14 52.8091 203.813 51.6894 197.08 51.6894C186.929 51.6894 180.999 56.168 180.999 62.8859V63.0895C180.999 70.1127 187.331 74.1841 194.768 74.1841C205.019 74.1841 213.16 68.077 213.16 59.2216Z" fill="black"/>
<path d="M228.638 52.1978V51.9943C228.638 36.3193 240.698 22.9854 256.779 22.9854C267.232 22.9854 273.664 27.3621 278.79 32.8585L273.362 38.6603C269.041 34.08 264.116 30.3139 256.679 30.3139C245.523 30.3139 236.98 39.8818 236.98 51.7907V51.9943C236.98 64.005 245.724 73.6746 257.181 73.6746C264.216 73.6746 269.644 70.1121 273.965 65.43L279.192 70.4175C273.664 76.6264 267.031 81.2068 256.779 81.2068C240.799 81.0032 228.638 67.771 228.638 52.1978Z" fill="black"/>
<path d="M209.541 112.455L211.35 110.216C213.059 111.641 214.667 112.557 216.878 112.557C218.787 112.557 219.994 111.641 219.994 110.318C219.994 109.096 219.29 108.384 216.074 107.57C212.355 106.654 210.245 105.534 210.245 102.277C210.245 99.2232 212.757 97.1875 216.174 97.1875C218.687 97.1875 220.697 98.0018 222.506 99.4268L220.898 101.768C219.29 100.546 217.782 99.9357 216.174 99.9357C214.365 99.9357 213.36 100.852 213.36 102.073C213.36 103.396 214.164 104.007 217.481 104.821C221.2 105.737 223.109 107.061 223.109 110.013V110.114C223.109 113.371 220.496 115.407 216.878 115.407C214.164 115.305 211.652 114.287 209.541 112.455Z" fill="black"/>
<path d="M247.03 97.3906H259.995V100.139H250.145V104.719H258.889V107.467H250.145V112.251H260.095V115H247.03V97.3906Z" fill="black"/>
<path d="M284.116 97.3906H291.855C294.066 97.3906 295.775 98.0013 296.88 99.121C297.785 100.037 298.287 101.36 298.287 102.887C298.287 105.839 296.579 107.569 294.167 108.282L298.89 115H295.272L290.95 108.892H287.131V115H284.016V97.3906H284.116ZM291.654 106.144C293.865 106.144 295.272 105.025 295.272 103.192C295.272 101.258 293.966 100.241 291.654 100.241H287.232V106.144H291.654Z" fill="black"/>
<path d="M322.711 97.3906H325.726V115H322.711V97.3906Z" fill="black"/>
<path d="M350.852 97.3906H363.817V100.139H353.967V104.719H362.711V107.467H353.967V112.251H363.917V115H350.852V97.3906Z" fill="black"/>
<path d="M386.733 112.455L388.542 110.216C390.251 111.641 391.859 112.557 394.07 112.557C395.979 112.557 397.186 111.641 397.186 110.318C397.186 109.096 396.482 108.384 393.266 107.57C389.547 106.654 387.436 105.534 387.436 102.277C387.436 99.2232 389.949 97.1875 393.366 97.1875C395.879 97.1875 397.889 98.0018 399.698 99.4268L398.09 101.768C396.482 100.546 394.974 99.9357 393.366 99.9357C391.557 99.9357 390.552 100.852 390.552 102.073C390.552 103.396 391.356 104.007 394.673 104.821C398.392 105.737 400.301 107.061 400.301 110.013V110.114C400.301 113.371 397.788 115.407 394.07 115.407C391.356 115.305 388.844 114.287 386.733 112.455Z" fill="black"/>
<path d="M304.418 0.59375H321.403V15.1491H304.418V0.59375ZM304.82 21.4598H321.001V79.1723H304.82V21.4598Z" fill="black"/>
<path d="M353.968 40.799L329.144 3.74902H348.24L363.818 28.1776L379.497 3.74902H398.09L373.265 40.5955L399.196 79.0705H380.1L363.416 53.2169L346.632 79.0705H328.038L353.968 40.799Z" fill="black"/>
</svg>
