<svg width="389" height="111" viewBox="0 0 389 111" fill="none" xmlns="http://www.w3.org/2000/svg">
<path d="M59.5322 76.3218H10.8678V49.444H57.5593V39.6107H10.8678V12.7329H59.5322V2.89953H0.345703V86.1552H59.5322V76.3218ZM100.963 28.4663C83.2067 28.4663 71.3695 40.9218 71.3695 57.9663C71.3695 75.0107 83.2067 87.4663 100.963 87.4663C109.512 87.4663 116.746 84.1884 122.007 78.2884L116.088 71.7329C112.142 75.6662 106.881 78.2884 100.963 78.2884C89.783 78.2884 81.8915 69.7663 81.8915 57.9663C81.8915 46.1663 90.4407 37.644 100.963 37.644C106.881 37.644 112.142 40.2662 116.088 44.1995L122.664 37.644C116.746 31.744 109.512 28.4663 100.963 28.4663ZM143.051 0.277344H133.186V86.1552H143.051V0.277344ZM170.014 29.7773H160.149V86.1552H170.014V29.7773ZM164.753 2.89953C160.807 2.89953 158.176 6.17734 158.176 10.1107C158.176 14.044 161.464 16.6662 164.753 16.6662C168.698 16.6662 171.986 14.044 171.986 10.1107C171.986 5.52179 168.698 2.89953 164.753 2.89953ZM216.705 28.4663C207.498 28.4663 200.922 31.7441 196.976 36.9885V29.7773H187.112V110.411H196.976V78.944C201.58 84.1885 208.156 87.4663 216.705 87.4663C232.488 87.4663 244.983 75.0107 244.983 57.9663C244.983 40.9218 232.488 28.4663 216.705 28.4663ZM216.047 37.644C227.885 37.644 235.776 46.8218 235.776 57.9663C235.776 69.1107 227.885 78.2884 216.047 78.2884C204.868 78.2884 196.319 69.7663 196.319 57.9663C196.319 46.1663 204.21 37.644 216.047 37.644ZM300.881 35.0218C295.62 31.0885 287.071 29.1217 278.522 29.1217C264.712 29.1217 255.505 35.6774 255.505 46.8218C255.505 55.3441 261.424 61.244 274.576 62.5551L281.153 63.2107C289.044 63.8663 292.332 66.4885 292.332 71.0774C292.332 76.9774 286.414 79.5996 277.207 79.5996C268 79.5996 262.081 76.9773 257.478 73.6995L252.875 80.9107C260.109 86.8107 269.973 88.1217 276.549 88.1217C292.332 88.1217 301.539 80.9107 301.539 70.4218C301.539 61.244 294.305 55.9996 282.468 54.6885L275.892 54.0329C269.315 53.3773 264.712 51.4107 264.712 46.8218C264.712 41.5774 269.973 38.2996 277.207 38.2996C284.441 38.2996 291.675 40.9218 295.62 43.5441L300.881 35.0218ZM337.708 28.4663C321.268 28.4663 309.43 40.2663 309.43 57.9663C309.43 75.6663 321.268 87.4663 338.366 87.4663C346.915 87.4663 354.807 85.4996 361.383 78.944L356.122 72.3885C351.519 76.3218 344.942 78.944 338.366 78.944C328.502 78.944 320.61 73.044 319.295 61.244H364.014C364.014 59.9329 364.014 58.6218 364.014 57.3107C364.671 40.2662 353.492 28.4663 337.708 28.4663ZM337.708 36.9885C346.915 36.9885 353.492 43.5441 354.807 53.3774H319.953C321.268 44.1996 327.844 36.9885 337.708 36.9885Z" fill="black"/>
<path d="M375.19 26.5023H377.163L381.766 33.7134L386.37 26.5023H388.343V40.269H386.37V29.7801L381.766 36.9912L377.163 29.7801V40.269H375.19V26.5023ZM366.641 27.8134H362.695V25.8467H372.56V27.8134H368.614V39.6134H366.641V27.8134Z" fill="black"/>
</svg>
