<svg width="389" height="80" viewBox="0 0 389 80" fill="none" xmlns="http://www.w3.org/2000/svg">
<g clip-path="url(#clip0_1192_24655)">
<path d="M22.4952 47.2198H74.7548L86.8374 31.8052H22.4952V18.4393H77.4071L91.5525 0.292969H0V79.8052H77.7018L91.749 61.9515H22.4952V47.2198Z" fill="black"/>
<path d="M319.941 61.9515V47.2198H372.201L384.284 31.8052H319.941V18.4393H374.952L388.999 0.292969H297.446V79.8052H375.148L389.195 61.9515H319.941Z" fill="black"/>
<path d="M218.371 3.2198C212.477 5.17102 207.271 7.80518 203.047 11.3174C198.823 14.732 195.483 18.9271 193.125 23.6101C192.929 24.0003 192.732 24.3905 192.634 24.6832C192.437 24.293 192.339 23.9028 192.143 23.6101C189.785 18.8296 186.445 14.732 182.221 11.3174C177.997 7.90274 172.791 5.17102 166.897 3.2198C160.905 1.26858 154.323 0.292969 147.251 0.292969H93.0264V18.4393H147.251C150.885 18.4393 154.422 19.0247 157.565 20.0979C160.708 21.171 163.557 22.732 165.915 24.5857C168.371 26.5369 170.237 28.8783 171.612 31.5125C172.987 34.2442 173.675 37.171 173.675 40.3905C173.675 43.6101 172.987 46.6344 171.612 49.2686C170.237 51.9027 168.371 54.2442 166.013 56.0979C163.655 57.9515 160.807 59.4149 157.663 60.3905C154.52 61.3661 150.983 61.854 147.251 61.854H115.522V31.8052L93.0264 60.7808V79.7076H147.251C154.225 79.7076 160.807 78.6344 166.799 76.5857C172.693 74.5369 177.899 71.6101 182.123 68.0003C186.347 64.3906 189.785 60.0979 192.143 55.1222C192.339 54.732 192.536 54.2442 192.732 53.854C192.929 54.2442 193.125 54.732 193.322 55.1222C195.777 60.0979 199.117 64.3906 203.341 68.0003C207.565 71.6101 212.772 74.4393 218.666 76.5857C224.658 78.6344 231.239 79.7076 238.214 79.7076H292.438V60.7808L269.943 31.8052V61.854H238.214C234.481 61.854 230.945 61.3661 227.801 60.3905C224.559 59.4149 221.711 57.9515 219.451 56.0979C217.094 54.2442 215.227 51.9027 213.852 49.2686C212.477 46.6344 211.789 43.6101 211.789 40.3905C211.789 37.2686 212.477 34.2442 213.852 31.5125C215.227 28.7808 217.094 26.4393 219.55 24.5857C221.907 22.732 224.756 21.171 227.899 20.0979C231.043 19.0247 234.579 18.4393 238.214 18.4393H292.438V0.292969H238.214C231.043 0.292969 224.363 1.26858 218.371 3.2198Z" fill="black"/>
</g>
<defs>
<clipPath id="clip0_1192_24655">
<rect width="389" height="80" fill="white"/>
</clipPath>
</defs>
</svg>
