<svg width="524" height="53" viewBox="0 0 524 53" fill="none" xmlns="http://www.w3.org/2000/svg">
<g clip-path="url(#clip0_1345_47727)">
<path d="M0 22.0065V21.8532C0 10.5048 8.38478 0.459961 20.8466 0.459961C27.8467 0.459961 32.1545 2.45358 36.3084 5.98078L33.3083 9.50798C30.0775 6.74757 26.539 4.75395 20.6927 4.75395C11.5387 4.75395 4.92317 12.4984 4.92317 21.6998V21.8532C4.92317 31.7447 11.231 39.0291 21.3081 39.0291C26.0774 39.0291 30.4621 37.1888 33.3083 34.8885V24.6136H20.6158V20.3963H37.77V36.8821C33.9237 40.3326 28.0775 43.1697 21.0773 43.1697C8.07708 43.3231 0 33.8917 0 22.0065Z" fill="black"/>
<path d="M43.3857 33.7381V33.5848C43.3857 26.9904 48.6935 23.6166 56.4629 23.6166C60.3861 23.6166 63.0784 24.1533 65.8477 24.9201V24C65.8477 18.5558 62.54 15.7187 56.7706 15.7187C53.1552 15.7187 50.309 16.6389 47.4627 17.9424L46.0781 14.1852C49.4628 12.6516 52.6936 11.5781 57.2322 11.5781C61.5399 11.5781 64.9246 12.7283 67.1554 14.952C69.3093 17.099 70.3863 20.0127 70.3863 23.9233V42.6328H65.8477V38.1088C63.6938 40.7925 60.2322 43.3229 54.8475 43.3229C49.0782 43.2462 43.3857 40.0257 43.3857 33.7381ZM65.9246 31.3611V28.524C63.6938 27.9106 60.6938 27.2205 57.0014 27.2205C51.309 27.2205 48.0781 29.6742 48.0781 33.3547V33.5081C48.0781 37.342 51.6167 39.5657 55.7706 39.5657C61.3861 39.5657 65.9246 36.1918 65.9246 31.3611Z" fill="black"/>
<path d="M77.6934 12.0388H82.2319V17.1762C84.2319 14.1857 87.0012 11.3486 92.1552 11.3486C97.1553 11.3486 100.309 14.0324 102.002 17.4062C104.232 14.0324 107.463 11.3486 112.771 11.3486C119.848 11.3486 124.156 16.1027 124.156 23.6172V42.5567H119.617V24.6907C119.617 18.7864 116.617 15.4893 111.694 15.4893C107.079 15.4893 103.232 18.9398 103.232 24.9207V42.5567H98.6938V24.614C98.6938 18.8631 95.6937 15.4893 90.7705 15.4893C85.9243 15.4893 82.2319 19.4765 82.2319 25.1507V42.5567H77.6934V12.0388Z" fill="black"/>
<path d="M131.771 12.0388H136.31V17.1762C138.31 14.1857 141.079 11.3486 146.233 11.3486C151.233 11.3486 154.387 14.0324 156.08 17.4062C158.31 14.0324 161.541 11.3486 166.849 11.3486C173.926 11.3486 178.234 16.1027 178.234 23.6172V42.5567H173.695V24.6907C173.695 18.7864 170.695 15.4893 165.772 15.4893C161.157 15.4893 157.31 18.9398 157.31 24.9207V42.5567H152.772V24.614C152.772 18.8631 149.772 15.4893 144.849 15.4893C140.002 15.4893 136.31 19.4765 136.31 25.1507V42.5567H131.771V12.0388Z" fill="black"/>
<path d="M183.465 33.7381V33.5848C183.465 26.9904 188.773 23.6166 196.542 23.6166C200.465 23.6166 203.158 24.1533 205.927 24.9201V24C205.927 18.5558 202.619 15.7187 196.85 15.7187C193.234 15.7187 190.388 16.6389 187.542 17.9424L186.157 14.1852C189.542 12.6516 192.773 11.5781 197.311 11.5781C201.619 11.5781 205.004 12.7283 207.235 14.952C209.388 17.099 210.465 20.0127 210.465 23.9233V42.6328H205.927V38.1088C203.773 40.7925 200.311 43.3229 194.927 43.3229C189.157 43.2462 183.465 40.0257 183.465 33.7381ZM206.004 31.3611V28.524C203.773 27.9106 200.773 27.2205 197.08 27.2205C191.388 27.2205 188.157 29.6742 188.157 33.3547V33.5081C188.157 37.342 191.696 39.5657 195.85 39.5657C201.465 39.5657 206.004 36.1918 206.004 31.3611Z" fill="black"/>
<path d="M218.543 1.22754H223.312L238.466 23.7709L253.621 1.22754H258.39V42.5571H253.698V9.04871L238.466 31.2854H238.236L223.082 9.20207V42.6338H218.543V1.22754Z" fill="black"/>
<path d="M280.467 39.3357C284.698 39.3357 287.621 37.6488 290.159 35.0417L293.006 37.5721C289.929 41.0226 286.159 43.323 280.39 43.323C272.005 43.323 265.082 36.882 265.082 27.3739C265.082 18.4792 271.313 11.4248 279.775 11.4248C288.852 11.4248 294.083 18.6326 294.083 27.6039C294.083 27.9873 294.083 28.5241 294.006 29.2142H269.697C270.313 35.6551 275.005 39.3357 280.467 39.3357ZM289.39 25.5336C288.852 20.0128 285.621 15.2587 279.621 15.2587C274.313 15.2587 270.313 19.6294 269.621 25.5336H289.39Z" fill="black"/>
<path d="M297.929 27.4509V27.2976C297.929 17.3294 305.237 11.4252 312.544 11.4252C318.237 11.4252 321.929 14.4923 324.314 17.9428V-0.459961H328.852V42.7099H324.314V36.5756C321.852 40.2562 318.237 43.4 312.544 43.4C305.16 43.2466 297.929 37.4958 297.929 27.4509ZM324.468 27.3743V27.2209C324.468 20.1665 319.083 15.4891 313.391 15.4891C307.467 15.4891 302.621 19.8598 302.621 27.2209V27.3743C302.621 34.582 307.621 39.1827 313.391 39.1827C319.083 39.1827 324.468 34.4287 324.468 27.3743Z" fill="black"/>
<path d="M357.604 12.5749H362.143V18.7091C364.605 15.0286 368.22 11.8848 373.913 11.8848C381.297 11.8848 388.528 17.7123 388.528 27.7572V27.9105C388.528 37.8787 381.297 43.7829 373.913 43.7829C368.22 43.7829 364.528 40.7158 362.143 37.2653V52.6009H357.604V12.5749ZM383.913 27.9872V27.8339C383.913 20.6261 378.913 16.0254 373.143 16.0254C367.451 16.0254 362.066 20.7794 362.066 27.7572V27.9105C362.066 34.9649 367.451 39.719 373.143 39.719C378.99 39.719 383.913 35.3483 383.913 27.9872Z" fill="black"/>
<path d="M395.066 0H399.605V43.1699H395.066V0Z" fill="black"/>
<path d="M407.451 31.5914V12.6519H411.99V30.4412C411.99 36.1154 415.067 39.6426 420.451 39.6426C425.682 39.6426 429.605 35.8087 429.605 30.0578V12.5752H434.144V43.0931H429.605V37.8023C427.528 41.0995 424.375 43.7832 419.144 43.7832C411.759 43.7832 407.451 38.7992 407.451 31.5914Z" fill="black"/>
<path d="M439.374 39.2589L441.682 36.0384C444.99 38.4921 448.682 39.949 452.297 39.949C455.99 39.949 458.605 38.032 458.605 35.1182V34.9649C458.605 31.8978 454.99 30.7476 450.99 29.5974C446.22 28.2172 440.836 26.607 440.836 20.9328V20.7794C440.836 15.4886 445.22 12.0381 451.297 12.0381C455.067 12.0381 459.221 13.3416 462.298 15.4119L460.221 18.8624C457.374 17.0222 454.144 15.872 451.143 15.872C447.528 15.872 445.22 17.7889 445.22 20.3193V20.4727C445.22 23.3865 448.99 24.46 453.144 25.7635C457.913 27.2204 462.99 28.984 462.99 34.5048V34.6582C462.99 40.4857 458.221 43.7829 452.067 43.7829C447.682 43.7062 442.836 42.0193 439.374 39.2589Z" fill="black"/>
<path d="M471.762 0H481.223V7.97456H471.762V0ZM471.993 11.5017H480.993V43.1699H471.993V11.5017Z" fill="black"/>
<path d="M499.377 22.0834L485.53 1.76367H496.223L504.915 15.1824L513.685 1.76367H524.07L510.223 22.0067L524.685 43.1699H513.992L504.685 28.9844L495.3 43.1699H484.915L499.377 22.0834Z" fill="black"/>
</g>
<defs>
<clipPath id="clip0_1345_47727">
<rect width="524" height="53" fill="white"/>
</clipPath>
</defs>
</svg>
