<svg width="477" height="58" viewBox="0 0 477 58" fill="none" xmlns="http://www.w3.org/2000/svg">
<g clip-path="url(#clip0_1137_22198)">
<path d="M0 57.4511H10.0199V0.171168H0V57.4511ZM48.4515 57.4511H58.4714V0.171168H48.4515V23.7378H14.5025V33.7012H48.4515V57.4511ZM129.758 57.3725H142.691L112.065 5.59148C111.031 3.83228 109.6 2.33535 107.885 1.21857C106.736 0.397374 105.346 -0.025841 103.93 0.0140579C102.587 0.176704 101.315 0.702004 100.252 1.53279C98.6473 2.57851 97.2964 3.96471 96.2965 5.59148L65.0503 57.3725H77.9575L103.983 14.9134L114.016 31.4231H98.7488L92.6445 41.3865H119.975L129.758 57.3725ZM148.084 57.4511H197.761V47.4876H158.103V0.171168H148.084V57.4511ZM233.108 57.4511H265.593V47.4876H233.108C226.902 47.4876 222.033 45.4714 218.5 41.4389C215.332 37.7768 213.725 33.0342 214.017 28.2154C214.099 23.597 215.898 19.1718 219.067 15.7906C220.871 13.9149 223.055 12.4408 225.476 11.4658C227.896 10.4908 230.498 10.0371 233.108 10.1346H265.593V0.171168H233.108C223.8 0.171168 216.474 3.09517 211.13 8.94318C206.369 14.2273 203.838 21.1284 204.063 28.2154C203.907 35.5877 206.541 42.7501 211.446 48.2863C216.904 54.3961 224.125 57.4511 233.108 57.4511ZM309.575 38.48L337.394 0.171168H325.304L304.921 28.4642L283.168 0.171168H270.274L299.635 38.3359V57.4511H309.668L309.575 38.48ZM396.59 41.4389C393.075 45.4714 388.21 47.4876 381.996 47.4876H365.99C359.794 47.4876 354.915 45.4714 351.395 41.4389C348.218 37.7816 346.605 33.0367 346.9 28.2154C347 23.5883 348.822 19.1619 352.015 15.7906C353.812 13.9233 355.985 12.4542 358.394 11.4794C360.802 10.5047 363.391 10.0464 365.99 10.1346H382.114C384.566 10.0488 387.011 10.4519 389.304 11.3201C391.597 12.1883 393.691 13.504 395.464 15.1895C397.236 16.8749 398.65 18.896 399.622 21.1333C400.595 23.3705 401.106 25.7787 401.126 28.2154C401.463 33.0287 399.876 37.7801 396.709 41.4389H396.59ZM403.776 48.2863C408.677 42.7488 411.307 35.5862 411.146 28.2154C411.373 21.1161 408.816 14.2065 404.013 8.94318C398.739 3.08644 391.44 0.16244 382.114 0.171168H365.99C356.682 0.171168 349.356 3.09517 344.012 8.94318C339.255 14.2286 336.729 21.1299 336.959 28.2154C336.797 35.5862 339.427 42.7488 344.329 48.2863C349.787 54.3961 357.007 57.4511 365.99 57.4511H382.114C391.088 57.4511 398.309 54.3961 403.776 48.2863ZM477 52.5021V0.171168H466.98V39.9201L429.999 3.11699C429.297 2.27183 428.431 1.5755 427.452 1.06942C426.474 0.563352 425.403 0.257876 424.303 0.171168C423.717 0.145663 423.133 0.249907 422.592 0.47635C422.052 0.702793 421.569 1.04576 421.179 1.48042C420.327 2.509 419.895 3.8168 419.966 5.14634V57.4511H429.999V17.6759L466.914 54.5838C469.226 56.8619 471.313 58.001 473.177 58.001C475.699 58.001 476.956 56.168 476.947 52.5021" fill="black"/>
</g>
<defs>
<clipPath id="clip0_1137_22198">
<rect width="477" height="58" fill="white"/>
</clipPath>
</defs>
</svg>
