<svg width="477" height="94" viewBox="0 0 477 94" fill="none" xmlns="http://www.w3.org/2000/svg">
<g clip-path="url(#clip0_1189_20923)">
<path d="M-0.283203 93.857L17.8728 93.9287C25.0786 86.6814 32.779 80.0799 40.9033 73.9089V64.7959C12.7863 80.9409 -0.283203 93.857 -0.283203 93.857Z" fill="black"/>
<path d="M107.807 34.2995V37.098C252.418 -19.7326 446.906 18.0827 446.906 18.0827L447.189 8.46743C290.426 -11.6242 179.795 8.53919 107.807 34.2995Z" fill="black"/>
<path d="M251.851 51.3777C251.851 49.1533 251.216 47.0724 249.873 45.0632C246.482 40.1838 240.548 37.7441 232.071 37.7441H196.395V83.596H232.071C240.972 83.596 247.048 81.0128 250.227 75.8464C251.286 74.1243 251.851 72.2586 251.851 70.2495C251.851 66.5182 250.085 63.4327 246.624 60.9212C250.085 58.4098 251.851 55.1808 251.851 51.3777ZM233.342 65.0113C235.674 65.0113 237.793 65.3701 239.7 66.0877C242.244 67.0922 243.515 68.5273 243.515 70.393C243.515 72.2586 242.244 73.622 239.7 74.6266C237.864 75.2724 235.744 75.6312 233.342 75.6312H205.013V45.7808H233.342C235.744 45.7808 237.934 46.1396 239.842 46.9289C242.244 47.9334 243.515 49.4403 243.515 51.3777C243.515 53.3151 242.314 54.822 239.842 55.8983C237.934 56.6876 235.815 57.1182 233.342 57.1182H210.1V65.0831H233.342V65.0113Z" fill="black"/>
<path d="M296.007 56.4004H267.607V64.3653H296.007V56.4004Z" fill="black"/>
<path d="M414.762 41.547C414.409 40.3271 413.773 39.3226 412.854 38.4615C411.795 37.5287 410.594 37.0264 409.393 37.0264C407.485 37.0264 405.719 38.5332 404.024 41.547L387.351 71.5409L370.75 41.547C369.054 38.5332 367.288 37.0264 365.381 37.0264C364.038 37.0264 362.908 37.4569 361.919 38.3897C360.93 39.2508 360.294 40.3271 360.011 41.547L351.746 72.9042L332.036 42.2645C331.329 41.1164 330.34 40.1119 329.21 39.2508C327.868 38.2462 326.525 37.7439 325.254 37.7439C324.053 37.7439 322.781 38.2462 321.298 39.3225C320.097 40.2554 319.108 41.1882 318.472 42.2645L297.419 74.6264H264.004V45.8523H298.267V37.8874H255.314V83.7394H291.485H302.647L325.042 49.7989L333.731 63.0019H320.591L315.363 70.8951H338.959L347.366 83.7394H358.669L365.875 51.5928L382.547 81.1561C383.678 83.2371 385.373 84.2416 387.634 84.2416C389.612 84.2416 391.166 83.2371 392.297 81.2279L408.969 51.5928L416.175 83.7394H425.924L414.762 41.547Z" fill="black"/>
<path d="M45.4966 58.7684C45.426 71.3974 52.1373 83.9546 70.5759 84.6004V80.5104C54.7512 80.5104 49.6648 68.2401 49.5235 59.9165V41.7623H69.2336V37.6722H49.5235V20.9531H45.4966V58.7684Z" fill="black"/>
<path d="M79.6186 55.8983C79.6892 51.9518 79.9012 41.906 92.2642 41.906V37.9594H91.6284C86.9658 37.9594 82.8683 39.8968 79.4773 43.6281V37.7441H75.5918V84.6006H79.6186V55.8983Z" fill="black"/>
<path d="M97.5628 60.4184C98.128 75.0566 106.252 84.7436 120.028 84.7436C134.722 84.7436 139.95 75.2719 139.95 75.2719V84.6719H143.836V37.6719H139.88V57.5482C140.021 68.0963 135.853 80.1513 120.805 80.2948C106.111 80.4383 101.802 69.6032 101.66 57.7635V37.8154H97.4922V60.4184H97.5628Z" fill="black"/>
<path d="M188.625 64.9391C187.001 73.9803 179.229 80.7971 169.834 80.7971C159.519 80.7971 151.183 72.5452 150.759 62.2124H192.793C192.793 61.9254 192.793 61.7101 192.793 61.4231C192.793 48.3635 182.409 37.8154 169.551 37.8154C156.694 37.8154 146.309 48.3635 146.309 61.4231C146.309 74.4826 156.694 85.0307 169.551 85.0307C181.208 85.0307 190.886 76.3483 192.511 64.9391H188.625ZM169.622 42.1208C179.088 42.1208 186.93 49.0811 188.484 58.2658H150.83C152.313 49.1528 160.155 42.1208 169.622 42.1208Z" fill="black"/>
</g>
<defs>
<clipPath id="clip0_1189_20923">
<rect width="477" height="94" fill="white"/>
</clipPath>
</defs>
</svg>
