<svg width="452" height="120" viewBox="0 0 452 120" fill="none" xmlns="http://www.w3.org/2000/svg">
<g clip-path="url(#clip0_1345_47401)">
<path d="M52.0282 90.7081C52.0282 86.0706 52.4703 78.3414 53.3545 73.7039L53.1335 73.4831C48.4913 84.7456 38.3227 92.2539 24.3962 92.2539C5.82753 92.2539 0.0800781 80.5497 0.0800781 66.1956V9.44141H14.6698V61.9997C14.6698 73.4831 17.9856 80.1081 28.5963 80.1081C42.0807 80.1081 51.8072 66.6372 51.8072 48.5289V9.44141H66.3968V90.7081H52.0282Z" fill="black"/>
<path d="M137.799 90.709V38.1506C137.799 26.6673 134.705 20.0423 123.873 20.0423C110.388 20.0423 100.883 33.5132 100.883 51.6215V90.709H86.0723V9.44232H100.22C100.22 14.0798 99.9988 21.809 98.8935 26.4465L99.3356 26.6673C103.978 15.4048 114.146 7.89648 128.073 7.89648C146.642 7.89648 152.61 19.6007 152.61 33.9548V90.709H137.799Z" fill="black"/>
<path d="M172.062 90.7081V9.44141H186.873V90.7081H172.062Z" fill="black"/>
<path d="M242.578 93.137C216.936 93.137 204.557 76.3537 204.557 50.737C204.557 22.6911 222.683 6.57031 244.789 6.57031C267.779 6.57031 282.81 21.3661 282.81 48.9703C282.81 77.0161 264.684 93.137 242.578 93.137ZM243.684 16.7286C229.536 16.7286 216.936 27.9911 216.936 49.1911C216.936 69.287 225.557 82.9786 243.462 82.9786C257.389 82.9786 270.431 71.937 270.431 50.2953C270.431 28.8745 260.705 16.7286 243.684 16.7286ZM239.705 111.024V100.866C260.042 98.437 268.221 107.491 287.895 104.841V114.999C266.01 118.091 257.389 108.595 239.705 111.024Z" fill="black" stroke="black"/>
<path d="M352.001 90.7081C352.001 86.0706 352.443 78.3414 353.328 73.7039L352.885 73.4831C348.243 84.7456 338.075 92.2539 324.148 92.2539C305.579 92.2539 299.832 80.5497 299.832 66.1956V9.44141H314.422V61.9997C314.422 73.4831 317.738 80.1081 328.348 80.1081C341.833 80.1081 351.559 66.6372 351.559 48.5289V9.44141H366.149V90.7081H352.001Z" fill="black"/>
<path d="M450.592 49.1923H397.317C396.654 71.0548 405.717 80.3298 422.96 80.3298C431.36 80.3298 440.202 78.3423 446.613 75.2506L447.939 87.1757C439.981 90.4882 430.476 92.2548 420.528 92.2548C395.549 92.2548 382.064 79.2257 382.064 50.5173C382.064 26.2257 395.328 7.89648 418.318 7.89648C441.307 7.89648 450.813 23.3548 450.813 42.1256C451.034 44.1132 450.813 46.3215 450.592 49.1923ZM417.875 18.7173C407.265 18.7173 399.749 26.6673 397.98 38.5923H436.002C436.223 26.6673 429.149 18.7173 417.875 18.7173Z" fill="black"/>
</g>
<defs>
<clipPath id="clip0_1345_47401">
<rect width="452" height="120" fill="white"/>
</clipPath>
</defs>
</svg>
