<svg width="71" height="70" viewBox="0 0 71 70" fill="none" xmlns="http://www.w3.org/2000/svg">
<path d="M65.7272 21.3014H50.6666C50.5605 21.3014 50.5605 21.3014 50.5605 21.3014C50.0302 21.3014 49.4999 21.4069 49.0757 21.6178C48.8636 21.7232 48.3333 21.9342 43.1363 28.3669V12.6542C43.1363 12.0214 42.7121 11.5996 42.0757 11.5996H2.62115C1.98479 11.5996 1.56055 12.0214 1.56055 12.6542V41.6542C1.56055 42.2869 1.98479 42.7087 2.62115 42.7087H20.7575L9.62115 58.316C9.30297 58.8432 9.40903 59.476 9.83327 59.7923C10.3636 60.1087 10.9999 60.0033 11.3181 59.5814L21.7121 44.9232V55.0469C21.7121 55.6796 22.1363 56.1014 22.7727 56.1014C23.409 56.1014 23.8333 55.6796 23.8333 55.0469V44.9232L34.1212 59.5814C34.4393 60.1087 35.0757 60.2142 35.606 59.7923C36.1363 59.476 36.2424 58.8432 35.8181 58.316L24.7878 42.6032H41.9696C42.606 42.6032 43.0302 42.1814 43.0302 41.5487V38.4905C43.6666 38.2796 44.303 37.9632 44.7272 37.5414L47.4848 34.5887V60.1087C47.4848 62.0069 48.9696 63.6942 50.7727 63.9051C52.9999 64.116 54.803 62.4287 54.803 60.3196V46.1887C54.803 45.6614 55.2272 45.1342 55.8636 45.1342C56.3939 45.1342 56.9242 45.556 56.9242 46.1887V60.1087C56.9242 62.0069 58.409 63.6942 60.2121 63.9051C60.3181 63.9051 60.4242 63.9051 60.6363 63.9051C62.6515 63.9051 64.3484 62.2178 64.3484 60.2142V40.7051C64.7727 40.916 65.303 41.0214 65.9393 41.0214C67.9545 41.0214 69.6515 39.3342 69.6515 37.3305V24.9923C69.4393 22.8832 67.7424 21.3014 65.7272 21.3014ZM3.68176 40.4942V13.7087H40.909V26.5742L39.4242 24.3596C38.4696 22.9887 36.7727 22.356 35.2878 22.8832L32.6363 18.9814C32.3181 18.4542 31.6818 18.3487 31.1515 18.7705C30.6212 19.0869 30.5151 19.7196 30.9393 20.2469L33.6969 24.0432C32.6363 25.3087 32.6363 27.1014 33.3787 28.3669L38.9999 37.1196C39.4242 37.8578 40.1666 38.3851 40.909 38.596V40.5996H3.68176V40.4942ZM67.3181 37.436C67.3181 38.2796 66.5757 39.0178 65.7272 39.0178C64.8787 39.0178 64.1363 38.2796 64.1363 37.436V26.5742C64.1363 25.9414 63.7121 25.5196 63.0757 25.5196C62.4393 25.5196 62.0151 25.9414 62.0151 26.5742V37.3305V60.1087C62.0151 61.0578 61.2727 61.6905 60.3181 61.6905C59.5757 61.5851 58.9393 60.8469 58.9393 60.0033V46.1887C58.9393 44.5014 57.5605 43.0251 55.7575 43.0251C54.0605 43.0251 52.5757 44.396 52.5757 46.1887V60.2142C52.5757 61.1632 51.8333 61.796 50.8787 61.796C50.1363 61.6905 49.4999 60.9523 49.4999 60.1087V31.9523C49.4999 31.5305 49.1818 31.1087 48.8636 31.0032C48.4393 30.8978 48.0151 30.8978 47.6969 31.2142L43.1363 36.0651C42.4999 36.8032 41.2272 36.6978 40.6969 35.8542L35.0757 27.1014C34.0151 25.4142 36.5605 23.7269 37.7272 25.4142L41.5454 31.3196C41.9696 31.9523 42.8181 31.9523 43.2424 31.4251C45.9999 27.9451 49.1818 24.0432 49.9242 23.4105C50.1363 23.3051 50.3484 23.3051 50.5605 23.3051H50.6666H65.7272C66.5757 23.3051 67.3181 24.0432 67.3181 24.8869V37.436Z" fill="#EC6602"/>
<path d="M55.6512 19.298C59.3633 19.298 62.439 16.2398 62.439 12.5489C62.439 8.85799 59.3633 5.7998 55.6512 5.7998C51.939 5.7998 48.8633 8.85799 48.8633 12.5489C48.8633 16.2398 51.939 19.298 55.6512 19.298ZM55.6512 7.80344C58.1966 7.80344 60.3178 9.91253 60.3178 12.4434C60.3178 14.9744 58.1966 17.0834 55.6512 17.0834C53.1057 17.0834 50.9845 14.9744 50.9845 12.4434C50.9845 9.91253 53.1057 7.80344 55.6512 7.80344Z" fill="#EC6602"/>
<path d="M8.13678 19.1921H21.7125C22.3489 19.1921 22.7731 18.7703 22.7731 18.1376C22.7731 17.5048 22.3489 17.083 21.7125 17.083H8.13678C7.50041 17.083 7.07617 17.5048 7.07617 18.1376C7.07617 18.7703 7.50041 19.1921 8.13678 19.1921Z" fill="#EC6602"/>
<path d="M8.13678 25.2038H27.0156C27.6519 25.2038 28.0762 24.782 28.0762 24.1493C28.0762 23.5165 27.6519 23.0947 27.0156 23.0947H8.13678C7.50041 23.0947 7.07617 23.5165 7.07617 24.1493C7.07617 24.6765 7.50041 25.2038 8.13678 25.2038Z" fill="#EC6602"/>
<path d="M8.13678 31.1091H29.1368C29.7731 31.1091 30.1974 30.6873 30.1974 30.0545C30.1974 29.4218 29.7731 29 29.1368 29H8.13678C7.50041 29 7.07617 29.4218 7.07617 30.0545C7.07617 30.6873 7.50041 31.1091 8.13678 31.1091Z" fill="#EC6602"/>
<path d="M31.258 34.9053H8.13678C7.50041 34.9053 7.07617 35.3271 7.07617 35.9598C7.07617 36.5925 7.50041 37.0144 8.13678 37.0144H31.258C31.8944 37.0144 32.3186 36.5925 32.3186 35.9598C32.3186 35.4325 31.8944 34.9053 31.258 34.9053Z" fill="#EC6602"/>
<path d="M55.6524 33.5342C55.016 33.5342 54.5918 33.956 54.5918 34.5887V36.6978C54.5918 37.3305 55.016 37.7524 55.6524 37.7524C56.2888 37.7524 56.713 37.3305 56.713 36.6978V34.5887C56.713 33.956 56.2888 33.5342 55.6524 33.5342Z" fill="#EC6602"/>
<path d="M55.6524 27.207C55.016 27.207 54.5918 27.6288 54.5918 28.2616V30.3707C54.5918 31.0034 55.016 31.4252 55.6524 31.4252C56.2888 31.4252 56.713 31.0034 56.713 30.3707V28.2616C56.713 27.6288 56.2888 27.207 55.6524 27.207Z" fill="#EC6602"/>
</svg>
