<svg width="70" height="70" viewBox="0 0 70 70" fill="none" xmlns="http://www.w3.org/2000/svg">
<path d="M5.3036 16.4511C5.40967 17.1892 5.83391 17.9274 6.36421 18.4547C6.36421 18.4547 10.5006 22.7783 11.9854 24.3601C12.1975 24.5711 12.3036 24.782 12.3036 25.0983V55.2583C12.3036 57.1565 13.7885 58.8438 15.5915 59.0547C17.8188 59.2656 19.6218 57.5783 19.6218 55.3638V41.4438C19.6218 40.6001 20.2581 39.9674 21.1066 39.9674C21.9551 39.9674 22.5915 40.6001 22.5915 41.4438V55.2583C22.5915 57.1565 24.0763 58.8438 25.8794 59.0547C25.9854 59.0547 26.0915 59.0547 26.3036 59.0547C28.3188 59.0547 30.0157 57.3674 30.0157 55.3638V25.0983C30.0157 24.782 30.1218 24.5711 30.3339 24.3601C31.9248 22.7783 35.9551 18.4547 35.9551 18.4547C36.5915 17.9274 36.9097 17.1892 37.1218 16.4511L39.243 5.37832C39.5612 3.16378 37.8642 1.05469 35.4248 1.05469C33.6218 1.05469 32.1369 2.32014 31.8188 4.11287L29.9097 13.9201C29.1672 14.7638 26.4097 17.4001 24.1824 19.8256H18.0309C15.9097 17.822 13.1521 14.7638 12.3036 13.9201L10.3945 4.11287C10.0763 2.32014 8.59148 1.05469 6.78845 1.05469C4.45512 1.05469 2.75815 3.16378 3.18239 5.37832L5.3036 16.4511ZM8.37936 4.53469L10.2885 14.6583C10.2885 14.8692 10.3945 15.0801 10.5006 15.1856C10.6066 15.3965 14.3188 19.2983 16.7582 21.6183C16.9703 21.8292 17.1824 21.9347 17.5006 21.9347H24.6066C24.9248 21.9347 25.1369 21.8292 25.3491 21.6183C28.1066 18.7711 31.6066 15.1856 31.6066 15.1856C31.7127 15.0801 31.8188 14.8692 31.9248 14.6583L33.94 4.53469C34.046 3.79651 34.6824 3.16378 35.4248 3.16378C36.4854 3.16378 37.2278 4.11287 37.0157 5.06196L34.8945 16.1347C34.7885 16.4511 34.6824 16.7674 34.3642 17.0838C34.3642 17.0838 30.3339 21.4074 28.743 22.9892C28.2127 23.622 27.8945 24.3601 27.8945 25.2038V55.5747C27.8945 56.5238 27.046 57.262 26.1975 57.1565C25.4551 57.0511 24.8188 56.3129 24.8188 55.4692V41.4438C24.8188 39.4401 23.2278 37.8583 21.2127 37.8583C19.1975 37.8583 17.6066 39.4401 17.6066 41.4438V55.4692C17.6066 56.4183 16.7581 57.1565 15.9097 57.0511C15.1672 56.9456 14.5309 56.2074 14.5309 55.3638V25.0983C14.5309 24.2547 14.2127 23.5165 13.6824 22.8838C12.0915 21.302 8.06118 16.9783 7.95512 16.8729C7.743 16.662 7.53088 16.3456 7.42482 16.0292L5.3036 4.95651C4.87936 3.05832 7.95512 2.32014 8.37936 4.53469Z" fill="#EC6602"/>
<path d="M21.1097 15.7131C24.6097 15.7131 27.4734 12.8659 27.4734 9.38587C27.4734 5.90587 24.6097 3.05859 21.1097 3.05859C17.6097 3.05859 14.7461 5.90587 14.7461 9.38587C14.7461 12.8659 17.6097 15.7131 21.1097 15.7131ZM21.1097 5.27314C23.4431 5.27314 25.3522 7.17132 25.3522 9.49132C25.3522 11.8113 23.4431 13.7095 21.1097 13.7095C18.7764 13.7095 16.8673 11.8113 16.8673 9.49132C16.8673 7.17132 18.7764 5.27314 21.1097 5.27314Z" fill="#EC6602"/>
<path d="M40.0928 66.4368H35.8504V62.2186C35.8504 61.5859 35.4261 61.1641 34.7898 61.1641H7.42614C6.78977 61.1641 6.36553 61.5859 6.36553 62.2186V66.4368H2.12311C1.48674 66.4368 1.0625 66.8586 1.0625 67.4913C1.0625 68.1241 1.48674 68.5459 2.12311 68.5459H7.42614C8.0625 68.5459 8.48674 68.1241 8.48674 67.4913V63.2732H33.8352V67.4913C33.8352 68.1241 34.2595 68.5459 34.8958 68.5459H40.1989C40.8352 68.5459 41.2595 68.1241 41.2595 67.4913C41.1534 66.8586 40.7292 66.4368 40.0928 66.4368Z" fill="#EC6602"/>
<path fill-rule="evenodd" clip-rule="evenodd" d="M63.7426 31.5309C63.7426 30.8981 63.6365 30.2654 63.5304 29.6327C63.4244 29.1054 63.0001 28.6836 62.4698 28.6836H41.5759C41.0456 28.6836 40.6214 29.1054 40.5153 29.6327C40.4623 29.949 40.4357 30.2654 40.4092 30.5818C40.3827 30.8981 40.3562 31.2145 40.3032 31.5309C36.1668 33.2181 34.2577 37.4363 35.5304 41.1272C36.6971 44.6072 40.3032 46.7163 43.9092 46.2945C44.0153 46.2945 44.1214 46.2945 44.3335 46.4C44.4395 46.6109 44.7577 46.9272 44.7577 46.9272L46.985 49.1418C48.2577 50.1963 49.6365 50.829 51.1214 51.04V60H49.0001C46.0304 60 43.6971 64.5381 43.6971 67.4909C43.6971 68.1236 44.1214 68.5454 44.7577 68.5454H59.6062C60.2426 68.5454 60.6668 68.1236 60.6668 67.4909V67.2799C60.5607 64.4327 58.2274 60 55.3638 60H53.2426V50.9345C54.7274 50.7236 56.1062 50.0909 57.3789 49.0363C57.3789 49.0363 58.4033 48.1362 59 47.5C59.243 47.2409 59.6062 46.8218 59.6062 46.8218C59.6592 46.7163 59.7123 46.6372 59.7653 46.5581C59.8183 46.479 59.8714 46.4 59.9244 46.2945C60.0304 46.189 60.1365 46.189 60.3486 46.189C63.9547 46.6109 67.5608 44.5018 68.7274 41.0218C69.788 37.3309 67.8789 33.2181 63.7426 31.5309ZM58.2274 66.4363H45.9244C46.3486 65.1709 47.5153 62.1091 48.8941 62.1091H55.2577C56.6365 62.1091 57.8032 65.1709 58.2274 66.4363ZM37.6517 40.4945C36.8032 38.069 37.7577 35.3272 40.4092 33.9563C40.6214 37.5418 41.5759 41.3381 43.1668 44.2909C40.7274 44.2909 38.5001 42.8145 37.6517 40.4945ZM52.0759 48.9309C47.3032 48.9309 44.0153 42.2872 42.9547 37.6472C42.9547 37.6472 42.8486 37.2254 42.6365 35.5381C42.4244 33.8509 42.4244 32.269 42.5304 30.7927H61.6214C61.7274 31.4254 61.7274 32.0581 61.7274 32.7963C61.7274 35.3272 61.3032 37.7527 60.5607 39.9672C59.8183 42.1818 59.7123 42.0763 59.7123 42.0763C58.3335 45.1345 55.5759 48.9309 52.0759 48.9309ZM66.5001 40.4945C65.6517 42.8145 63.4244 44.2909 60.985 44.2909L62.2577 41.4436V41.3381C63.1062 39.0181 63.6365 36.4872 63.7426 33.9563C66.3941 35.3272 67.3486 38.069 66.5001 40.4945Z" fill="#EC6602"/>
</svg>
