<svg width="70" height="70" viewBox="0 0 70 70" fill="none" xmlns="http://www.w3.org/2000/svg">
<path d="M67.4556 47.8763H65.1223V24.9927L66.7132 26.5745C67.1374 26.9963 67.7738 26.9963 68.198 26.5745C68.6223 26.1527 68.6223 25.52 68.198 25.0981L64.8041 21.7236C64.3798 21.3018 63.7435 21.3018 63.3192 21.7236L59.9253 25.0981C59.5011 25.52 59.5011 26.1527 59.9253 26.5745C60.3495 26.9963 60.9859 26.9963 61.4102 26.5745L63.0011 24.9927V47.8763H53.0314C52.395 47.8763 51.9708 48.2981 51.9708 48.9309V54.0981H39.4556C38.8192 54.0981 38.395 54.52 38.395 55.1527V60.32H24.8192C24.1829 60.32 23.7586 60.7418 23.7586 61.3745V66.4363H2.97076C2.3344 66.4363 1.91016 66.8581 1.91016 67.4909C1.91016 68.1236 2.3344 68.5454 2.97076 68.5454H24.8192C25.4556 68.5454 25.8799 68.1236 25.8799 67.4909V62.3236H39.4556C40.092 62.3236 40.5162 61.9018 40.5162 61.269V56.1018H53.0314C53.6677 56.1018 54.092 55.68 54.092 55.0472V49.8799H67.3495C67.9859 49.8799 68.4102 49.4581 68.4102 48.8254C68.5162 48.2981 67.9859 47.8763 67.4556 47.8763Z" fill="#EC6602"/>
<path d="M39.2429 12.4438C42.4247 12.4438 44.9702 9.91287 44.9702 6.74923C44.9702 3.5856 42.4247 1.05469 39.2429 1.05469C36.0611 1.05469 33.5156 3.5856 33.5156 6.74923C33.5156 9.91287 36.0611 12.4438 39.2429 12.4438ZM39.2429 3.16378C41.258 3.16378 42.849 4.7456 42.849 6.74923C42.849 8.75287 41.258 10.3347 39.2429 10.3347C37.2277 10.3347 35.6368 8.75287 35.6368 6.74923C35.6368 4.7456 37.2277 3.16378 39.2429 3.16378Z" fill="#EC6602"/>
<path d="M10.8185 43.1309C11.667 43.9745 12.9397 44.08 13.7882 43.2363L19.9397 37.6472C20.7882 36.9091 20.8943 35.5382 20.0458 34.6945L16.4397 30.7927L17.6064 29.7381C19.0913 30.5818 20.8943 30.16 21.9549 29.1054L28.5307 22.5672L29.9094 22.1454L27.6822 32.1636C27.5761 32.6909 27.47 37.0145 27.47 40.7054L22.167 50.7236C21.2125 52.5163 21.9549 54.7309 23.6519 55.68C25.4549 56.6291 27.6822 55.9963 28.6367 54.2036L34.364 43.4472C34.4701 43.2363 34.5761 42.92 35.1064 40.6C35.3185 39.6509 35.6367 38.28 35.8488 37.2254L40.4094 40.8109L41.364 48.8254C41.5761 50.8291 43.3791 52.2 45.3943 51.9891C47.4094 51.7781 48.7882 49.88 48.5761 47.9818L47.4094 38.4909C47.3034 37.5418 46.7731 36.6981 46.0307 36.0654C41.1519 32.3745 39.0307 30.7927 37.864 30.16L39.0307 25.0981L40.6216 26.8909C41.364 27.7345 42.5307 28.1563 43.5913 28.0509L52.9246 27.3127C53.8791 27.2072 54.8337 26.7854 55.47 26.0472C56.1064 25.3091 56.4246 24.36 56.3185 23.4109C56.2125 21.4072 54.4094 19.9309 52.3943 20.0363L44.864 20.5636L39.2428 14.4472C37.7579 12.76 35.7428 12.9709 33.6216 13.4981L25.561 15.8181C24.9246 16.0291 24.3943 16.3454 23.97 16.7672L16.6519 24.0436C15.4852 25.2036 15.2731 26.8909 16.0155 28.2618L14.8488 29.3163L11.2428 25.4145C10.5003 24.6763 9.12156 24.4654 8.27308 25.3091L2.12156 30.8981C1.27308 31.6363 1.16702 33.0072 2.0155 33.8509L10.8185 43.1309ZM18.2428 25.52L25.561 18.3491C25.7731 18.1381 25.9852 18.0327 26.1973 17.9272L34.1519 15.6072C35.3185 15.2909 36.6973 14.9745 37.5458 15.9236L43.4852 22.4618C43.6973 22.6727 44.0155 22.8836 44.3337 22.7781L52.3943 22.1454H52.5004C53.3488 22.1454 53.9852 22.7781 53.9852 23.5163C53.9852 23.9381 53.8791 24.36 53.667 24.6763C53.3488 24.9927 53.0307 25.2036 52.6064 25.2036L43.2731 25.9418H43.167C42.7428 25.9418 42.3185 25.7309 42.0003 25.4145L39.1367 22.1454C38.6064 21.5127 37.5458 21.8291 37.3337 22.6727L35.5307 30.4763C35.3185 31.5309 35.1064 30.5818 44.6519 37.7527C44.97 37.9636 45.1822 38.3854 45.1822 38.8072C46.1367 47.2436 47.1973 49.7745 44.97 50.0909C44.1216 50.1963 43.3791 49.5636 43.2731 48.72L42.2125 40.2836C42.2125 39.9672 42.0004 39.7563 41.7882 39.5454L35.7428 34.8C35.3185 34.4836 34.5761 34.4836 34.2579 35.0109C33.9397 35.4327 33.7276 36.0654 32.8791 40.2836C32.667 41.2327 32.4549 42.3927 32.3488 42.7091L26.6216 53.4654C26.1973 54.2036 25.3488 54.52 24.5004 54.0981C23.7579 53.6763 23.4397 52.7272 23.864 51.9891L29.2731 41.76C29.3791 41.6545 29.3791 41.4436 29.3791 41.2327C29.3791 37.5418 29.4852 33.3236 29.5913 32.9018L32.2428 21.0909C32.3488 20.4581 31.9246 19.8254 31.1822 19.8254C31.0761 19.8254 30.97 19.8254 30.864 19.8254L27.47 20.7745C27.2579 20.7745 27.1519 20.88 27.0458 21.0909L20.2579 27.84C18.9852 29.1054 16.7579 26.8909 18.2428 25.52ZM16.864 34.4836L11.9852 33.2181L11.2428 28.3672L16.864 34.4836ZM8.90944 27.5236L9.97005 34.1672C10.0761 34.5891 10.3943 34.9054 10.7125 35.0109L17.6064 36.6981L12.3034 41.6545L3.60641 32.3745L8.90944 27.5236Z" fill="#EC6602"/>
</svg>
